<mxfile host="Electron" modified="2024-04-01T03:59:10.768Z" agent="Mozilla/5.0 (Macintosh; Intel Mac OS X 10_15_7) AppleWebKit/537.36 (KHTML, like Gecko) draw.io/23.1.5 Chrome/120.0.6099.109 Electron/28.1.0 Safari/537.36" etag="H1kKUsmOzVG69A8_Hkp0" version="23.1.5" type="device" pages="7">
  <diagram id="E7fnQQuPSjGjv0Fvb9Jx" name="README">
    <mxGraphModel dx="1420" dy="760" grid="1" gridSize="10" guides="1" tooltips="1" connect="1" arrows="1" fold="1" page="1" pageScale="1" pageWidth="850" pageHeight="1100" math="0" shadow="0">
      <root>
        <mxCell id="0" />
        <mxCell id="1" parent="0" />
        <mxCell id="fkjZBveF_ZrPwv48vxz8-1" value="&lt;h1&gt;What is This&lt;/h1&gt;&lt;p&gt;This diagram represents my vision for an enterprise-level prompt engineering tool. It encompasses the following components:&lt;/p&gt;&lt;p&gt;&lt;/p&gt;&lt;ul&gt;&lt;li&gt;Prompt Elements: This section introduces the concept of prompt elements and explains why they are the core building blocks of prompt engineering.&lt;/li&gt;&lt;li&gt;Prompt Datastore: An example entity-relationship (ER) diagram illustrates the structure of a backend database designed to store prompt-related data.&lt;/li&gt;&lt;li&gt;Prompt Evaluation: This section outlines various strategies for evaluating the effectiveness and quality of prompts.&lt;/li&gt;&lt;li&gt;Enterprise Prompt Engineering Platform: A mockup showcases the desired user interface and features of a comprehensive platform tailored for enterprise-level prompt engineering.&lt;/li&gt;&lt;li&gt;Sample Prompt IDE: A sample graphical user interface (GUI) design demonstrates the layout and functionality of an integrated development environment (IDE) specifically geared towards prompt creation and management.&lt;/li&gt;&lt;li&gt;Sample Platform: An architectural diagram depicts the high-level overview of an enterprise-grade prompt engineering platform, illustrating its key components and their interconnections.&lt;/li&gt;&lt;/ul&gt;&lt;p&gt;&lt;/p&gt;" style="text;html=1;spacing=5;spacingTop=-20;whiteSpace=wrap;overflow=hidden;rounded=0;strokeColor=default;" vertex="1" parent="1">
          <mxGeometry x="80" y="40" width="680" height="280" as="geometry" />
        </mxCell>
      </root>
    </mxGraphModel>
  </diagram>
  <diagram id="xtHACANyiEzignTkYokn" name="Prompt Elements">
    <mxGraphModel dx="1420" dy="760" grid="1" gridSize="10" guides="1" tooltips="1" connect="1" arrows="1" fold="1" page="1" pageScale="1" pageWidth="850" pageHeight="1100" math="0" shadow="0">
      <root>
        <mxCell id="0" />
        <mxCell id="1" parent="0" />
        <mxCell id="BCDfakD32TA4rTe-NyT7-1" value="Prompt Elements" style="swimlane;whiteSpace=wrap;html=1;" parent="1" vertex="1">
          <mxGeometry x="80" y="160" width="1160" height="640" as="geometry" />
        </mxCell>
        <mxCell id="BCDfakD32TA4rTe-NyT7-2" value="Element" style="text;html=1;align=center;verticalAlign=middle;whiteSpace=wrap;rounded=0;strokeColor=default;" parent="BCDfakD32TA4rTe-NyT7-1" vertex="1">
          <mxGeometry x="40" y="280" width="80" height="40" as="geometry" />
        </mxCell>
        <mxCell id="BCDfakD32TA4rTe-NyT7-3" value="Element" style="text;html=1;align=center;verticalAlign=middle;whiteSpace=wrap;rounded=0;strokeColor=default;" parent="BCDfakD32TA4rTe-NyT7-1" vertex="1">
          <mxGeometry x="40" y="400" width="80" height="40" as="geometry" />
        </mxCell>
        <mxCell id="BCDfakD32TA4rTe-NyT7-4" value="Element" style="text;html=1;align=center;verticalAlign=middle;whiteSpace=wrap;rounded=0;strokeColor=default;" parent="BCDfakD32TA4rTe-NyT7-1" vertex="1">
          <mxGeometry x="40" y="520" width="80" height="40" as="geometry" />
        </mxCell>
        <mxCell id="BCDfakD32TA4rTe-NyT7-5" value="Element" style="text;html=1;align=center;verticalAlign=middle;whiteSpace=wrap;rounded=0;strokeColor=default;" parent="1" vertex="1">
          <mxGeometry x="120" y="240" width="80" height="40" as="geometry" />
        </mxCell>
        <mxCell id="BCDfakD32TA4rTe-NyT7-6" value="" style="group" parent="1" vertex="1" connectable="0">
          <mxGeometry x="240" y="680" width="640" height="80" as="geometry" />
        </mxCell>
        <mxCell id="BCDfakD32TA4rTe-NyT7-7" value="I expect the response in {{ output_format }}." style="html=1;shadow=0;dashed=0;shape=mxgraph.bootstrap.rrect;rSize=5;strokeColor=#CED4DA;html=1;whiteSpace=wrap;fillColor=#FFFFFF;fontColor=#7D868C;align=left;spacing=15;spacingLeft=40;fontSize=14;container=0;" parent="BCDfakD32TA4rTe-NyT7-6" vertex="1">
          <mxGeometry x="80" width="560" height="80" as="geometry" />
        </mxCell>
        <mxCell id="BCDfakD32TA4rTe-NyT7-8" value="Output Indicator" style="html=1;shadow=0;dashed=0;shape=mxgraph.bootstrap.leftButton;strokeColor=inherit;gradientColor=inherit;fontColor=inherit;fillColor=#E9ECEF;rSize=5;perimeter=none;whiteSpace=wrap;resizeHeight=1;fontSize=14;" parent="BCDfakD32TA4rTe-NyT7-6" vertex="1">
          <mxGeometry width="80" height="80" as="geometry" />
        </mxCell>
        <mxCell id="BCDfakD32TA4rTe-NyT7-9" value="" style="group" parent="1" vertex="1" connectable="0">
          <mxGeometry x="240" y="560" width="640" height="80" as="geometry" />
        </mxCell>
        <mxCell id="BCDfakD32TA4rTe-NyT7-10" value="your write up here ..." style="html=1;shadow=0;dashed=0;shape=mxgraph.bootstrap.rrect;rSize=5;strokeColor=#CED4DA;html=1;whiteSpace=wrap;fillColor=#FFFFFF;fontColor=#7D868C;align=left;spacing=15;spacingLeft=40;fontSize=14;container=0;" parent="BCDfakD32TA4rTe-NyT7-9" vertex="1">
          <mxGeometry x="80" width="560" height="80" as="geometry" />
        </mxCell>
        <mxCell id="BCDfakD32TA4rTe-NyT7-11" value="Input Data" style="html=1;shadow=0;dashed=0;shape=mxgraph.bootstrap.leftButton;strokeColor=inherit;gradientColor=inherit;fontColor=inherit;fillColor=#E9ECEF;rSize=5;perimeter=none;whiteSpace=wrap;resizeHeight=1;fontSize=14;" parent="BCDfakD32TA4rTe-NyT7-9" vertex="1">
          <mxGeometry width="80" height="80" as="geometry" />
        </mxCell>
        <mxCell id="BCDfakD32TA4rTe-NyT7-12" value="Con" style="group" parent="1" vertex="1" connectable="0">
          <mxGeometry x="240" y="440" width="640" height="80" as="geometry" />
        </mxCell>
        <mxCell id="BCDfakD32TA4rTe-NyT7-13" value="You are a professional technical writer working in tech news media. You are assisting a knowledgable tech experts to polish his technical writing." style="html=1;shadow=0;dashed=0;shape=mxgraph.bootstrap.rrect;rSize=5;strokeColor=#CED4DA;html=1;whiteSpace=wrap;fillColor=#FFFFFF;fontColor=#7D868C;align=left;spacing=15;spacingLeft=40;fontSize=14;container=0;" parent="BCDfakD32TA4rTe-NyT7-12" vertex="1">
          <mxGeometry x="80" width="560" height="80" as="geometry" />
        </mxCell>
        <mxCell id="BCDfakD32TA4rTe-NyT7-14" value="Context" style="html=1;shadow=0;dashed=0;shape=mxgraph.bootstrap.leftButton;strokeColor=inherit;gradientColor=inherit;fontColor=inherit;fillColor=#E9ECEF;rSize=5;perimeter=none;whiteSpace=wrap;resizeHeight=1;fontSize=14;" parent="BCDfakD32TA4rTe-NyT7-12" vertex="1">
          <mxGeometry width="80" height="80" as="geometry" />
        </mxCell>
        <mxCell id="BCDfakD32TA4rTe-NyT7-15" value="" style="group" parent="1" vertex="1" connectable="0">
          <mxGeometry x="240" y="240" width="640" height="160" as="geometry" />
        </mxCell>
        <mxCell id="BCDfakD32TA4rTe-NyT7-16" value=" I need you to polish my technical writing. Typically, the input would be a short paragraph. I want you to respect the structure of my writing, fix all grammar issues, and make it more fluent and logical in technical writing. I don&#39;t want you to be too creative by adding a lot of fancy words." style="html=1;shadow=0;dashed=0;shape=mxgraph.bootstrap.rrect;rSize=5;strokeColor=#CED4DA;html=1;whiteSpace=wrap;fillColor=#FFFFFF;fontColor=#7D868C;align=left;spacing=15;spacingLeft=40;fontSize=14;container=0;" parent="BCDfakD32TA4rTe-NyT7-15" vertex="1">
          <mxGeometry x="80" width="560" height="160" as="geometry" />
        </mxCell>
        <mxCell id="BCDfakD32TA4rTe-NyT7-17" value="Instruction" style="html=1;shadow=0;dashed=0;shape=mxgraph.bootstrap.leftButton;strokeColor=inherit;gradientColor=inherit;fontColor=inherit;fillColor=#E9ECEF;rSize=5;perimeter=none;whiteSpace=wrap;resizeHeight=1;fontSize=14;" parent="BCDfakD32TA4rTe-NyT7-15" vertex="1">
          <mxGeometry width="80" height="160" as="geometry" />
        </mxCell>
        <mxCell id="BCDfakD32TA4rTe-NyT7-18" value="Variables" style="shape=table;startSize=30;container=1;collapsible=0;childLayout=tableLayout;strokeColor=default;fontSize=16;" parent="1" vertex="1">
          <mxGeometry x="920" y="240" width="280" height="150" as="geometry" />
        </mxCell>
        <mxCell id="BCDfakD32TA4rTe-NyT7-19" value="" style="shape=tableRow;horizontal=0;startSize=0;swimlaneHead=0;swimlaneBody=0;strokeColor=inherit;top=0;left=0;bottom=0;right=0;collapsible=0;dropTarget=0;fillColor=none;points=[[0,0.5],[1,0.5]];portConstraint=eastwest;fontSize=16;" parent="BCDfakD32TA4rTe-NyT7-18" vertex="1">
          <mxGeometry y="30" width="280" height="40" as="geometry" />
        </mxCell>
        <mxCell id="BCDfakD32TA4rTe-NyT7-20" value="Key" style="shape=partialRectangle;html=1;whiteSpace=wrap;connectable=0;strokeColor=inherit;overflow=hidden;fillColor=none;top=0;left=0;bottom=0;right=0;pointerEvents=1;fontSize=16;" parent="BCDfakD32TA4rTe-NyT7-19" vertex="1">
          <mxGeometry width="120" height="40" as="geometry">
            <mxRectangle width="120" height="40" as="alternateBounds" />
          </mxGeometry>
        </mxCell>
        <mxCell id="BCDfakD32TA4rTe-NyT7-21" value="Value" style="shape=partialRectangle;html=1;whiteSpace=wrap;connectable=0;strokeColor=inherit;overflow=hidden;fillColor=none;top=0;left=0;bottom=0;right=0;pointerEvents=1;fontSize=16;" parent="BCDfakD32TA4rTe-NyT7-19" vertex="1">
          <mxGeometry x="120" width="160" height="40" as="geometry">
            <mxRectangle width="160" height="40" as="alternateBounds" />
          </mxGeometry>
        </mxCell>
        <mxCell id="BCDfakD32TA4rTe-NyT7-22" value="" style="shape=tableRow;horizontal=0;startSize=0;swimlaneHead=0;swimlaneBody=0;strokeColor=inherit;top=0;left=0;bottom=0;right=0;collapsible=0;dropTarget=0;fillColor=none;points=[[0,0.5],[1,0.5]];portConstraint=eastwest;fontSize=16;" parent="BCDfakD32TA4rTe-NyT7-18" vertex="1">
          <mxGeometry y="70" width="280" height="40" as="geometry" />
        </mxCell>
        <mxCell id="BCDfakD32TA4rTe-NyT7-23" value="output_format" style="shape=partialRectangle;html=1;whiteSpace=wrap;connectable=0;strokeColor=inherit;overflow=hidden;fillColor=none;top=0;left=0;bottom=0;right=0;pointerEvents=1;fontSize=16;" parent="BCDfakD32TA4rTe-NyT7-22" vertex="1">
          <mxGeometry width="120" height="40" as="geometry">
            <mxRectangle width="120" height="40" as="alternateBounds" />
          </mxGeometry>
        </mxCell>
        <mxCell id="BCDfakD32TA4rTe-NyT7-24" value="Markdown" style="shape=partialRectangle;html=1;whiteSpace=wrap;connectable=0;strokeColor=inherit;overflow=hidden;fillColor=none;top=0;left=0;bottom=0;right=0;pointerEvents=1;fontSize=16;" parent="BCDfakD32TA4rTe-NyT7-22" vertex="1">
          <mxGeometry x="120" width="160" height="40" as="geometry">
            <mxRectangle width="160" height="40" as="alternateBounds" />
          </mxGeometry>
        </mxCell>
        <mxCell id="BCDfakD32TA4rTe-NyT7-25" value="" style="shape=tableRow;horizontal=0;startSize=0;swimlaneHead=0;swimlaneBody=0;strokeColor=inherit;top=0;left=0;bottom=0;right=0;collapsible=0;dropTarget=0;fillColor=none;points=[[0,0.5],[1,0.5]];portConstraint=eastwest;fontSize=16;" parent="BCDfakD32TA4rTe-NyT7-18" vertex="1">
          <mxGeometry y="110" width="280" height="40" as="geometry" />
        </mxCell>
        <mxCell id="BCDfakD32TA4rTe-NyT7-26" value="..." style="shape=partialRectangle;html=1;whiteSpace=wrap;connectable=0;strokeColor=inherit;overflow=hidden;fillColor=none;top=0;left=0;bottom=0;right=0;pointerEvents=1;fontSize=16;" parent="BCDfakD32TA4rTe-NyT7-25" vertex="1">
          <mxGeometry width="120" height="40" as="geometry">
            <mxRectangle width="120" height="40" as="alternateBounds" />
          </mxGeometry>
        </mxCell>
        <mxCell id="BCDfakD32TA4rTe-NyT7-27" value="" style="shape=partialRectangle;html=1;whiteSpace=wrap;connectable=0;strokeColor=inherit;overflow=hidden;fillColor=none;top=0;left=0;bottom=0;right=0;pointerEvents=1;fontSize=16;" parent="BCDfakD32TA4rTe-NyT7-25" vertex="1">
          <mxGeometry x="120" width="160" height="40" as="geometry">
            <mxRectangle width="160" height="40" as="alternateBounds" />
          </mxGeometry>
        </mxCell>
        <mxCell id="BCDfakD32TA4rTe-NyT7-28" value="Con" style="group" parent="1" vertex="1" connectable="0">
          <mxGeometry x="160" y="960" width="640" height="80" as="geometry" />
        </mxCell>
        <mxCell id="BCDfakD32TA4rTe-NyT7-29" value="You are a ..." style="html=1;shadow=0;dashed=0;shape=mxgraph.bootstrap.rrect;rSize=5;strokeColor=#CED4DA;html=1;whiteSpace=wrap;fillColor=#FFFFFF;fontColor=#7D868C;align=left;spacing=15;spacingLeft=40;fontSize=14;container=0;" parent="BCDfakD32TA4rTe-NyT7-28" vertex="1">
          <mxGeometry x="80" width="560" height="80" as="geometry" />
        </mxCell>
        <mxCell id="BCDfakD32TA4rTe-NyT7-30" value="Role" style="html=1;shadow=0;dashed=0;shape=mxgraph.bootstrap.leftButton;strokeColor=inherit;gradientColor=inherit;fontColor=inherit;fillColor=#E9ECEF;rSize=5;perimeter=none;whiteSpace=wrap;resizeHeight=1;fontSize=14;" parent="BCDfakD32TA4rTe-NyT7-28" vertex="1">
          <mxGeometry width="80" height="80" as="geometry" />
        </mxCell>
        <mxCell id="BCDfakD32TA4rTe-NyT7-31" value="Con" style="group" parent="1" vertex="1" connectable="0">
          <mxGeometry x="160" y="1080" width="640" height="80" as="geometry" />
        </mxCell>
        <mxCell id="BCDfakD32TA4rTe-NyT7-32" value="You have comprehensive experience in ..." style="html=1;shadow=0;dashed=0;shape=mxgraph.bootstrap.rrect;rSize=5;strokeColor=#CED4DA;html=1;whiteSpace=wrap;fillColor=#FFFFFF;fontColor=#7D868C;align=left;spacing=15;spacingLeft=40;fontSize=14;container=0;" parent="BCDfakD32TA4rTe-NyT7-31" vertex="1">
          <mxGeometry x="80" width="560" height="80" as="geometry" />
        </mxCell>
        <mxCell id="BCDfakD32TA4rTe-NyT7-33" value="Profile" style="html=1;shadow=0;dashed=0;shape=mxgraph.bootstrap.leftButton;strokeColor=inherit;gradientColor=inherit;fontColor=inherit;fillColor=#E9ECEF;rSize=5;perimeter=none;whiteSpace=wrap;resizeHeight=1;fontSize=14;" parent="BCDfakD32TA4rTe-NyT7-31" vertex="1">
          <mxGeometry width="80" height="80" as="geometry" />
        </mxCell>
        <mxCell id="BCDfakD32TA4rTe-NyT7-34" value="Con" style="group" parent="1" vertex="1" connectable="0">
          <mxGeometry x="160" y="1200" width="640" height="80" as="geometry" />
        </mxCell>
        <mxCell id="BCDfakD32TA4rTe-NyT7-35" value="You have comprehensive experience in ..." style="html=1;shadow=0;dashed=0;shape=mxgraph.bootstrap.rrect;rSize=5;strokeColor=#CED4DA;html=1;whiteSpace=wrap;fillColor=#FFFFFF;fontColor=#7D868C;align=left;spacing=15;spacingLeft=40;fontSize=14;container=0;" parent="BCDfakD32TA4rTe-NyT7-34" vertex="1">
          <mxGeometry x="80" width="560" height="80" as="geometry" />
        </mxCell>
        <mxCell id="BCDfakD32TA4rTe-NyT7-36" value="Constrain" style="html=1;shadow=0;dashed=0;shape=mxgraph.bootstrap.leftButton;strokeColor=inherit;gradientColor=inherit;fontColor=inherit;fillColor=#E9ECEF;rSize=5;perimeter=none;whiteSpace=wrap;resizeHeight=1;fontSize=14;" parent="BCDfakD32TA4rTe-NyT7-34" vertex="1">
          <mxGeometry width="80" height="80" as="geometry" />
        </mxCell>
        <mxCell id="BCDfakD32TA4rTe-NyT7-37" value="Con" style="group" parent="1" vertex="1" connectable="0">
          <mxGeometry x="160" y="1320" width="640" height="80" as="geometry" />
        </mxCell>
        <mxCell id="BCDfakD32TA4rTe-NyT7-38" value="System Architect Design. Machine Learning Engineer. Python, AWS, Generative AI." style="html=1;shadow=0;dashed=0;shape=mxgraph.bootstrap.rrect;rSize=5;strokeColor=#CED4DA;html=1;whiteSpace=wrap;fillColor=#FFFFFF;fontColor=#7D868C;align=left;spacing=15;spacingLeft=40;fontSize=14;container=0;" parent="BCDfakD32TA4rTe-NyT7-37" vertex="1">
          <mxGeometry x="80" width="560" height="80" as="geometry" />
        </mxCell>
        <mxCell id="BCDfakD32TA4rTe-NyT7-39" value="Skill" style="html=1;shadow=0;dashed=0;shape=mxgraph.bootstrap.leftButton;strokeColor=inherit;gradientColor=inherit;fontColor=inherit;fillColor=#E9ECEF;rSize=5;perimeter=none;whiteSpace=wrap;resizeHeight=1;fontSize=14;" parent="BCDfakD32TA4rTe-NyT7-37" vertex="1">
          <mxGeometry width="80" height="80" as="geometry" />
        </mxCell>
        <mxCell id="BCDfakD32TA4rTe-NyT7-40" value="Con" style="group" parent="1" vertex="1" connectable="0">
          <mxGeometry x="160" y="1440" width="640" height="80" as="geometry" />
        </mxCell>
        <mxCell id="BCDfakD32TA4rTe-NyT7-41" value="1. analysis my question&lt;br&gt;2. figure out what role you should play&lt;br&gt;3. identify whether you should solve this problem step by step&lt;br&gt;4. ..." style="html=1;shadow=0;dashed=0;shape=mxgraph.bootstrap.rrect;rSize=5;strokeColor=#CED4DA;html=1;whiteSpace=wrap;fillColor=#FFFFFF;fontColor=#7D868C;align=left;spacing=15;spacingLeft=40;fontSize=14;container=0;" parent="BCDfakD32TA4rTe-NyT7-40" vertex="1">
          <mxGeometry x="80" width="560" height="80" as="geometry" />
        </mxCell>
        <mxCell id="BCDfakD32TA4rTe-NyT7-42" value="Workflow" style="html=1;shadow=0;dashed=0;shape=mxgraph.bootstrap.leftButton;strokeColor=inherit;gradientColor=inherit;fontColor=inherit;fillColor=#E9ECEF;rSize=5;perimeter=none;whiteSpace=wrap;resizeHeight=1;fontSize=14;" parent="BCDfakD32TA4rTe-NyT7-40" vertex="1">
          <mxGeometry width="80" height="80" as="geometry" />
        </mxCell>
        <mxCell id="BCDfakD32TA4rTe-NyT7-43" value="More Prompt Elements" style="swimlane;whiteSpace=wrap;html=1;" parent="1" vertex="1">
          <mxGeometry x="80" y="880" width="800" height="680" as="geometry" />
        </mxCell>
        <mxCell id="BCDfakD32TA4rTe-NyT7-44" value="Each Element has many choice (single or multiple)" style="swimlane;whiteSpace=wrap;html=1;" parent="1" vertex="1">
          <mxGeometry x="80" y="1640" width="800" height="280" as="geometry" />
        </mxCell>
        <mxCell id="BCDfakD32TA4rTe-NyT7-45" value="Con" style="group" parent="BCDfakD32TA4rTe-NyT7-44" vertex="1" connectable="0">
          <mxGeometry x="80" y="80" width="640" height="40" as="geometry" />
        </mxCell>
        <mxCell id="BCDfakD32TA4rTe-NyT7-46" value="Role 1" style="html=1;shadow=0;dashed=0;shape=mxgraph.bootstrap.rrect;rSize=5;strokeColor=#CED4DA;html=1;whiteSpace=wrap;fillColor=#FFFFFF;fontColor=#7D868C;align=left;spacing=15;spacingLeft=40;fontSize=14;container=0;" parent="BCDfakD32TA4rTe-NyT7-45" vertex="1">
          <mxGeometry x="80" width="560" height="40" as="geometry" />
        </mxCell>
        <mxCell id="BCDfakD32TA4rTe-NyT7-47" value="Role" style="html=1;shadow=0;dashed=0;shape=mxgraph.bootstrap.leftButton;strokeColor=inherit;gradientColor=inherit;fontColor=inherit;fillColor=#E9ECEF;rSize=5;perimeter=none;whiteSpace=wrap;resizeHeight=1;fontSize=14;" parent="BCDfakD32TA4rTe-NyT7-45" vertex="1">
          <mxGeometry width="80" height="40" as="geometry" />
        </mxCell>
        <mxCell id="BCDfakD32TA4rTe-NyT7-48" value="Con" style="group" parent="BCDfakD32TA4rTe-NyT7-44" vertex="1" connectable="0">
          <mxGeometry x="80" y="120" width="640" height="40" as="geometry" />
        </mxCell>
        <mxCell id="BCDfakD32TA4rTe-NyT7-49" value="Role 2" style="html=1;shadow=0;dashed=0;shape=mxgraph.bootstrap.rrect;rSize=5;strokeColor=#CED4DA;html=1;whiteSpace=wrap;fillColor=#FFFFFF;fontColor=#7D868C;align=left;spacing=15;spacingLeft=40;fontSize=14;container=0;" parent="BCDfakD32TA4rTe-NyT7-48" vertex="1">
          <mxGeometry x="80" width="560" height="40" as="geometry" />
        </mxCell>
        <mxCell id="BCDfakD32TA4rTe-NyT7-50" value="Role" style="html=1;shadow=0;dashed=0;shape=mxgraph.bootstrap.leftButton;strokeColor=inherit;gradientColor=inherit;fontColor=inherit;fillColor=#E9ECEF;rSize=5;perimeter=none;whiteSpace=wrap;resizeHeight=1;fontSize=14;" parent="BCDfakD32TA4rTe-NyT7-48" vertex="1">
          <mxGeometry width="80" height="40" as="geometry" />
        </mxCell>
        <mxCell id="BCDfakD32TA4rTe-NyT7-51" value="Con" style="group" parent="BCDfakD32TA4rTe-NyT7-44" vertex="1" connectable="0">
          <mxGeometry x="80" y="160" width="640" height="40" as="geometry" />
        </mxCell>
        <mxCell id="BCDfakD32TA4rTe-NyT7-52" value="Role 3" style="html=1;shadow=0;dashed=0;shape=mxgraph.bootstrap.rrect;rSize=5;strokeColor=#CED4DA;html=1;whiteSpace=wrap;fillColor=#FFFFFF;fontColor=#7D868C;align=left;spacing=15;spacingLeft=40;fontSize=14;container=0;" parent="BCDfakD32TA4rTe-NyT7-51" vertex="1">
          <mxGeometry x="80" width="560" height="40" as="geometry" />
        </mxCell>
        <mxCell id="BCDfakD32TA4rTe-NyT7-53" value="Role" style="html=1;shadow=0;dashed=0;shape=mxgraph.bootstrap.leftButton;strokeColor=inherit;gradientColor=inherit;fontColor=inherit;fillColor=#E9ECEF;rSize=5;perimeter=none;whiteSpace=wrap;resizeHeight=1;fontSize=14;" parent="BCDfakD32TA4rTe-NyT7-51" vertex="1">
          <mxGeometry width="80" height="40" as="geometry" />
        </mxCell>
        <mxCell id="BCDfakD32TA4rTe-NyT7-54" value="" style="group" parent="1" vertex="1" connectable="0">
          <mxGeometry x="160" y="2080" width="640" height="80" as="geometry" />
        </mxCell>
        <mxCell id="BCDfakD32TA4rTe-NyT7-55" value="..." style="html=1;shadow=0;dashed=0;shape=mxgraph.bootstrap.rrect;rSize=5;strokeColor=#CED4DA;html=1;whiteSpace=wrap;fillColor=#FFFFFF;fontColor=#7D868C;align=left;spacing=15;spacingLeft=40;fontSize=14;container=0;" parent="BCDfakD32TA4rTe-NyT7-54" vertex="1">
          <mxGeometry x="80" width="560" height="80" as="geometry" />
        </mxCell>
        <mxCell id="BCDfakD32TA4rTe-NyT7-56" value="Element 1" style="html=1;shadow=0;dashed=0;shape=mxgraph.bootstrap.leftButton;strokeColor=inherit;gradientColor=inherit;fontColor=inherit;fillColor=#E9ECEF;rSize=5;perimeter=none;whiteSpace=wrap;resizeHeight=1;fontSize=14;" parent="BCDfakD32TA4rTe-NyT7-54" vertex="1">
          <mxGeometry width="80" height="80" as="geometry" />
        </mxCell>
        <mxCell id="BCDfakD32TA4rTe-NyT7-57" value="" style="group" parent="1" vertex="1" connectable="0">
          <mxGeometry x="160" y="2200" width="640" height="80" as="geometry" />
        </mxCell>
        <mxCell id="BCDfakD32TA4rTe-NyT7-58" value="..." style="html=1;shadow=0;dashed=0;shape=mxgraph.bootstrap.rrect;rSize=5;strokeColor=#CED4DA;html=1;whiteSpace=wrap;fillColor=#FFFFFF;fontColor=#7D868C;align=left;spacing=15;spacingLeft=40;fontSize=14;container=0;" parent="BCDfakD32TA4rTe-NyT7-57" vertex="1">
          <mxGeometry x="80" width="560" height="80" as="geometry" />
        </mxCell>
        <mxCell id="BCDfakD32TA4rTe-NyT7-59" value="Element 2" style="html=1;shadow=0;dashed=0;shape=mxgraph.bootstrap.leftButton;strokeColor=inherit;gradientColor=inherit;fontColor=inherit;fillColor=#E9ECEF;rSize=5;perimeter=none;whiteSpace=wrap;resizeHeight=1;fontSize=14;" parent="BCDfakD32TA4rTe-NyT7-57" vertex="1">
          <mxGeometry width="80" height="80" as="geometry" />
        </mxCell>
        <mxCell id="BCDfakD32TA4rTe-NyT7-60" value="" style="group" parent="1" vertex="1" connectable="0">
          <mxGeometry x="160" y="2320" width="640" height="80" as="geometry" />
        </mxCell>
        <mxCell id="BCDfakD32TA4rTe-NyT7-61" value="..." style="html=1;shadow=0;dashed=0;shape=mxgraph.bootstrap.rrect;rSize=5;strokeColor=#CED4DA;html=1;whiteSpace=wrap;fillColor=#FFFFFF;fontColor=#7D868C;align=left;spacing=15;spacingLeft=40;fontSize=14;container=0;" parent="BCDfakD32TA4rTe-NyT7-60" vertex="1">
          <mxGeometry x="80" width="560" height="80" as="geometry" />
        </mxCell>
        <mxCell id="BCDfakD32TA4rTe-NyT7-62" value="Element 3" style="html=1;shadow=0;dashed=0;shape=mxgraph.bootstrap.leftButton;strokeColor=inherit;gradientColor=inherit;fontColor=inherit;fillColor=#E9ECEF;rSize=5;perimeter=none;whiteSpace=wrap;resizeHeight=1;fontSize=14;" parent="BCDfakD32TA4rTe-NyT7-60" vertex="1">
          <mxGeometry width="80" height="80" as="geometry" />
        </mxCell>
        <mxCell id="BCDfakD32TA4rTe-NyT7-63" value="A prompt is just a combination of many elements" style="swimlane;whiteSpace=wrap;html=1;" parent="1" vertex="1">
          <mxGeometry x="80" y="2000" width="800" height="480" as="geometry" />
        </mxCell>
        <mxCell id="OZUg24SiRp1tNhE2xACU-1" value="&lt;b&gt;Prompt Elements&lt;/b&gt;" style="text;html=1;align=center;verticalAlign=middle;whiteSpace=wrap;rounded=0;fillColor=#f5f5f5;fontColor=#333333;strokeColor=#666666;" parent="1" vertex="1">
          <mxGeometry x="80" y="40" width="720" height="40" as="geometry" />
        </mxCell>
      </root>
    </mxGraphModel>
  </diagram>
  <diagram id="aAz40Da9MCwylctrIDTY" name="Prompt Datastore">
    <mxGraphModel dx="570" dy="760" grid="1" gridSize="10" guides="1" tooltips="1" connect="1" arrows="1" fold="1" page="1" pageScale="1" pageWidth="850" pageHeight="1100" math="0" shadow="0">
      <root>
        <mxCell id="0" />
        <mxCell id="1" parent="0" />
        <mxCell id="VjdLYbDTFZBOxpxfdGES-1" value="Prompt" style="shape=table;startSize=30;container=1;collapsible=0;childLayout=tableLayout;strokeColor=#82b366;fontSize=16;fillColor=#d5e8d4;" parent="1" vertex="1">
          <mxGeometry x="920" y="320" width="440" height="310" as="geometry" />
        </mxCell>
        <mxCell id="VjdLYbDTFZBOxpxfdGES-2" value="" style="shape=tableRow;horizontal=0;startSize=0;swimlaneHead=0;swimlaneBody=0;strokeColor=inherit;top=0;left=0;bottom=0;right=0;collapsible=0;dropTarget=0;fillColor=none;points=[[0,0.5],[1,0.5]];portConstraint=eastwest;fontSize=16;" parent="VjdLYbDTFZBOxpxfdGES-1" vertex="1">
          <mxGeometry y="30" width="440" height="40" as="geometry" />
        </mxCell>
        <mxCell id="VjdLYbDTFZBOxpxfdGES-3" value="Field: Type" style="shape=partialRectangle;html=1;whiteSpace=wrap;connectable=0;strokeColor=inherit;overflow=hidden;fillColor=none;top=0;left=0;bottom=0;right=0;pointerEvents=1;fontSize=16;" parent="VjdLYbDTFZBOxpxfdGES-2" vertex="1">
          <mxGeometry width="120" height="40" as="geometry">
            <mxRectangle width="120" height="40" as="alternateBounds" />
          </mxGeometry>
        </mxCell>
        <mxCell id="VjdLYbDTFZBOxpxfdGES-4" value="Example" style="shape=partialRectangle;html=1;whiteSpace=wrap;connectable=0;strokeColor=inherit;overflow=hidden;fillColor=none;top=0;left=0;bottom=0;right=0;pointerEvents=1;fontSize=16;" parent="VjdLYbDTFZBOxpxfdGES-2" vertex="1">
          <mxGeometry x="120" width="160" height="40" as="geometry">
            <mxRectangle width="160" height="40" as="alternateBounds" />
          </mxGeometry>
        </mxCell>
        <mxCell id="VjdLYbDTFZBOxpxfdGES-64" value="Description" style="shape=partialRectangle;html=1;whiteSpace=wrap;connectable=0;strokeColor=inherit;overflow=hidden;fillColor=none;top=0;left=0;bottom=0;right=0;pointerEvents=1;fontSize=16;" parent="VjdLYbDTFZBOxpxfdGES-2" vertex="1">
          <mxGeometry x="280" width="160" height="40" as="geometry">
            <mxRectangle width="160" height="40" as="alternateBounds" />
          </mxGeometry>
        </mxCell>
        <mxCell id="VjdLYbDTFZBOxpxfdGES-5" value="" style="shape=tableRow;horizontal=0;startSize=0;swimlaneHead=0;swimlaneBody=0;strokeColor=inherit;top=0;left=0;bottom=0;right=0;collapsible=0;dropTarget=0;fillColor=none;points=[[0,0.5],[1,0.5]];portConstraint=eastwest;fontSize=16;" parent="VjdLYbDTFZBOxpxfdGES-1" vertex="1">
          <mxGeometry y="70" width="440" height="40" as="geometry" />
        </mxCell>
        <mxCell id="VjdLYbDTFZBOxpxfdGES-6" value="prompt_id: str" style="shape=partialRectangle;html=1;whiteSpace=wrap;connectable=0;strokeColor=inherit;overflow=hidden;fillColor=none;top=0;left=0;bottom=0;right=0;pointerEvents=1;fontSize=16;" parent="VjdLYbDTFZBOxpxfdGES-5" vertex="1">
          <mxGeometry width="120" height="40" as="geometry">
            <mxRectangle width="120" height="40" as="alternateBounds" />
          </mxGeometry>
        </mxCell>
        <mxCell id="VjdLYbDTFZBOxpxfdGES-7" value="p-1" style="shape=partialRectangle;html=1;whiteSpace=wrap;connectable=0;strokeColor=inherit;overflow=hidden;fillColor=none;top=0;left=0;bottom=0;right=0;pointerEvents=1;fontSize=16;" parent="VjdLYbDTFZBOxpxfdGES-5" vertex="1">
          <mxGeometry x="120" width="160" height="40" as="geometry">
            <mxRectangle width="160" height="40" as="alternateBounds" />
          </mxGeometry>
        </mxCell>
        <mxCell id="VjdLYbDTFZBOxpxfdGES-65" style="shape=partialRectangle;html=1;whiteSpace=wrap;connectable=0;strokeColor=inherit;overflow=hidden;fillColor=none;top=0;left=0;bottom=0;right=0;pointerEvents=1;fontSize=16;" parent="VjdLYbDTFZBOxpxfdGES-5" vertex="1">
          <mxGeometry x="280" width="160" height="40" as="geometry">
            <mxRectangle width="160" height="40" as="alternateBounds" />
          </mxGeometry>
        </mxCell>
        <mxCell id="VjdLYbDTFZBOxpxfdGES-8" value="" style="shape=tableRow;horizontal=0;startSize=0;swimlaneHead=0;swimlaneBody=0;strokeColor=inherit;top=0;left=0;bottom=0;right=0;collapsible=0;dropTarget=0;fillColor=none;points=[[0,0.5],[1,0.5]];portConstraint=eastwest;fontSize=16;" parent="VjdLYbDTFZBOxpxfdGES-1" vertex="1">
          <mxGeometry y="110" width="440" height="40" as="geometry" />
        </mxCell>
        <mxCell id="VjdLYbDTFZBOxpxfdGES-9" value="group_id: str" style="shape=partialRectangle;html=1;whiteSpace=wrap;connectable=0;strokeColor=inherit;overflow=hidden;fillColor=none;top=0;left=0;bottom=0;right=0;pointerEvents=1;fontSize=16;" parent="VjdLYbDTFZBOxpxfdGES-8" vertex="1">
          <mxGeometry width="120" height="40" as="geometry">
            <mxRectangle width="120" height="40" as="alternateBounds" />
          </mxGeometry>
        </mxCell>
        <mxCell id="VjdLYbDTFZBOxpxfdGES-10" value="g-1" style="shape=partialRectangle;html=1;whiteSpace=wrap;connectable=0;strokeColor=inherit;overflow=hidden;fillColor=none;top=0;left=0;bottom=0;right=0;pointerEvents=1;fontSize=16;" parent="VjdLYbDTFZBOxpxfdGES-8" vertex="1">
          <mxGeometry x="120" width="160" height="40" as="geometry">
            <mxRectangle width="160" height="40" as="alternateBounds" />
          </mxGeometry>
        </mxCell>
        <mxCell id="VjdLYbDTFZBOxpxfdGES-66" style="shape=partialRectangle;html=1;whiteSpace=wrap;connectable=0;strokeColor=inherit;overflow=hidden;fillColor=none;top=0;left=0;bottom=0;right=0;pointerEvents=1;fontSize=16;" parent="VjdLYbDTFZBOxpxfdGES-8" vertex="1">
          <mxGeometry x="280" width="160" height="40" as="geometry">
            <mxRectangle width="160" height="40" as="alternateBounds" />
          </mxGeometry>
        </mxCell>
        <mxCell id="VjdLYbDTFZBOxpxfdGES-55" style="shape=tableRow;horizontal=0;startSize=0;swimlaneHead=0;swimlaneBody=0;strokeColor=inherit;top=0;left=0;bottom=0;right=0;collapsible=0;dropTarget=0;fillColor=none;points=[[0,0.5],[1,0.5]];portConstraint=eastwest;fontSize=16;" parent="VjdLYbDTFZBOxpxfdGES-1" vertex="1">
          <mxGeometry y="150" width="440" height="40" as="geometry" />
        </mxCell>
        <mxCell id="VjdLYbDTFZBOxpxfdGES-56" value="name: str" style="shape=partialRectangle;html=1;whiteSpace=wrap;connectable=0;strokeColor=inherit;overflow=hidden;fillColor=none;top=0;left=0;bottom=0;right=0;pointerEvents=1;fontSize=16;" parent="VjdLYbDTFZBOxpxfdGES-55" vertex="1">
          <mxGeometry width="120" height="40" as="geometry">
            <mxRectangle width="120" height="40" as="alternateBounds" />
          </mxGeometry>
        </mxCell>
        <mxCell id="VjdLYbDTFZBOxpxfdGES-57" style="shape=partialRectangle;html=1;whiteSpace=wrap;connectable=0;strokeColor=inherit;overflow=hidden;fillColor=none;top=0;left=0;bottom=0;right=0;pointerEvents=1;fontSize=16;" parent="VjdLYbDTFZBOxpxfdGES-55" vertex="1">
          <mxGeometry x="120" width="160" height="40" as="geometry">
            <mxRectangle width="160" height="40" as="alternateBounds" />
          </mxGeometry>
        </mxCell>
        <mxCell id="VjdLYbDTFZBOxpxfdGES-67" value="Can be searched by FTS" style="shape=partialRectangle;html=1;whiteSpace=wrap;connectable=0;strokeColor=inherit;overflow=hidden;fillColor=none;top=0;left=0;bottom=0;right=0;pointerEvents=1;fontSize=16;" parent="VjdLYbDTFZBOxpxfdGES-55" vertex="1">
          <mxGeometry x="280" width="160" height="40" as="geometry">
            <mxRectangle width="160" height="40" as="alternateBounds" />
          </mxGeometry>
        </mxCell>
        <mxCell id="VjdLYbDTFZBOxpxfdGES-58" style="shape=tableRow;horizontal=0;startSize=0;swimlaneHead=0;swimlaneBody=0;strokeColor=inherit;top=0;left=0;bottom=0;right=0;collapsible=0;dropTarget=0;fillColor=none;points=[[0,0.5],[1,0.5]];portConstraint=eastwest;fontSize=16;" parent="VjdLYbDTFZBOxpxfdGES-1" vertex="1">
          <mxGeometry y="190" width="440" height="40" as="geometry" />
        </mxCell>
        <mxCell id="VjdLYbDTFZBOxpxfdGES-59" value="description: str" style="shape=partialRectangle;html=1;whiteSpace=wrap;connectable=0;strokeColor=inherit;overflow=hidden;fillColor=none;top=0;left=0;bottom=0;right=0;pointerEvents=1;fontSize=16;" parent="VjdLYbDTFZBOxpxfdGES-58" vertex="1">
          <mxGeometry width="120" height="40" as="geometry">
            <mxRectangle width="120" height="40" as="alternateBounds" />
          </mxGeometry>
        </mxCell>
        <mxCell id="VjdLYbDTFZBOxpxfdGES-60" style="shape=partialRectangle;html=1;whiteSpace=wrap;connectable=0;strokeColor=inherit;overflow=hidden;fillColor=none;top=0;left=0;bottom=0;right=0;pointerEvents=1;fontSize=16;" parent="VjdLYbDTFZBOxpxfdGES-58" vertex="1">
          <mxGeometry x="120" width="160" height="40" as="geometry">
            <mxRectangle width="160" height="40" as="alternateBounds" />
          </mxGeometry>
        </mxCell>
        <mxCell id="VjdLYbDTFZBOxpxfdGES-68" value="Can be searched by FTS" style="shape=partialRectangle;html=1;whiteSpace=wrap;connectable=0;strokeColor=inherit;overflow=hidden;fillColor=none;top=0;left=0;bottom=0;right=0;pointerEvents=1;fontSize=16;" parent="VjdLYbDTFZBOxpxfdGES-58" vertex="1">
          <mxGeometry x="280" width="160" height="40" as="geometry">
            <mxRectangle width="160" height="40" as="alternateBounds" />
          </mxGeometry>
        </mxCell>
        <mxCell id="VjdLYbDTFZBOxpxfdGES-61" style="shape=tableRow;horizontal=0;startSize=0;swimlaneHead=0;swimlaneBody=0;strokeColor=inherit;top=0;left=0;bottom=0;right=0;collapsible=0;dropTarget=0;fillColor=none;points=[[0,0.5],[1,0.5]];portConstraint=eastwest;fontSize=16;" parent="VjdLYbDTFZBOxpxfdGES-1" vertex="1">
          <mxGeometry y="230" width="440" height="40" as="geometry" />
        </mxCell>
        <mxCell id="VjdLYbDTFZBOxpxfdGES-62" value="body: str" style="shape=partialRectangle;html=1;whiteSpace=wrap;connectable=0;strokeColor=inherit;overflow=hidden;fillColor=none;top=0;left=0;bottom=0;right=0;pointerEvents=1;fontSize=16;" parent="VjdLYbDTFZBOxpxfdGES-61" vertex="1">
          <mxGeometry width="120" height="40" as="geometry">
            <mxRectangle width="120" height="40" as="alternateBounds" />
          </mxGeometry>
        </mxCell>
        <mxCell id="VjdLYbDTFZBOxpxfdGES-63" style="shape=partialRectangle;html=1;whiteSpace=wrap;connectable=0;strokeColor=inherit;overflow=hidden;fillColor=none;top=0;left=0;bottom=0;right=0;pointerEvents=1;fontSize=16;" parent="VjdLYbDTFZBOxpxfdGES-61" vertex="1">
          <mxGeometry x="120" width="160" height="40" as="geometry">
            <mxRectangle width="160" height="40" as="alternateBounds" />
          </mxGeometry>
        </mxCell>
        <mxCell id="VjdLYbDTFZBOxpxfdGES-69" value="Can be searched by FTS" style="shape=partialRectangle;html=1;whiteSpace=wrap;connectable=0;strokeColor=inherit;overflow=hidden;fillColor=none;top=0;left=0;bottom=0;right=0;pointerEvents=1;fontSize=16;" parent="VjdLYbDTFZBOxpxfdGES-61" vertex="1">
          <mxGeometry x="280" width="160" height="40" as="geometry">
            <mxRectangle width="160" height="40" as="alternateBounds" />
          </mxGeometry>
        </mxCell>
        <mxCell id="FjsJZ2l81SKUxhBjt9Xp-26" style="shape=tableRow;horizontal=0;startSize=0;swimlaneHead=0;swimlaneBody=0;strokeColor=inherit;top=0;left=0;bottom=0;right=0;collapsible=0;dropTarget=0;fillColor=none;points=[[0,0.5],[1,0.5]];portConstraint=eastwest;fontSize=16;" parent="VjdLYbDTFZBOxpxfdGES-1" vertex="1">
          <mxGeometry y="270" width="440" height="40" as="geometry" />
        </mxCell>
        <mxCell id="FjsJZ2l81SKUxhBjt9Xp-27" value="Variables: JSON" style="shape=partialRectangle;html=1;whiteSpace=wrap;connectable=0;strokeColor=inherit;overflow=hidden;fillColor=none;top=0;left=0;bottom=0;right=0;pointerEvents=1;fontSize=16;" parent="FjsJZ2l81SKUxhBjt9Xp-26" vertex="1">
          <mxGeometry width="120" height="40" as="geometry">
            <mxRectangle width="120" height="40" as="alternateBounds" />
          </mxGeometry>
        </mxCell>
        <mxCell id="FjsJZ2l81SKUxhBjt9Xp-28" style="shape=partialRectangle;html=1;whiteSpace=wrap;connectable=0;strokeColor=inherit;overflow=hidden;fillColor=none;top=0;left=0;bottom=0;right=0;pointerEvents=1;fontSize=16;" parent="FjsJZ2l81SKUxhBjt9Xp-26" vertex="1">
          <mxGeometry x="120" width="160" height="40" as="geometry">
            <mxRectangle width="160" height="40" as="alternateBounds" />
          </mxGeometry>
        </mxCell>
        <mxCell id="FjsJZ2l81SKUxhBjt9Xp-29" style="shape=partialRectangle;html=1;whiteSpace=wrap;connectable=0;strokeColor=inherit;overflow=hidden;fillColor=none;top=0;left=0;bottom=0;right=0;pointerEvents=1;fontSize=16;" parent="FjsJZ2l81SKUxhBjt9Xp-26" vertex="1">
          <mxGeometry x="280" width="160" height="40" as="geometry">
            <mxRectangle width="160" height="40" as="alternateBounds" />
          </mxGeometry>
        </mxCell>
        <mxCell id="VjdLYbDTFZBOxpxfdGES-24" value="Group" style="shape=table;startSize=30;container=1;collapsible=0;childLayout=tableLayout;strokeColor=#82b366;fontSize=16;fillColor=#d5e8d4;" parent="1" vertex="1">
          <mxGeometry x="920" y="680" width="720" height="150" as="geometry" />
        </mxCell>
        <mxCell id="VjdLYbDTFZBOxpxfdGES-25" value="" style="shape=tableRow;horizontal=0;startSize=0;swimlaneHead=0;swimlaneBody=0;strokeColor=inherit;top=0;left=0;bottom=0;right=0;collapsible=0;dropTarget=0;fillColor=none;points=[[0,0.5],[1,0.5]];portConstraint=eastwest;fontSize=16;" parent="VjdLYbDTFZBOxpxfdGES-24" vertex="1">
          <mxGeometry y="30" width="720" height="40" as="geometry" />
        </mxCell>
        <mxCell id="VjdLYbDTFZBOxpxfdGES-26" value="Field: Type" style="shape=partialRectangle;html=1;whiteSpace=wrap;connectable=0;strokeColor=inherit;overflow=hidden;fillColor=none;top=0;left=0;bottom=0;right=0;pointerEvents=1;fontSize=16;" parent="VjdLYbDTFZBOxpxfdGES-25" vertex="1">
          <mxGeometry width="196" height="40" as="geometry">
            <mxRectangle width="196" height="40" as="alternateBounds" />
          </mxGeometry>
        </mxCell>
        <mxCell id="VjdLYbDTFZBOxpxfdGES-27" value="Example" style="shape=partialRectangle;html=1;whiteSpace=wrap;connectable=0;strokeColor=inherit;overflow=hidden;fillColor=none;top=0;left=0;bottom=0;right=0;pointerEvents=1;fontSize=16;" parent="VjdLYbDTFZBOxpxfdGES-25" vertex="1">
          <mxGeometry x="196" width="264" height="40" as="geometry">
            <mxRectangle width="264" height="40" as="alternateBounds" />
          </mxGeometry>
        </mxCell>
        <mxCell id="VjdLYbDTFZBOxpxfdGES-70" value="Description" style="shape=partialRectangle;html=1;whiteSpace=wrap;connectable=0;strokeColor=inherit;overflow=hidden;fillColor=none;top=0;left=0;bottom=0;right=0;pointerEvents=1;fontSize=16;" parent="VjdLYbDTFZBOxpxfdGES-25" vertex="1">
          <mxGeometry x="460" width="260" height="40" as="geometry">
            <mxRectangle width="260" height="40" as="alternateBounds" />
          </mxGeometry>
        </mxCell>
        <mxCell id="VjdLYbDTFZBOxpxfdGES-28" value="" style="shape=tableRow;horizontal=0;startSize=0;swimlaneHead=0;swimlaneBody=0;strokeColor=inherit;top=0;left=0;bottom=0;right=0;collapsible=0;dropTarget=0;fillColor=none;points=[[0,0.5],[1,0.5]];portConstraint=eastwest;fontSize=16;" parent="VjdLYbDTFZBOxpxfdGES-24" vertex="1">
          <mxGeometry y="70" width="720" height="40" as="geometry" />
        </mxCell>
        <mxCell id="VjdLYbDTFZBOxpxfdGES-29" value="group_id: str" style="shape=partialRectangle;html=1;whiteSpace=wrap;connectable=0;strokeColor=inherit;overflow=hidden;fillColor=none;top=0;left=0;bottom=0;right=0;pointerEvents=1;fontSize=16;" parent="VjdLYbDTFZBOxpxfdGES-28" vertex="1">
          <mxGeometry width="196" height="40" as="geometry">
            <mxRectangle width="196" height="40" as="alternateBounds" />
          </mxGeometry>
        </mxCell>
        <mxCell id="VjdLYbDTFZBOxpxfdGES-30" value="g-1" style="shape=partialRectangle;html=1;whiteSpace=wrap;connectable=0;strokeColor=inherit;overflow=hidden;fillColor=none;top=0;left=0;bottom=0;right=0;pointerEvents=1;fontSize=16;" parent="VjdLYbDTFZBOxpxfdGES-28" vertex="1">
          <mxGeometry x="196" width="264" height="40" as="geometry">
            <mxRectangle width="264" height="40" as="alternateBounds" />
          </mxGeometry>
        </mxCell>
        <mxCell id="VjdLYbDTFZBOxpxfdGES-71" style="shape=partialRectangle;html=1;whiteSpace=wrap;connectable=0;strokeColor=inherit;overflow=hidden;fillColor=none;top=0;left=0;bottom=0;right=0;pointerEvents=1;fontSize=16;" parent="VjdLYbDTFZBOxpxfdGES-28" vertex="1">
          <mxGeometry x="460" width="260" height="40" as="geometry">
            <mxRectangle width="260" height="40" as="alternateBounds" />
          </mxGeometry>
        </mxCell>
        <mxCell id="VjdLYbDTFZBOxpxfdGES-31" value="" style="shape=tableRow;horizontal=0;startSize=0;swimlaneHead=0;swimlaneBody=0;strokeColor=inherit;top=0;left=0;bottom=0;right=0;collapsible=0;dropTarget=0;fillColor=none;points=[[0,0.5],[1,0.5]];portConstraint=eastwest;fontSize=16;" parent="VjdLYbDTFZBOxpxfdGES-24" vertex="1">
          <mxGeometry y="110" width="720" height="40" as="geometry" />
        </mxCell>
        <mxCell id="VjdLYbDTFZBOxpxfdGES-32" value="name: str" style="shape=partialRectangle;html=1;whiteSpace=wrap;connectable=0;strokeColor=inherit;overflow=hidden;fillColor=none;top=0;left=0;bottom=0;right=0;pointerEvents=1;fontSize=16;" parent="VjdLYbDTFZBOxpxfdGES-31" vertex="1">
          <mxGeometry width="196" height="40" as="geometry">
            <mxRectangle width="196" height="40" as="alternateBounds" />
          </mxGeometry>
        </mxCell>
        <mxCell id="VjdLYbDTFZBOxpxfdGES-33" value="project_1/use_case_1" style="shape=partialRectangle;html=1;whiteSpace=wrap;connectable=0;strokeColor=inherit;overflow=hidden;fillColor=none;top=0;left=0;bottom=0;right=0;pointerEvents=1;fontSize=16;" parent="VjdLYbDTFZBOxpxfdGES-31" vertex="1">
          <mxGeometry x="196" width="264" height="40" as="geometry">
            <mxRectangle width="264" height="40" as="alternateBounds" />
          </mxGeometry>
        </mxCell>
        <mxCell id="VjdLYbDTFZBOxpxfdGES-72" value="Can be searched by prefix or FTS" style="shape=partialRectangle;html=1;whiteSpace=wrap;connectable=0;strokeColor=inherit;overflow=hidden;fillColor=none;top=0;left=0;bottom=0;right=0;pointerEvents=1;fontSize=16;" parent="VjdLYbDTFZBOxpxfdGES-31" vertex="1">
          <mxGeometry x="460" width="260" height="40" as="geometry">
            <mxRectangle width="260" height="40" as="alternateBounds" />
          </mxGeometry>
        </mxCell>
        <mxCell id="VjdLYbDTFZBOxpxfdGES-34" value="Tag" style="shape=table;startSize=30;container=1;collapsible=0;childLayout=tableLayout;strokeColor=#82b366;fontSize=16;fillColor=#d5e8d4;" parent="1" vertex="1">
          <mxGeometry x="920" y="880" width="817" height="150" as="geometry" />
        </mxCell>
        <mxCell id="VjdLYbDTFZBOxpxfdGES-35" value="" style="shape=tableRow;horizontal=0;startSize=0;swimlaneHead=0;swimlaneBody=0;strokeColor=inherit;top=0;left=0;bottom=0;right=0;collapsible=0;dropTarget=0;fillColor=none;points=[[0,0.5],[1,0.5]];portConstraint=eastwest;fontSize=16;" parent="VjdLYbDTFZBOxpxfdGES-34" vertex="1">
          <mxGeometry y="30" width="817" height="40" as="geometry" />
        </mxCell>
        <mxCell id="VjdLYbDTFZBOxpxfdGES-36" value="Field: Type" style="shape=partialRectangle;html=1;whiteSpace=wrap;connectable=0;strokeColor=inherit;overflow=hidden;fillColor=none;top=0;left=0;bottom=0;right=0;pointerEvents=1;fontSize=16;" parent="VjdLYbDTFZBOxpxfdGES-35" vertex="1">
          <mxGeometry width="223" height="40" as="geometry">
            <mxRectangle width="223" height="40" as="alternateBounds" />
          </mxGeometry>
        </mxCell>
        <mxCell id="VjdLYbDTFZBOxpxfdGES-37" value="Example" style="shape=partialRectangle;html=1;whiteSpace=wrap;connectable=0;strokeColor=inherit;overflow=hidden;fillColor=none;top=0;left=0;bottom=0;right=0;pointerEvents=1;fontSize=16;" parent="VjdLYbDTFZBOxpxfdGES-35" vertex="1">
          <mxGeometry x="223" width="297" height="40" as="geometry">
            <mxRectangle width="297" height="40" as="alternateBounds" />
          </mxGeometry>
        </mxCell>
        <mxCell id="VjdLYbDTFZBOxpxfdGES-73" value="Description" style="shape=partialRectangle;html=1;whiteSpace=wrap;connectable=0;strokeColor=inherit;overflow=hidden;fillColor=none;top=0;left=0;bottom=0;right=0;pointerEvents=1;fontSize=16;" parent="VjdLYbDTFZBOxpxfdGES-35" vertex="1">
          <mxGeometry x="520" width="297" height="40" as="geometry">
            <mxRectangle width="297" height="40" as="alternateBounds" />
          </mxGeometry>
        </mxCell>
        <mxCell id="VjdLYbDTFZBOxpxfdGES-38" value="" style="shape=tableRow;horizontal=0;startSize=0;swimlaneHead=0;swimlaneBody=0;strokeColor=inherit;top=0;left=0;bottom=0;right=0;collapsible=0;dropTarget=0;fillColor=none;points=[[0,0.5],[1,0.5]];portConstraint=eastwest;fontSize=16;" parent="VjdLYbDTFZBOxpxfdGES-34" vertex="1">
          <mxGeometry y="70" width="817" height="40" as="geometry" />
        </mxCell>
        <mxCell id="VjdLYbDTFZBOxpxfdGES-39" value="tag_id: str" style="shape=partialRectangle;html=1;whiteSpace=wrap;connectable=0;strokeColor=inherit;overflow=hidden;fillColor=none;top=0;left=0;bottom=0;right=0;pointerEvents=1;fontSize=16;" parent="VjdLYbDTFZBOxpxfdGES-38" vertex="1">
          <mxGeometry width="223" height="40" as="geometry">
            <mxRectangle width="223" height="40" as="alternateBounds" />
          </mxGeometry>
        </mxCell>
        <mxCell id="VjdLYbDTFZBOxpxfdGES-40" value="summary, creative, Q&amp;amp;A" style="shape=partialRectangle;html=1;whiteSpace=wrap;connectable=0;strokeColor=inherit;overflow=hidden;fillColor=none;top=0;left=0;bottom=0;right=0;pointerEvents=1;fontSize=16;" parent="VjdLYbDTFZBOxpxfdGES-38" vertex="1">
          <mxGeometry x="223" width="297" height="40" as="geometry">
            <mxRectangle width="297" height="40" as="alternateBounds" />
          </mxGeometry>
        </mxCell>
        <mxCell id="VjdLYbDTFZBOxpxfdGES-74" value="Can be searched by prefix or FTS" style="shape=partialRectangle;html=1;whiteSpace=wrap;connectable=0;strokeColor=inherit;overflow=hidden;fillColor=none;top=0;left=0;bottom=0;right=0;pointerEvents=1;fontSize=16;" parent="VjdLYbDTFZBOxpxfdGES-38" vertex="1">
          <mxGeometry x="520" width="297" height="40" as="geometry">
            <mxRectangle width="297" height="40" as="alternateBounds" />
          </mxGeometry>
        </mxCell>
        <mxCell id="VjdLYbDTFZBOxpxfdGES-41" value="" style="shape=tableRow;horizontal=0;startSize=0;swimlaneHead=0;swimlaneBody=0;strokeColor=inherit;top=0;left=0;bottom=0;right=0;collapsible=0;dropTarget=0;fillColor=none;points=[[0,0.5],[1,0.5]];portConstraint=eastwest;fontSize=16;" parent="VjdLYbDTFZBOxpxfdGES-34" vertex="1">
          <mxGeometry y="110" width="817" height="40" as="geometry" />
        </mxCell>
        <mxCell id="VjdLYbDTFZBOxpxfdGES-42" value="" style="shape=partialRectangle;html=1;whiteSpace=wrap;connectable=0;strokeColor=inherit;overflow=hidden;fillColor=none;top=0;left=0;bottom=0;right=0;pointerEvents=1;fontSize=16;" parent="VjdLYbDTFZBOxpxfdGES-41" vertex="1">
          <mxGeometry width="223" height="40" as="geometry">
            <mxRectangle width="223" height="40" as="alternateBounds" />
          </mxGeometry>
        </mxCell>
        <mxCell id="VjdLYbDTFZBOxpxfdGES-43" value="" style="shape=partialRectangle;html=1;whiteSpace=wrap;connectable=0;strokeColor=inherit;overflow=hidden;fillColor=none;top=0;left=0;bottom=0;right=0;pointerEvents=1;fontSize=16;" parent="VjdLYbDTFZBOxpxfdGES-41" vertex="1">
          <mxGeometry x="223" width="297" height="40" as="geometry">
            <mxRectangle width="297" height="40" as="alternateBounds" />
          </mxGeometry>
        </mxCell>
        <mxCell id="VjdLYbDTFZBOxpxfdGES-75" style="shape=partialRectangle;html=1;whiteSpace=wrap;connectable=0;strokeColor=inherit;overflow=hidden;fillColor=none;top=0;left=0;bottom=0;right=0;pointerEvents=1;fontSize=16;" parent="VjdLYbDTFZBOxpxfdGES-41" vertex="1">
          <mxGeometry x="520" width="297" height="40" as="geometry">
            <mxRectangle width="297" height="40" as="alternateBounds" />
          </mxGeometry>
        </mxCell>
        <mxCell id="VjdLYbDTFZBOxpxfdGES-45" value="Prompt and Tag" style="shape=table;startSize=30;container=1;collapsible=0;childLayout=tableLayout;strokeColor=#6c8ebf;fontSize=16;fillColor=#dae8fc;" parent="1" vertex="1">
          <mxGeometry x="920" y="1080" width="280" height="150" as="geometry" />
        </mxCell>
        <mxCell id="VjdLYbDTFZBOxpxfdGES-46" value="" style="shape=tableRow;horizontal=0;startSize=0;swimlaneHead=0;swimlaneBody=0;strokeColor=inherit;top=0;left=0;bottom=0;right=0;collapsible=0;dropTarget=0;fillColor=none;points=[[0,0.5],[1,0.5]];portConstraint=eastwest;fontSize=16;" parent="VjdLYbDTFZBOxpxfdGES-45" vertex="1">
          <mxGeometry y="30" width="280" height="40" as="geometry" />
        </mxCell>
        <mxCell id="VjdLYbDTFZBOxpxfdGES-47" value="Field: Type" style="shape=partialRectangle;html=1;whiteSpace=wrap;connectable=0;strokeColor=inherit;overflow=hidden;fillColor=none;top=0;left=0;bottom=0;right=0;pointerEvents=1;fontSize=16;" parent="VjdLYbDTFZBOxpxfdGES-46" vertex="1">
          <mxGeometry width="120" height="40" as="geometry">
            <mxRectangle width="120" height="40" as="alternateBounds" />
          </mxGeometry>
        </mxCell>
        <mxCell id="VjdLYbDTFZBOxpxfdGES-48" value="Example" style="shape=partialRectangle;html=1;whiteSpace=wrap;connectable=0;strokeColor=inherit;overflow=hidden;fillColor=none;top=0;left=0;bottom=0;right=0;pointerEvents=1;fontSize=16;" parent="VjdLYbDTFZBOxpxfdGES-46" vertex="1">
          <mxGeometry x="120" width="160" height="40" as="geometry">
            <mxRectangle width="160" height="40" as="alternateBounds" />
          </mxGeometry>
        </mxCell>
        <mxCell id="VjdLYbDTFZBOxpxfdGES-49" value="" style="shape=tableRow;horizontal=0;startSize=0;swimlaneHead=0;swimlaneBody=0;strokeColor=inherit;top=0;left=0;bottom=0;right=0;collapsible=0;dropTarget=0;fillColor=none;points=[[0,0.5],[1,0.5]];portConstraint=eastwest;fontSize=16;" parent="VjdLYbDTFZBOxpxfdGES-45" vertex="1">
          <mxGeometry y="70" width="280" height="40" as="geometry" />
        </mxCell>
        <mxCell id="VjdLYbDTFZBOxpxfdGES-50" value="group_id: str" style="shape=partialRectangle;html=1;whiteSpace=wrap;connectable=0;strokeColor=inherit;overflow=hidden;fillColor=none;top=0;left=0;bottom=0;right=0;pointerEvents=1;fontSize=16;" parent="VjdLYbDTFZBOxpxfdGES-49" vertex="1">
          <mxGeometry width="120" height="40" as="geometry">
            <mxRectangle width="120" height="40" as="alternateBounds" />
          </mxGeometry>
        </mxCell>
        <mxCell id="VjdLYbDTFZBOxpxfdGES-51" value="g-1" style="shape=partialRectangle;html=1;whiteSpace=wrap;connectable=0;strokeColor=inherit;overflow=hidden;fillColor=none;top=0;left=0;bottom=0;right=0;pointerEvents=1;fontSize=16;" parent="VjdLYbDTFZBOxpxfdGES-49" vertex="1">
          <mxGeometry x="120" width="160" height="40" as="geometry">
            <mxRectangle width="160" height="40" as="alternateBounds" />
          </mxGeometry>
        </mxCell>
        <mxCell id="VjdLYbDTFZBOxpxfdGES-52" value="" style="shape=tableRow;horizontal=0;startSize=0;swimlaneHead=0;swimlaneBody=0;strokeColor=inherit;top=0;left=0;bottom=0;right=0;collapsible=0;dropTarget=0;fillColor=none;points=[[0,0.5],[1,0.5]];portConstraint=eastwest;fontSize=16;" parent="VjdLYbDTFZBOxpxfdGES-45" vertex="1">
          <mxGeometry y="110" width="280" height="40" as="geometry" />
        </mxCell>
        <mxCell id="VjdLYbDTFZBOxpxfdGES-53" value="tag_id: str" style="shape=partialRectangle;html=1;whiteSpace=wrap;connectable=0;strokeColor=inherit;overflow=hidden;fillColor=none;top=0;left=0;bottom=0;right=0;pointerEvents=1;fontSize=16;" parent="VjdLYbDTFZBOxpxfdGES-52" vertex="1">
          <mxGeometry width="120" height="40" as="geometry">
            <mxRectangle width="120" height="40" as="alternateBounds" />
          </mxGeometry>
        </mxCell>
        <mxCell id="VjdLYbDTFZBOxpxfdGES-54" value="creative" style="shape=partialRectangle;html=1;whiteSpace=wrap;connectable=0;strokeColor=inherit;overflow=hidden;fillColor=none;top=0;left=0;bottom=0;right=0;pointerEvents=1;fontSize=16;" parent="VjdLYbDTFZBOxpxfdGES-52" vertex="1">
          <mxGeometry x="120" width="160" height="40" as="geometry">
            <mxRectangle width="160" height="40" as="alternateBounds" />
          </mxGeometry>
        </mxCell>
        <mxCell id="FjsJZ2l81SKUxhBjt9Xp-1" value="Element" style="shape=table;startSize=30;container=1;collapsible=0;childLayout=tableLayout;strokeColor=#82b366;fontSize=16;fillColor=#d5e8d4;" parent="1" vertex="1">
          <mxGeometry x="1800" y="320" width="440" height="150" as="geometry" />
        </mxCell>
        <mxCell id="FjsJZ2l81SKUxhBjt9Xp-2" value="" style="shape=tableRow;horizontal=0;startSize=0;swimlaneHead=0;swimlaneBody=0;strokeColor=inherit;top=0;left=0;bottom=0;right=0;collapsible=0;dropTarget=0;fillColor=none;points=[[0,0.5],[1,0.5]];portConstraint=eastwest;fontSize=16;" parent="FjsJZ2l81SKUxhBjt9Xp-1" vertex="1">
          <mxGeometry y="30" width="440" height="40" as="geometry" />
        </mxCell>
        <mxCell id="FjsJZ2l81SKUxhBjt9Xp-3" value="Name: Type" style="shape=partialRectangle;html=1;whiteSpace=wrap;connectable=0;strokeColor=inherit;overflow=hidden;fillColor=none;top=0;left=0;bottom=0;right=0;pointerEvents=1;fontSize=16;" parent="FjsJZ2l81SKUxhBjt9Xp-2" vertex="1">
          <mxGeometry width="120" height="40" as="geometry">
            <mxRectangle width="120" height="40" as="alternateBounds" />
          </mxGeometry>
        </mxCell>
        <mxCell id="FjsJZ2l81SKUxhBjt9Xp-4" value="Example" style="shape=partialRectangle;html=1;whiteSpace=wrap;connectable=0;strokeColor=inherit;overflow=hidden;fillColor=none;top=0;left=0;bottom=0;right=0;pointerEvents=1;fontSize=16;" parent="FjsJZ2l81SKUxhBjt9Xp-2" vertex="1">
          <mxGeometry x="120" width="160" height="40" as="geometry">
            <mxRectangle width="160" height="40" as="alternateBounds" />
          </mxGeometry>
        </mxCell>
        <mxCell id="FjsJZ2l81SKUxhBjt9Xp-5" value="Description" style="shape=partialRectangle;html=1;whiteSpace=wrap;connectable=0;strokeColor=inherit;overflow=hidden;fillColor=none;top=0;left=0;bottom=0;right=0;pointerEvents=1;fontSize=16;" parent="FjsJZ2l81SKUxhBjt9Xp-2" vertex="1">
          <mxGeometry x="280" width="160" height="40" as="geometry">
            <mxRectangle width="160" height="40" as="alternateBounds" />
          </mxGeometry>
        </mxCell>
        <mxCell id="FjsJZ2l81SKUxhBjt9Xp-6" value="" style="shape=tableRow;horizontal=0;startSize=0;swimlaneHead=0;swimlaneBody=0;strokeColor=inherit;top=0;left=0;bottom=0;right=0;collapsible=0;dropTarget=0;fillColor=none;points=[[0,0.5],[1,0.5]];portConstraint=eastwest;fontSize=16;" parent="FjsJZ2l81SKUxhBjt9Xp-1" vertex="1">
          <mxGeometry y="70" width="440" height="40" as="geometry" />
        </mxCell>
        <mxCell id="FjsJZ2l81SKUxhBjt9Xp-7" value="element_id: str" style="shape=partialRectangle;html=1;whiteSpace=wrap;connectable=0;strokeColor=inherit;overflow=hidden;fillColor=none;top=0;left=0;bottom=0;right=0;pointerEvents=1;fontSize=16;" parent="FjsJZ2l81SKUxhBjt9Xp-6" vertex="1">
          <mxGeometry width="120" height="40" as="geometry">
            <mxRectangle width="120" height="40" as="alternateBounds" />
          </mxGeometry>
        </mxCell>
        <mxCell id="FjsJZ2l81SKUxhBjt9Xp-8" value="e-1" style="shape=partialRectangle;html=1;whiteSpace=wrap;connectable=0;strokeColor=inherit;overflow=hidden;fillColor=none;top=0;left=0;bottom=0;right=0;pointerEvents=1;fontSize=16;" parent="FjsJZ2l81SKUxhBjt9Xp-6" vertex="1">
          <mxGeometry x="120" width="160" height="40" as="geometry">
            <mxRectangle width="160" height="40" as="alternateBounds" />
          </mxGeometry>
        </mxCell>
        <mxCell id="FjsJZ2l81SKUxhBjt9Xp-9" style="shape=partialRectangle;html=1;whiteSpace=wrap;connectable=0;strokeColor=inherit;overflow=hidden;fillColor=none;top=0;left=0;bottom=0;right=0;pointerEvents=1;fontSize=16;" parent="FjsJZ2l81SKUxhBjt9Xp-6" vertex="1">
          <mxGeometry x="280" width="160" height="40" as="geometry">
            <mxRectangle width="160" height="40" as="alternateBounds" />
          </mxGeometry>
        </mxCell>
        <mxCell id="FjsJZ2l81SKUxhBjt9Xp-30" style="shape=tableRow;horizontal=0;startSize=0;swimlaneHead=0;swimlaneBody=0;strokeColor=inherit;top=0;left=0;bottom=0;right=0;collapsible=0;dropTarget=0;fillColor=none;points=[[0,0.5],[1,0.5]];portConstraint=eastwest;fontSize=16;" parent="FjsJZ2l81SKUxhBjt9Xp-1" vertex="1">
          <mxGeometry y="110" width="440" height="40" as="geometry" />
        </mxCell>
        <mxCell id="FjsJZ2l81SKUxhBjt9Xp-31" value="name: str" style="shape=partialRectangle;html=1;whiteSpace=wrap;connectable=0;strokeColor=inherit;overflow=hidden;fillColor=none;top=0;left=0;bottom=0;right=0;pointerEvents=1;fontSize=16;" parent="FjsJZ2l81SKUxhBjt9Xp-30" vertex="1">
          <mxGeometry width="120" height="40" as="geometry">
            <mxRectangle width="120" height="40" as="alternateBounds" />
          </mxGeometry>
        </mxCell>
        <mxCell id="FjsJZ2l81SKUxhBjt9Xp-32" value="Role" style="shape=partialRectangle;html=1;whiteSpace=wrap;connectable=0;strokeColor=inherit;overflow=hidden;fillColor=none;top=0;left=0;bottom=0;right=0;pointerEvents=1;fontSize=16;" parent="FjsJZ2l81SKUxhBjt9Xp-30" vertex="1">
          <mxGeometry x="120" width="160" height="40" as="geometry">
            <mxRectangle width="160" height="40" as="alternateBounds" />
          </mxGeometry>
        </mxCell>
        <mxCell id="FjsJZ2l81SKUxhBjt9Xp-33" style="shape=partialRectangle;html=1;whiteSpace=wrap;connectable=0;strokeColor=inherit;overflow=hidden;fillColor=none;top=0;left=0;bottom=0;right=0;pointerEvents=1;fontSize=16;" parent="FjsJZ2l81SKUxhBjt9Xp-30" vertex="1">
          <mxGeometry x="280" width="160" height="40" as="geometry">
            <mxRectangle width="160" height="40" as="alternateBounds" />
          </mxGeometry>
        </mxCell>
        <mxCell id="FjsJZ2l81SKUxhBjt9Xp-34" value="Element Option" style="shape=table;startSize=30;container=1;collapsible=0;childLayout=tableLayout;strokeColor=#82b366;fontSize=16;fillColor=#d5e8d4;" parent="1" vertex="1">
          <mxGeometry x="1800" y="520" width="440" height="190" as="geometry" />
        </mxCell>
        <mxCell id="FjsJZ2l81SKUxhBjt9Xp-35" value="" style="shape=tableRow;horizontal=0;startSize=0;swimlaneHead=0;swimlaneBody=0;strokeColor=inherit;top=0;left=0;bottom=0;right=0;collapsible=0;dropTarget=0;fillColor=none;points=[[0,0.5],[1,0.5]];portConstraint=eastwest;fontSize=16;" parent="FjsJZ2l81SKUxhBjt9Xp-34" vertex="1">
          <mxGeometry y="30" width="440" height="40" as="geometry" />
        </mxCell>
        <mxCell id="FjsJZ2l81SKUxhBjt9Xp-36" value="Name: Type" style="shape=partialRectangle;html=1;whiteSpace=wrap;connectable=0;strokeColor=inherit;overflow=hidden;fillColor=none;top=0;left=0;bottom=0;right=0;pointerEvents=1;fontSize=16;" parent="FjsJZ2l81SKUxhBjt9Xp-35" vertex="1">
          <mxGeometry width="120" height="40" as="geometry">
            <mxRectangle width="120" height="40" as="alternateBounds" />
          </mxGeometry>
        </mxCell>
        <mxCell id="FjsJZ2l81SKUxhBjt9Xp-37" value="Example" style="shape=partialRectangle;html=1;whiteSpace=wrap;connectable=0;strokeColor=inherit;overflow=hidden;fillColor=none;top=0;left=0;bottom=0;right=0;pointerEvents=1;fontSize=16;" parent="FjsJZ2l81SKUxhBjt9Xp-35" vertex="1">
          <mxGeometry x="120" width="160" height="40" as="geometry">
            <mxRectangle width="160" height="40" as="alternateBounds" />
          </mxGeometry>
        </mxCell>
        <mxCell id="FjsJZ2l81SKUxhBjt9Xp-38" value="Description" style="shape=partialRectangle;html=1;whiteSpace=wrap;connectable=0;strokeColor=inherit;overflow=hidden;fillColor=none;top=0;left=0;bottom=0;right=0;pointerEvents=1;fontSize=16;" parent="FjsJZ2l81SKUxhBjt9Xp-35" vertex="1">
          <mxGeometry x="280" width="160" height="40" as="geometry">
            <mxRectangle width="160" height="40" as="alternateBounds" />
          </mxGeometry>
        </mxCell>
        <mxCell id="FjsJZ2l81SKUxhBjt9Xp-39" value="" style="shape=tableRow;horizontal=0;startSize=0;swimlaneHead=0;swimlaneBody=0;strokeColor=inherit;top=0;left=0;bottom=0;right=0;collapsible=0;dropTarget=0;fillColor=none;points=[[0,0.5],[1,0.5]];portConstraint=eastwest;fontSize=16;" parent="FjsJZ2l81SKUxhBjt9Xp-34" vertex="1">
          <mxGeometry y="70" width="440" height="40" as="geometry" />
        </mxCell>
        <mxCell id="FjsJZ2l81SKUxhBjt9Xp-40" value="element_id: str" style="shape=partialRectangle;html=1;whiteSpace=wrap;connectable=0;strokeColor=inherit;overflow=hidden;fillColor=none;top=0;left=0;bottom=0;right=0;pointerEvents=1;fontSize=16;" parent="FjsJZ2l81SKUxhBjt9Xp-39" vertex="1">
          <mxGeometry width="120" height="40" as="geometry">
            <mxRectangle width="120" height="40" as="alternateBounds" />
          </mxGeometry>
        </mxCell>
        <mxCell id="FjsJZ2l81SKUxhBjt9Xp-41" value="e-1" style="shape=partialRectangle;html=1;whiteSpace=wrap;connectable=0;strokeColor=inherit;overflow=hidden;fillColor=none;top=0;left=0;bottom=0;right=0;pointerEvents=1;fontSize=16;" parent="FjsJZ2l81SKUxhBjt9Xp-39" vertex="1">
          <mxGeometry x="120" width="160" height="40" as="geometry">
            <mxRectangle width="160" height="40" as="alternateBounds" />
          </mxGeometry>
        </mxCell>
        <mxCell id="FjsJZ2l81SKUxhBjt9Xp-42" style="shape=partialRectangle;html=1;whiteSpace=wrap;connectable=0;strokeColor=inherit;overflow=hidden;fillColor=none;top=0;left=0;bottom=0;right=0;pointerEvents=1;fontSize=16;" parent="FjsJZ2l81SKUxhBjt9Xp-39" vertex="1">
          <mxGeometry x="280" width="160" height="40" as="geometry">
            <mxRectangle width="160" height="40" as="alternateBounds" />
          </mxGeometry>
        </mxCell>
        <mxCell id="FjsJZ2l81SKUxhBjt9Xp-43" style="shape=tableRow;horizontal=0;startSize=0;swimlaneHead=0;swimlaneBody=0;strokeColor=inherit;top=0;left=0;bottom=0;right=0;collapsible=0;dropTarget=0;fillColor=none;points=[[0,0.5],[1,0.5]];portConstraint=eastwest;fontSize=16;" parent="FjsJZ2l81SKUxhBjt9Xp-34" vertex="1">
          <mxGeometry y="110" width="440" height="40" as="geometry" />
        </mxCell>
        <mxCell id="FjsJZ2l81SKUxhBjt9Xp-44" value="option_id: int" style="shape=partialRectangle;html=1;whiteSpace=wrap;connectable=0;strokeColor=inherit;overflow=hidden;fillColor=none;top=0;left=0;bottom=0;right=0;pointerEvents=1;fontSize=16;" parent="FjsJZ2l81SKUxhBjt9Xp-43" vertex="1">
          <mxGeometry width="120" height="40" as="geometry">
            <mxRectangle width="120" height="40" as="alternateBounds" />
          </mxGeometry>
        </mxCell>
        <mxCell id="FjsJZ2l81SKUxhBjt9Xp-45" value="1" style="shape=partialRectangle;html=1;whiteSpace=wrap;connectable=0;strokeColor=inherit;overflow=hidden;fillColor=none;top=0;left=0;bottom=0;right=0;pointerEvents=1;fontSize=16;" parent="FjsJZ2l81SKUxhBjt9Xp-43" vertex="1">
          <mxGeometry x="120" width="160" height="40" as="geometry">
            <mxRectangle width="160" height="40" as="alternateBounds" />
          </mxGeometry>
        </mxCell>
        <mxCell id="FjsJZ2l81SKUxhBjt9Xp-46" style="shape=partialRectangle;html=1;whiteSpace=wrap;connectable=0;strokeColor=inherit;overflow=hidden;fillColor=none;top=0;left=0;bottom=0;right=0;pointerEvents=1;fontSize=16;" parent="FjsJZ2l81SKUxhBjt9Xp-43" vertex="1">
          <mxGeometry x="280" width="160" height="40" as="geometry">
            <mxRectangle width="160" height="40" as="alternateBounds" />
          </mxGeometry>
        </mxCell>
        <mxCell id="fhcafTyt4c3h_nWqTBV0-1" style="shape=tableRow;horizontal=0;startSize=0;swimlaneHead=0;swimlaneBody=0;strokeColor=inherit;top=0;left=0;bottom=0;right=0;collapsible=0;dropTarget=0;fillColor=none;points=[[0,0.5],[1,0.5]];portConstraint=eastwest;fontSize=16;" parent="FjsJZ2l81SKUxhBjt9Xp-34" vertex="1">
          <mxGeometry y="150" width="440" height="40" as="geometry" />
        </mxCell>
        <mxCell id="fhcafTyt4c3h_nWqTBV0-2" value="body: str" style="shape=partialRectangle;html=1;whiteSpace=wrap;connectable=0;strokeColor=inherit;overflow=hidden;fillColor=none;top=0;left=0;bottom=0;right=0;pointerEvents=1;fontSize=16;" parent="fhcafTyt4c3h_nWqTBV0-1" vertex="1">
          <mxGeometry width="120" height="40" as="geometry">
            <mxRectangle width="120" height="40" as="alternateBounds" />
          </mxGeometry>
        </mxCell>
        <mxCell id="fhcafTyt4c3h_nWqTBV0-3" value="Financial Advisor" style="shape=partialRectangle;html=1;whiteSpace=wrap;connectable=0;strokeColor=inherit;overflow=hidden;fillColor=none;top=0;left=0;bottom=0;right=0;pointerEvents=1;fontSize=16;" parent="fhcafTyt4c3h_nWqTBV0-1" vertex="1">
          <mxGeometry x="120" width="160" height="40" as="geometry">
            <mxRectangle width="160" height="40" as="alternateBounds" />
          </mxGeometry>
        </mxCell>
        <mxCell id="fhcafTyt4c3h_nWqTBV0-4" style="shape=partialRectangle;html=1;whiteSpace=wrap;connectable=0;strokeColor=inherit;overflow=hidden;fillColor=none;top=0;left=0;bottom=0;right=0;pointerEvents=1;fontSize=16;" parent="fhcafTyt4c3h_nWqTBV0-1" vertex="1">
          <mxGeometry x="280" width="160" height="40" as="geometry">
            <mxRectangle width="160" height="40" as="alternateBounds" />
          </mxGeometry>
        </mxCell>
        <mxCell id="fhcafTyt4c3h_nWqTBV0-5" value="Relationship" style="shape=table;startSize=30;container=1;collapsible=0;childLayout=tableLayout;strokeColor=#9673a6;fontSize=16;fillColor=#e1d5e7;" parent="1" vertex="1">
          <mxGeometry x="1800" y="1080" width="440" height="190" as="geometry" />
        </mxCell>
        <mxCell id="fhcafTyt4c3h_nWqTBV0-6" value="" style="shape=tableRow;horizontal=0;startSize=0;swimlaneHead=0;swimlaneBody=0;strokeColor=inherit;top=0;left=0;bottom=0;right=0;collapsible=0;dropTarget=0;fillColor=none;points=[[0,0.5],[1,0.5]];portConstraint=eastwest;fontSize=16;" parent="fhcafTyt4c3h_nWqTBV0-5" vertex="1">
          <mxGeometry y="30" width="440" height="40" as="geometry" />
        </mxCell>
        <mxCell id="fhcafTyt4c3h_nWqTBV0-7" value="Left" style="shape=partialRectangle;html=1;whiteSpace=wrap;connectable=0;strokeColor=inherit;overflow=hidden;fillColor=none;top=0;left=0;bottom=0;right=0;pointerEvents=1;fontSize=16;" parent="fhcafTyt4c3h_nWqTBV0-6" vertex="1">
          <mxGeometry width="120" height="40" as="geometry">
            <mxRectangle width="120" height="40" as="alternateBounds" />
          </mxGeometry>
        </mxCell>
        <mxCell id="fhcafTyt4c3h_nWqTBV0-8" value="Right" style="shape=partialRectangle;html=1;whiteSpace=wrap;connectable=0;strokeColor=inherit;overflow=hidden;fillColor=none;top=0;left=0;bottom=0;right=0;pointerEvents=1;fontSize=16;" parent="fhcafTyt4c3h_nWqTBV0-6" vertex="1">
          <mxGeometry x="120" width="160" height="40" as="geometry">
            <mxRectangle width="160" height="40" as="alternateBounds" />
          </mxGeometry>
        </mxCell>
        <mxCell id="fhcafTyt4c3h_nWqTBV0-9" value="Relationship" style="shape=partialRectangle;html=1;whiteSpace=wrap;connectable=0;strokeColor=inherit;overflow=hidden;fillColor=none;top=0;left=0;bottom=0;right=0;pointerEvents=1;fontSize=16;" parent="fhcafTyt4c3h_nWqTBV0-6" vertex="1">
          <mxGeometry x="280" width="160" height="40" as="geometry">
            <mxRectangle width="160" height="40" as="alternateBounds" />
          </mxGeometry>
        </mxCell>
        <mxCell id="fhcafTyt4c3h_nWqTBV0-10" value="" style="shape=tableRow;horizontal=0;startSize=0;swimlaneHead=0;swimlaneBody=0;strokeColor=inherit;top=0;left=0;bottom=0;right=0;collapsible=0;dropTarget=0;fillColor=none;points=[[0,0.5],[1,0.5]];portConstraint=eastwest;fontSize=16;" parent="fhcafTyt4c3h_nWqTBV0-5" vertex="1">
          <mxGeometry y="70" width="440" height="40" as="geometry" />
        </mxCell>
        <mxCell id="fhcafTyt4c3h_nWqTBV0-11" value="Prompt" style="shape=partialRectangle;html=1;whiteSpace=wrap;connectable=0;strokeColor=inherit;overflow=hidden;fillColor=none;top=0;left=0;bottom=0;right=0;pointerEvents=1;fontSize=16;" parent="fhcafTyt4c3h_nWqTBV0-10" vertex="1">
          <mxGeometry width="120" height="40" as="geometry">
            <mxRectangle width="120" height="40" as="alternateBounds" />
          </mxGeometry>
        </mxCell>
        <mxCell id="fhcafTyt4c3h_nWqTBV0-12" value="Group" style="shape=partialRectangle;html=1;whiteSpace=wrap;connectable=0;strokeColor=inherit;overflow=hidden;fillColor=none;top=0;left=0;bottom=0;right=0;pointerEvents=1;fontSize=16;" parent="fhcafTyt4c3h_nWqTBV0-10" vertex="1">
          <mxGeometry x="120" width="160" height="40" as="geometry">
            <mxRectangle width="160" height="40" as="alternateBounds" />
          </mxGeometry>
        </mxCell>
        <mxCell id="fhcafTyt4c3h_nWqTBV0-13" value="many-to-one" style="shape=partialRectangle;html=1;whiteSpace=wrap;connectable=0;strokeColor=inherit;overflow=hidden;fillColor=none;top=0;left=0;bottom=0;right=0;pointerEvents=1;fontSize=16;" parent="fhcafTyt4c3h_nWqTBV0-10" vertex="1">
          <mxGeometry x="280" width="160" height="40" as="geometry">
            <mxRectangle width="160" height="40" as="alternateBounds" />
          </mxGeometry>
        </mxCell>
        <mxCell id="fhcafTyt4c3h_nWqTBV0-14" style="shape=tableRow;horizontal=0;startSize=0;swimlaneHead=0;swimlaneBody=0;strokeColor=inherit;top=0;left=0;bottom=0;right=0;collapsible=0;dropTarget=0;fillColor=none;points=[[0,0.5],[1,0.5]];portConstraint=eastwest;fontSize=16;" parent="fhcafTyt4c3h_nWqTBV0-5" vertex="1">
          <mxGeometry y="110" width="440" height="40" as="geometry" />
        </mxCell>
        <mxCell id="fhcafTyt4c3h_nWqTBV0-15" value="Prompt" style="shape=partialRectangle;html=1;whiteSpace=wrap;connectable=0;strokeColor=inherit;overflow=hidden;fillColor=none;top=0;left=0;bottom=0;right=0;pointerEvents=1;fontSize=16;" parent="fhcafTyt4c3h_nWqTBV0-14" vertex="1">
          <mxGeometry width="120" height="40" as="geometry">
            <mxRectangle width="120" height="40" as="alternateBounds" />
          </mxGeometry>
        </mxCell>
        <mxCell id="fhcafTyt4c3h_nWqTBV0-16" value="Tag" style="shape=partialRectangle;html=1;whiteSpace=wrap;connectable=0;strokeColor=inherit;overflow=hidden;fillColor=none;top=0;left=0;bottom=0;right=0;pointerEvents=1;fontSize=16;" parent="fhcafTyt4c3h_nWqTBV0-14" vertex="1">
          <mxGeometry x="120" width="160" height="40" as="geometry">
            <mxRectangle width="160" height="40" as="alternateBounds" />
          </mxGeometry>
        </mxCell>
        <mxCell id="fhcafTyt4c3h_nWqTBV0-17" value="many-to-many" style="shape=partialRectangle;html=1;whiteSpace=wrap;connectable=0;strokeColor=inherit;overflow=hidden;fillColor=none;top=0;left=0;bottom=0;right=0;pointerEvents=1;fontSize=16;" parent="fhcafTyt4c3h_nWqTBV0-14" vertex="1">
          <mxGeometry x="280" width="160" height="40" as="geometry">
            <mxRectangle width="160" height="40" as="alternateBounds" />
          </mxGeometry>
        </mxCell>
        <mxCell id="fhcafTyt4c3h_nWqTBV0-18" style="shape=tableRow;horizontal=0;startSize=0;swimlaneHead=0;swimlaneBody=0;strokeColor=inherit;top=0;left=0;bottom=0;right=0;collapsible=0;dropTarget=0;fillColor=none;points=[[0,0.5],[1,0.5]];portConstraint=eastwest;fontSize=16;" parent="fhcafTyt4c3h_nWqTBV0-5" vertex="1">
          <mxGeometry y="150" width="440" height="40" as="geometry" />
        </mxCell>
        <mxCell id="fhcafTyt4c3h_nWqTBV0-19" value="Element" style="shape=partialRectangle;html=1;whiteSpace=wrap;connectable=0;strokeColor=inherit;overflow=hidden;fillColor=none;top=0;left=0;bottom=0;right=0;pointerEvents=1;fontSize=16;" parent="fhcafTyt4c3h_nWqTBV0-18" vertex="1">
          <mxGeometry width="120" height="40" as="geometry">
            <mxRectangle width="120" height="40" as="alternateBounds" />
          </mxGeometry>
        </mxCell>
        <mxCell id="fhcafTyt4c3h_nWqTBV0-20" value="Element Option" style="shape=partialRectangle;html=1;whiteSpace=wrap;connectable=0;strokeColor=inherit;overflow=hidden;fillColor=none;top=0;left=0;bottom=0;right=0;pointerEvents=1;fontSize=16;" parent="fhcafTyt4c3h_nWqTBV0-18" vertex="1">
          <mxGeometry x="120" width="160" height="40" as="geometry">
            <mxRectangle width="160" height="40" as="alternateBounds" />
          </mxGeometry>
        </mxCell>
        <mxCell id="fhcafTyt4c3h_nWqTBV0-21" value="one-to-many" style="shape=partialRectangle;html=1;whiteSpace=wrap;connectable=0;strokeColor=inherit;overflow=hidden;fillColor=none;top=0;left=0;bottom=0;right=0;pointerEvents=1;fontSize=16;" parent="fhcafTyt4c3h_nWqTBV0-18" vertex="1">
          <mxGeometry x="280" width="160" height="40" as="geometry">
            <mxRectangle width="160" height="40" as="alternateBounds" />
          </mxGeometry>
        </mxCell>
        <mxCell id="fhcafTyt4c3h_nWqTBV0-22" style="edgeStyle=orthogonalEdgeStyle;rounded=0;orthogonalLoop=1;jettySize=auto;html=1;exitX=0;exitY=0.5;exitDx=0;exitDy=0;entryX=0;entryY=0.5;entryDx=0;entryDy=0;" parent="1" source="VjdLYbDTFZBOxpxfdGES-8" target="VjdLYbDTFZBOxpxfdGES-28" edge="1">
          <mxGeometry relative="1" as="geometry" />
        </mxCell>
        <mxCell id="fhcafTyt4c3h_nWqTBV0-23" style="edgeStyle=orthogonalEdgeStyle;rounded=0;orthogonalLoop=1;jettySize=auto;html=1;exitX=0;exitY=0.5;exitDx=0;exitDy=0;entryX=0;entryY=0.5;entryDx=0;entryDy=0;" parent="1" source="VjdLYbDTFZBOxpxfdGES-5" target="VjdLYbDTFZBOxpxfdGES-49" edge="1">
          <mxGeometry relative="1" as="geometry">
            <Array as="points">
              <mxPoint x="880" y="410" />
              <mxPoint x="880" y="1170" />
            </Array>
          </mxGeometry>
        </mxCell>
        <mxCell id="fhcafTyt4c3h_nWqTBV0-24" style="edgeStyle=orthogonalEdgeStyle;rounded=0;orthogonalLoop=1;jettySize=auto;html=1;exitX=0;exitY=0.5;exitDx=0;exitDy=0;entryX=0;entryY=0.5;entryDx=0;entryDy=0;" parent="1" source="VjdLYbDTFZBOxpxfdGES-38" target="VjdLYbDTFZBOxpxfdGES-52" edge="1">
          <mxGeometry relative="1" as="geometry" />
        </mxCell>
        <mxCell id="fhcafTyt4c3h_nWqTBV0-25" style="edgeStyle=orthogonalEdgeStyle;rounded=0;orthogonalLoop=1;jettySize=auto;html=1;exitX=0;exitY=0.5;exitDx=0;exitDy=0;entryX=0;entryY=0.5;entryDx=0;entryDy=0;" parent="1" source="FjsJZ2l81SKUxhBjt9Xp-6" target="FjsJZ2l81SKUxhBjt9Xp-39" edge="1">
          <mxGeometry relative="1" as="geometry" />
        </mxCell>
        <mxCell id="IABXxFGjpRNcNmdq0ZrK-1" value="&lt;b&gt;Prompt Datastore&lt;/b&gt;" style="text;html=1;align=center;verticalAlign=middle;whiteSpace=wrap;rounded=0;fillColor=#f5f5f5;fontColor=#333333;strokeColor=#666666;" parent="1" vertex="1">
          <mxGeometry x="920" y="120" width="720" height="40" as="geometry" />
        </mxCell>
      </root>
    </mxGraphModel>
  </diagram>
  <diagram id="FaV4Dyzw7APDWuKDxcc3" name="Prompt Evaluation">
    <mxGraphModel dx="1893" dy="1013" grid="1" gridSize="10" guides="1" tooltips="1" connect="1" arrows="1" fold="1" page="1" pageScale="1" pageWidth="850" pageHeight="1100" math="0" shadow="0">
      <root>
        <mxCell id="0" />
        <mxCell id="1" parent="0" />
        <mxCell id="boYdrqp5uWlOdMBafYbm-31" value="" style="group" parent="1" vertex="1" connectable="0">
          <mxGeometry x="120" y="600" width="280" height="40" as="geometry" />
        </mxCell>
        <mxCell id="boYdrqp5uWlOdMBafYbm-11" value=" v1, v2" style="html=1;shadow=0;dashed=0;shape=mxgraph.bootstrap.rrect;rSize=5;strokeColor=#CED4DA;html=1;whiteSpace=wrap;fillColor=#FFFFFF;fontColor=#7D868C;align=left;spacing=15;spacingLeft=40;fontSize=14;container=0;" parent="boYdrqp5uWlOdMBafYbm-31" vertex="1">
          <mxGeometry x="80" width="200" height="40" as="geometry" />
        </mxCell>
        <mxCell id="boYdrqp5uWlOdMBafYbm-12" value="Instruction" style="html=1;shadow=0;dashed=0;shape=mxgraph.bootstrap.leftButton;strokeColor=inherit;gradientColor=inherit;fontColor=inherit;fillColor=#E9ECEF;rSize=5;perimeter=none;whiteSpace=wrap;resizeHeight=1;fontSize=14;container=0;" parent="boYdrqp5uWlOdMBafYbm-31" vertex="1">
          <mxGeometry width="80" height="40" as="geometry" />
        </mxCell>
        <mxCell id="boYdrqp5uWlOdMBafYbm-32" value="" style="group" parent="1" vertex="1" connectable="0">
          <mxGeometry x="120" y="680" width="280" height="40" as="geometry" />
        </mxCell>
        <mxCell id="boYdrqp5uWlOdMBafYbm-33" value=" ..." style="html=1;shadow=0;dashed=0;shape=mxgraph.bootstrap.rrect;rSize=5;strokeColor=#CED4DA;html=1;whiteSpace=wrap;fillColor=#FFFFFF;fontColor=#7D868C;align=left;spacing=15;spacingLeft=40;fontSize=14;container=0;" parent="boYdrqp5uWlOdMBafYbm-32" vertex="1">
          <mxGeometry x="80" width="200" height="40" as="geometry" />
        </mxCell>
        <mxCell id="boYdrqp5uWlOdMBafYbm-34" value="Context" style="html=1;shadow=0;dashed=0;shape=mxgraph.bootstrap.leftButton;strokeColor=inherit;gradientColor=inherit;fontColor=inherit;fillColor=#E9ECEF;rSize=5;perimeter=none;whiteSpace=wrap;resizeHeight=1;fontSize=14;container=0;" parent="boYdrqp5uWlOdMBafYbm-32" vertex="1">
          <mxGeometry width="80" height="40" as="geometry" />
        </mxCell>
        <mxCell id="boYdrqp5uWlOdMBafYbm-41" value="" style="group" parent="1" vertex="1" connectable="0">
          <mxGeometry x="120" y="760" width="280" height="40" as="geometry" />
        </mxCell>
        <mxCell id="boYdrqp5uWlOdMBafYbm-42" value=" d1, d2, d3, ..." style="html=1;shadow=0;dashed=0;shape=mxgraph.bootstrap.rrect;rSize=5;strokeColor=#CED4DA;html=1;whiteSpace=wrap;fillColor=#FFFFFF;fontColor=#7D868C;align=left;spacing=15;spacingLeft=40;fontSize=14;container=0;" parent="boYdrqp5uWlOdMBafYbm-41" vertex="1">
          <mxGeometry x="80" width="200" height="40" as="geometry" />
        </mxCell>
        <mxCell id="boYdrqp5uWlOdMBafYbm-43" value="Input Data" style="html=1;shadow=0;dashed=0;shape=mxgraph.bootstrap.leftButton;strokeColor=inherit;gradientColor=inherit;fontColor=inherit;fillColor=#E9ECEF;rSize=5;perimeter=none;whiteSpace=wrap;resizeHeight=1;fontSize=14;container=0;" parent="boYdrqp5uWlOdMBafYbm-41" vertex="1">
          <mxGeometry width="80" height="40" as="geometry" />
        </mxCell>
        <mxCell id="boYdrqp5uWlOdMBafYbm-44" value="" style="group" parent="1" vertex="1" connectable="0">
          <mxGeometry x="120" y="840" width="280" height="40" as="geometry" />
        </mxCell>
        <mxCell id="boYdrqp5uWlOdMBafYbm-45" value=" ..." style="html=1;shadow=0;dashed=0;shape=mxgraph.bootstrap.rrect;rSize=5;strokeColor=#CED4DA;html=1;whiteSpace=wrap;fillColor=#FFFFFF;fontColor=#7D868C;align=left;spacing=15;spacingLeft=40;fontSize=14;container=0;" parent="boYdrqp5uWlOdMBafYbm-44" vertex="1">
          <mxGeometry x="80" width="200" height="40" as="geometry" />
        </mxCell>
        <mxCell id="boYdrqp5uWlOdMBafYbm-46" value="Output Indicator" style="html=1;shadow=0;dashed=0;shape=mxgraph.bootstrap.leftButton;strokeColor=inherit;gradientColor=inherit;fontColor=inherit;fillColor=#E9ECEF;rSize=5;perimeter=none;whiteSpace=wrap;resizeHeight=1;fontSize=14;container=0;" parent="boYdrqp5uWlOdMBafYbm-44" vertex="1">
          <mxGeometry width="80" height="40" as="geometry" />
        </mxCell>
        <mxCell id="boYdrqp5uWlOdMBafYbm-50" value="" style="group" parent="1" vertex="1" connectable="0">
          <mxGeometry x="120" y="920" width="280" height="40" as="geometry" />
        </mxCell>
        <mxCell id="boYdrqp5uWlOdMBafYbm-51" value=" ..." style="html=1;shadow=0;dashed=0;shape=mxgraph.bootstrap.rrect;rSize=5;strokeColor=#CED4DA;html=1;whiteSpace=wrap;fillColor=#FFFFFF;fontColor=#7D868C;align=left;spacing=15;spacingLeft=40;fontSize=14;container=0;" parent="boYdrqp5uWlOdMBafYbm-50" vertex="1">
          <mxGeometry x="80" width="200" height="40" as="geometry" />
        </mxCell>
        <mxCell id="boYdrqp5uWlOdMBafYbm-52" value="Output Indicator" style="html=1;shadow=0;dashed=0;shape=mxgraph.bootstrap.leftButton;strokeColor=#82b366;fillColor=#d5e8d4;rSize=5;perimeter=none;whiteSpace=wrap;resizeHeight=1;fontSize=14;container=0;" parent="boYdrqp5uWlOdMBafYbm-50" vertex="1">
          <mxGeometry width="80" height="40" as="geometry" />
        </mxCell>
        <mxCell id="boYdrqp5uWlOdMBafYbm-53" value="A/B Test Results" style="shape=table;startSize=30;container=1;collapsible=0;childLayout=tableLayout;strokeColor=default;fontSize=16;" parent="1" vertex="1">
          <mxGeometry x="480" y="600" width="200" height="246" as="geometry" />
        </mxCell>
        <mxCell id="boYdrqp5uWlOdMBafYbm-54" value="" style="shape=tableRow;horizontal=0;startSize=0;swimlaneHead=0;swimlaneBody=0;strokeColor=inherit;top=0;left=0;bottom=0;right=0;collapsible=0;dropTarget=0;fillColor=none;points=[[0,0.5],[1,0.5]];portConstraint=eastwest;fontSize=16;" parent="boYdrqp5uWlOdMBafYbm-53" vertex="1">
          <mxGeometry y="30" width="200" height="43" as="geometry" />
        </mxCell>
        <mxCell id="boYdrqp5uWlOdMBafYbm-55" value="data" style="shape=partialRectangle;html=1;whiteSpace=wrap;connectable=0;strokeColor=inherit;overflow=hidden;fillColor=none;top=0;left=0;bottom=0;right=0;pointerEvents=1;fontSize=16;" parent="boYdrqp5uWlOdMBafYbm-54" vertex="1">
          <mxGeometry width="100" height="43" as="geometry">
            <mxRectangle width="100" height="43" as="alternateBounds" />
          </mxGeometry>
        </mxCell>
        <mxCell id="boYdrqp5uWlOdMBafYbm-56" value="which is better" style="shape=partialRectangle;html=1;whiteSpace=wrap;connectable=0;strokeColor=inherit;overflow=hidden;fillColor=none;top=0;left=0;bottom=0;right=0;pointerEvents=1;fontSize=16;" parent="boYdrqp5uWlOdMBafYbm-54" vertex="1">
          <mxGeometry x="100" width="100" height="43" as="geometry">
            <mxRectangle width="100" height="43" as="alternateBounds" />
          </mxGeometry>
        </mxCell>
        <mxCell id="boYdrqp5uWlOdMBafYbm-58" value="" style="shape=tableRow;horizontal=0;startSize=0;swimlaneHead=0;swimlaneBody=0;strokeColor=inherit;top=0;left=0;bottom=0;right=0;collapsible=0;dropTarget=0;fillColor=none;points=[[0,0.5],[1,0.5]];portConstraint=eastwest;fontSize=16;" parent="boYdrqp5uWlOdMBafYbm-53" vertex="1">
          <mxGeometry y="73" width="200" height="44" as="geometry" />
        </mxCell>
        <mxCell id="boYdrqp5uWlOdMBafYbm-59" value="d1" style="shape=partialRectangle;html=1;whiteSpace=wrap;connectable=0;strokeColor=inherit;overflow=hidden;fillColor=none;top=0;left=0;bottom=0;right=0;pointerEvents=1;fontSize=16;" parent="boYdrqp5uWlOdMBafYbm-58" vertex="1">
          <mxGeometry width="100" height="44" as="geometry">
            <mxRectangle width="100" height="44" as="alternateBounds" />
          </mxGeometry>
        </mxCell>
        <mxCell id="boYdrqp5uWlOdMBafYbm-60" value="v1" style="shape=partialRectangle;html=1;whiteSpace=wrap;connectable=0;strokeColor=inherit;overflow=hidden;fillColor=none;top=0;left=0;bottom=0;right=0;pointerEvents=1;fontSize=16;" parent="boYdrqp5uWlOdMBafYbm-58" vertex="1">
          <mxGeometry x="100" width="100" height="44" as="geometry">
            <mxRectangle width="100" height="44" as="alternateBounds" />
          </mxGeometry>
        </mxCell>
        <mxCell id="boYdrqp5uWlOdMBafYbm-62" value="" style="shape=tableRow;horizontal=0;startSize=0;swimlaneHead=0;swimlaneBody=0;strokeColor=inherit;top=0;left=0;bottom=0;right=0;collapsible=0;dropTarget=0;fillColor=none;points=[[0,0.5],[1,0.5]];portConstraint=eastwest;fontSize=16;" parent="boYdrqp5uWlOdMBafYbm-53" vertex="1">
          <mxGeometry y="117" width="200" height="43" as="geometry" />
        </mxCell>
        <mxCell id="boYdrqp5uWlOdMBafYbm-63" value="d2" style="shape=partialRectangle;html=1;whiteSpace=wrap;connectable=0;strokeColor=inherit;overflow=hidden;fillColor=none;top=0;left=0;bottom=0;right=0;pointerEvents=1;fontSize=16;" parent="boYdrqp5uWlOdMBafYbm-62" vertex="1">
          <mxGeometry width="100" height="43" as="geometry">
            <mxRectangle width="100" height="43" as="alternateBounds" />
          </mxGeometry>
        </mxCell>
        <mxCell id="boYdrqp5uWlOdMBafYbm-64" value="v2" style="shape=partialRectangle;html=1;whiteSpace=wrap;connectable=0;strokeColor=inherit;overflow=hidden;fillColor=none;top=0;left=0;bottom=0;right=0;pointerEvents=1;fontSize=16;" parent="boYdrqp5uWlOdMBafYbm-62" vertex="1">
          <mxGeometry x="100" width="100" height="43" as="geometry">
            <mxRectangle width="100" height="43" as="alternateBounds" />
          </mxGeometry>
        </mxCell>
        <mxCell id="boYdrqp5uWlOdMBafYbm-66" style="shape=tableRow;horizontal=0;startSize=0;swimlaneHead=0;swimlaneBody=0;strokeColor=inherit;top=0;left=0;bottom=0;right=0;collapsible=0;dropTarget=0;fillColor=none;points=[[0,0.5],[1,0.5]];portConstraint=eastwest;fontSize=16;" parent="boYdrqp5uWlOdMBafYbm-53" vertex="1">
          <mxGeometry y="160" width="200" height="43" as="geometry" />
        </mxCell>
        <mxCell id="boYdrqp5uWlOdMBafYbm-67" value="d3" style="shape=partialRectangle;html=1;whiteSpace=wrap;connectable=0;strokeColor=inherit;overflow=hidden;fillColor=none;top=0;left=0;bottom=0;right=0;pointerEvents=1;fontSize=16;" parent="boYdrqp5uWlOdMBafYbm-66" vertex="1">
          <mxGeometry width="100" height="43" as="geometry">
            <mxRectangle width="100" height="43" as="alternateBounds" />
          </mxGeometry>
        </mxCell>
        <mxCell id="boYdrqp5uWlOdMBafYbm-68" value="v2" style="shape=partialRectangle;html=1;whiteSpace=wrap;connectable=0;strokeColor=inherit;overflow=hidden;fillColor=none;top=0;left=0;bottom=0;right=0;pointerEvents=1;fontSize=16;" parent="boYdrqp5uWlOdMBafYbm-66" vertex="1">
          <mxGeometry x="100" width="100" height="43" as="geometry">
            <mxRectangle width="100" height="43" as="alternateBounds" />
          </mxGeometry>
        </mxCell>
        <mxCell id="boYdrqp5uWlOdMBafYbm-70" style="shape=tableRow;horizontal=0;startSize=0;swimlaneHead=0;swimlaneBody=0;strokeColor=inherit;top=0;left=0;bottom=0;right=0;collapsible=0;dropTarget=0;fillColor=none;points=[[0,0.5],[1,0.5]];portConstraint=eastwest;fontSize=16;" parent="boYdrqp5uWlOdMBafYbm-53" vertex="1">
          <mxGeometry y="203" width="200" height="43" as="geometry" />
        </mxCell>
        <mxCell id="boYdrqp5uWlOdMBafYbm-71" value="..." style="shape=partialRectangle;html=1;whiteSpace=wrap;connectable=0;strokeColor=inherit;overflow=hidden;fillColor=none;top=0;left=0;bottom=0;right=0;pointerEvents=1;fontSize=16;" parent="boYdrqp5uWlOdMBafYbm-70" vertex="1">
          <mxGeometry width="100" height="43" as="geometry">
            <mxRectangle width="100" height="43" as="alternateBounds" />
          </mxGeometry>
        </mxCell>
        <mxCell id="boYdrqp5uWlOdMBafYbm-72" value="..." style="shape=partialRectangle;html=1;whiteSpace=wrap;connectable=0;strokeColor=inherit;overflow=hidden;fillColor=none;top=0;left=0;bottom=0;right=0;pointerEvents=1;fontSize=16;" parent="boYdrqp5uWlOdMBafYbm-70" vertex="1">
          <mxGeometry x="100" width="100" height="43" as="geometry">
            <mxRectangle width="100" height="43" as="alternateBounds" />
          </mxGeometry>
        </mxCell>
        <mxCell id="boYdrqp5uWlOdMBafYbm-74" value="A/B Test" style="swimlane;whiteSpace=wrap;html=1;" parent="1" vertex="1">
          <mxGeometry x="40" y="480" width="720" height="560" as="geometry" />
        </mxCell>
        <mxCell id="lNjXOMi8JCkLbS9FwMS5-1" value="&lt;b&gt;Prompt Evaluation&lt;/b&gt;" style="text;html=1;align=center;verticalAlign=middle;whiteSpace=wrap;rounded=0;fillColor=#f5f5f5;fontColor=#333333;strokeColor=#666666;" parent="1" vertex="1">
          <mxGeometry x="40" y="40" width="720" height="40" as="geometry" />
        </mxCell>
        <mxCell id="-DyAFSA5t7pBOdUeeStO-16" value="Prompt Performance Test" style="swimlane;whiteSpace=wrap;html=1;" vertex="1" parent="1">
          <mxGeometry x="40" y="120" width="720" height="320" as="geometry" />
        </mxCell>
        <mxCell id="-DyAFSA5t7pBOdUeeStO-7" value="Input Data 1" style="rounded=0;whiteSpace=wrap;html=1;fillColor=#f5f5f5;fontColor=#333333;strokeColor=#666666;" vertex="1" parent="-DyAFSA5t7pBOdUeeStO-16">
          <mxGeometry x="320" y="80" width="80" height="40" as="geometry" />
        </mxCell>
        <mxCell id="-DyAFSA5t7pBOdUeeStO-8" value="Input Data 1" style="rounded=0;whiteSpace=wrap;html=1;fillColor=#f5f5f5;fontColor=#333333;strokeColor=#666666;" vertex="1" parent="-DyAFSA5t7pBOdUeeStO-16">
          <mxGeometry x="320" y="160" width="80" height="40" as="geometry" />
        </mxCell>
        <mxCell id="-DyAFSA5t7pBOdUeeStO-9" value="Input Data 2" style="rounded=0;whiteSpace=wrap;html=1;fillColor=#f5f5f5;fontColor=#333333;strokeColor=#666666;" vertex="1" parent="-DyAFSA5t7pBOdUeeStO-16">
          <mxGeometry x="320" y="160" width="80" height="40" as="geometry" />
        </mxCell>
        <mxCell id="-DyAFSA5t7pBOdUeeStO-10" value="Input Data 3" style="rounded=0;whiteSpace=wrap;html=1;fillColor=#f5f5f5;fontColor=#333333;strokeColor=#666666;" vertex="1" parent="-DyAFSA5t7pBOdUeeStO-16">
          <mxGeometry x="320" y="240" width="80" height="40" as="geometry" />
        </mxCell>
        <mxCell id="-DyAFSA5t7pBOdUeeStO-11" value="✅ Output 1" style="rounded=0;whiteSpace=wrap;html=1;fillColor=#f5f5f5;fontColor=#333333;strokeColor=#666666;" vertex="1" parent="-DyAFSA5t7pBOdUeeStO-16">
          <mxGeometry x="440" y="80" width="80" height="40" as="geometry" />
        </mxCell>
        <mxCell id="-DyAFSA5t7pBOdUeeStO-12" value="Input Data 1" style="rounded=0;whiteSpace=wrap;html=1;fillColor=#f5f5f5;fontColor=#333333;strokeColor=#666666;" vertex="1" parent="-DyAFSA5t7pBOdUeeStO-16">
          <mxGeometry x="440" y="160" width="80" height="40" as="geometry" />
        </mxCell>
        <mxCell id="-DyAFSA5t7pBOdUeeStO-13" value="❌ Output 2" style="rounded=0;whiteSpace=wrap;html=1;fillColor=#f5f5f5;fontColor=#333333;strokeColor=#666666;" vertex="1" parent="-DyAFSA5t7pBOdUeeStO-16">
          <mxGeometry x="440" y="160" width="80" height="40" as="geometry" />
        </mxCell>
        <mxCell id="-DyAFSA5t7pBOdUeeStO-14" value="✅ Output 3" style="rounded=0;whiteSpace=wrap;html=1;fillColor=#f5f5f5;fontColor=#333333;strokeColor=#666666;" vertex="1" parent="-DyAFSA5t7pBOdUeeStO-16">
          <mxGeometry x="440" y="240" width="80" height="40" as="geometry" />
        </mxCell>
        <mxCell id="-DyAFSA5t7pBOdUeeStO-15" value="Prompt" style="rounded=0;whiteSpace=wrap;html=1;fillColor=#f5f5f5;fontColor=#333333;strokeColor=#666666;" vertex="1" parent="-DyAFSA5t7pBOdUeeStO-16">
          <mxGeometry x="160" y="160" width="80" height="40" as="geometry" />
        </mxCell>
      </root>
    </mxGraphModel>
  </diagram>
  <diagram name="Enterprise Prompt Engineering Platform" id="-rC5TvCLK6JtO64K5DMg">
    <mxGraphModel dx="1893" dy="1013" grid="1" gridSize="10" guides="1" tooltips="1" connect="1" arrows="1" fold="1" page="1" pageScale="1" pageWidth="850" pageHeight="1100" math="0" shadow="0">
      <root>
        <mxCell id="0" />
        <mxCell id="1" parent="0" />
        <mxCell id="jwU8vVAWry_FctNW7dV3-6" value="GenAI-powered Application" style="rounded=0;whiteSpace=wrap;html=1;fillColor=none;dashed=1;verticalAlign=top;" parent="1" vertex="1">
          <mxGeometry x="280" y="920" width="360" height="560" as="geometry" />
        </mxCell>
        <mxCell id="wC7CTKYMTSl7EnjuRMSY-1" style="edgeStyle=orthogonalEdgeStyle;rounded=0;orthogonalLoop=1;jettySize=auto;html=1;exitX=1;exitY=0.5;exitDx=0;exitDy=0;entryX=0;entryY=0.5;entryDx=0;entryDy=0;" parent="1" source="2HfOJfeTY0YNf2LpHYPb-9" target="2HfOJfeTY0YNf2LpHYPb-10" edge="1">
          <mxGeometry relative="1" as="geometry" />
        </mxCell>
        <mxCell id="2HfOJfeTY0YNf2LpHYPb-9" value="📝 Compose" style="rounded=0;whiteSpace=wrap;html=1;" parent="1" vertex="1">
          <mxGeometry x="120" y="240" width="80" height="80" as="geometry" />
        </mxCell>
        <mxCell id="2HfOJfeTY0YNf2LpHYPb-20" value="Prompt IDE" style="swimlane;whiteSpace=wrap;html=1;" parent="1" vertex="1">
          <mxGeometry x="40" y="160" width="720" height="240" as="geometry" />
        </mxCell>
        <mxCell id="wC7CTKYMTSl7EnjuRMSY-2" style="edgeStyle=orthogonalEdgeStyle;rounded=0;orthogonalLoop=1;jettySize=auto;html=1;exitX=1;exitY=0.5;exitDx=0;exitDy=0;entryX=0;entryY=0.5;entryDx=0;entryDy=0;" parent="2HfOJfeTY0YNf2LpHYPb-20" source="2HfOJfeTY0YNf2LpHYPb-10" target="2HfOJfeTY0YNf2LpHYPb-12" edge="1">
          <mxGeometry relative="1" as="geometry" />
        </mxCell>
        <mxCell id="2HfOJfeTY0YNf2LpHYPb-10" value="🧪 Test" style="rounded=0;whiteSpace=wrap;html=1;" parent="2HfOJfeTY0YNf2LpHYPb-20" vertex="1">
          <mxGeometry x="240" y="80" width="80" height="80" as="geometry" />
        </mxCell>
        <mxCell id="wC7CTKYMTSl7EnjuRMSY-3" style="edgeStyle=orthogonalEdgeStyle;rounded=0;orthogonalLoop=1;jettySize=auto;html=1;exitX=1;exitY=0.5;exitDx=0;exitDy=0;entryX=0;entryY=0.5;entryDx=0;entryDy=0;" parent="2HfOJfeTY0YNf2LpHYPb-20" source="2HfOJfeTY0YNf2LpHYPb-12" target="2HfOJfeTY0YNf2LpHYPb-13" edge="1">
          <mxGeometry relative="1" as="geometry" />
        </mxCell>
        <mxCell id="2HfOJfeTY0YNf2LpHYPb-12" value="💾 Save" style="rounded=0;whiteSpace=wrap;html=1;" parent="2HfOJfeTY0YNf2LpHYPb-20" vertex="1">
          <mxGeometry x="400" y="80" width="80" height="80" as="geometry" />
        </mxCell>
        <mxCell id="2HfOJfeTY0YNf2LpHYPb-13" value="📊 Evaluate" style="rounded=0;whiteSpace=wrap;html=1;" parent="2HfOJfeTY0YNf2LpHYPb-20" vertex="1">
          <mxGeometry x="560" y="80" width="80" height="80" as="geometry" />
        </mxCell>
        <mxCell id="2HfOJfeTY0YNf2LpHYPb-21" value="Prompt Usage - by Human" style="swimlane;whiteSpace=wrap;html=1;" parent="1" vertex="1">
          <mxGeometry x="40" y="440" width="720" height="360" as="geometry" />
        </mxCell>
        <mxCell id="2HfOJfeTY0YNf2LpHYPb-14" value="🔍&amp;nbsp;Search" style="rounded=0;whiteSpace=wrap;html=1;" parent="2HfOJfeTY0YNf2LpHYPb-21" vertex="1">
          <mxGeometry x="240" y="120" width="80" height="80" as="geometry" />
        </mxCell>
        <mxCell id="2HfOJfeTY0YNf2LpHYPb-24" value="🔍 by Hierarchy" style="rounded=0;whiteSpace=wrap;html=1;" parent="2HfOJfeTY0YNf2LpHYPb-21" vertex="1">
          <mxGeometry x="200" y="220" width="160" height="20" as="geometry" />
        </mxCell>
        <mxCell id="2HfOJfeTY0YNf2LpHYPb-25" value="🔍 by Key Value" style="rounded=0;whiteSpace=wrap;html=1;" parent="2HfOJfeTY0YNf2LpHYPb-21" vertex="1">
          <mxGeometry x="200" y="250" width="160" height="20" as="geometry" />
        </mxCell>
        <mxCell id="2HfOJfeTY0YNf2LpHYPb-26" value="🔍 by Full Text Search" style="rounded=0;whiteSpace=wrap;html=1;" parent="2HfOJfeTY0YNf2LpHYPb-21" vertex="1">
          <mxGeometry x="200" y="280" width="160" height="20" as="geometry" />
        </mxCell>
        <mxCell id="2cTwgwLmAkeBwB89vRfW-2" style="edgeStyle=orthogonalEdgeStyle;rounded=0;orthogonalLoop=1;jettySize=auto;html=1;entryX=0;entryY=0.5;entryDx=0;entryDy=0;" parent="2HfOJfeTY0YNf2LpHYPb-21" source="2cTwgwLmAkeBwB89vRfW-1" target="2HfOJfeTY0YNf2LpHYPb-14" edge="1">
          <mxGeometry relative="1" as="geometry" />
        </mxCell>
        <mxCell id="2cTwgwLmAkeBwB89vRfW-1" value="User" style="html=1;verticalLabelPosition=bottom;align=center;labelBackgroundColor=#ffffff;verticalAlign=top;strokeWidth=2;strokeColor=#0080F0;shadow=0;dashed=0;shape=mxgraph.ios7.icons.user;" parent="2HfOJfeTY0YNf2LpHYPb-21" vertex="1">
          <mxGeometry x="80" y="120" width="80" height="80" as="geometry" />
        </mxCell>
        <mxCell id="2cTwgwLmAkeBwB89vRfW-7" style="edgeStyle=orthogonalEdgeStyle;rounded=0;orthogonalLoop=1;jettySize=auto;html=1;exitX=1;exitY=0.5;exitDx=0;exitDy=0;exitPerimeter=0;" parent="2HfOJfeTY0YNf2LpHYPb-21" source="2cTwgwLmAkeBwB89vRfW-5" target="2cTwgwLmAkeBwB89vRfW-4" edge="1">
          <mxGeometry relative="1" as="geometry" />
        </mxCell>
        <mxCell id="2cTwgwLmAkeBwB89vRfW-5" value="Foundation Model&lt;br&gt;Proxy" style="sketch=0;points=[[0,0,0],[0.25,0,0],[0.5,0,0],[0.75,0,0],[1,0,0],[0,1,0],[0.25,1,0],[0.5,1,0],[0.75,1,0],[1,1,0],[0,0.25,0],[0,0.5,0],[0,0.75,0],[1,0.25,0],[1,0.5,0],[1,0.75,0]];outlineConnect=0;fontColor=#232F3E;fillColor=#E7157B;strokeColor=#ffffff;dashed=0;verticalLabelPosition=bottom;verticalAlign=top;align=center;html=1;fontSize=12;fontStyle=0;aspect=fixed;shape=mxgraph.aws4.resourceIcon;resIcon=mxgraph.aws4.api_gateway;" parent="2HfOJfeTY0YNf2LpHYPb-21" vertex="1">
          <mxGeometry x="400" y="120" width="80" height="80" as="geometry" />
        </mxCell>
        <mxCell id="2cTwgwLmAkeBwB89vRfW-4" value="GenAI Model" style="sketch=0;outlineConnect=0;fontColor=#232F3E;gradientColor=none;fillColor=#01A88D;strokeColor=none;dashed=0;verticalLabelPosition=bottom;verticalAlign=top;align=center;html=1;fontSize=12;fontStyle=0;aspect=fixed;pointerEvents=1;shape=mxgraph.aws4.sagemaker_model;" parent="2HfOJfeTY0YNf2LpHYPb-21" vertex="1">
          <mxGeometry x="560" y="120" width="80" height="80" as="geometry" />
        </mxCell>
        <mxCell id="2cTwgwLmAkeBwB89vRfW-6" style="edgeStyle=orthogonalEdgeStyle;rounded=0;orthogonalLoop=1;jettySize=auto;html=1;exitX=1;exitY=0.5;exitDx=0;exitDy=0;entryX=0;entryY=0.5;entryDx=0;entryDy=0;entryPerimeter=0;" parent="2HfOJfeTY0YNf2LpHYPb-21" source="2HfOJfeTY0YNf2LpHYPb-14" target="2cTwgwLmAkeBwB89vRfW-5" edge="1">
          <mxGeometry relative="1" as="geometry" />
        </mxCell>
        <mxCell id="2HfOJfeTY0YNf2LpHYPb-22" value="Prompt Usage - by Machine" style="swimlane;whiteSpace=wrap;html=1;" parent="1" vertex="1">
          <mxGeometry x="40" y="840" width="720" height="680" as="geometry" />
        </mxCell>
        <mxCell id="jwU8vVAWry_FctNW7dV3-4" value="User" style="html=1;verticalLabelPosition=bottom;align=center;labelBackgroundColor=#ffffff;verticalAlign=top;strokeWidth=2;strokeColor=#0080F0;shadow=0;dashed=0;shape=mxgraph.ios7.icons.user;" parent="2HfOJfeTY0YNf2LpHYPb-22" vertex="1">
          <mxGeometry x="80" y="320" width="80" height="80" as="geometry" />
        </mxCell>
        <mxCell id="2cTwgwLmAkeBwB89vRfW-8" value="🤖 Agent" style="rounded=0;whiteSpace=wrap;html=1;fontStyle=1" parent="2HfOJfeTY0YNf2LpHYPb-22" vertex="1">
          <mxGeometry x="320" y="320" width="80" height="80" as="geometry" />
        </mxCell>
        <mxCell id="2HfOJfeTY0YNf2LpHYPb-27" value="&lt;h1&gt;Links&lt;/h1&gt;&lt;div&gt;&lt;ul&gt;&lt;li&gt;&lt;a href=&quot;https://github.com/comet-ml/comet-llm&quot;&gt;Comet LLM&lt;/a&gt;:&amp;nbsp;CometLLM is a tool to log and visualize your LLM prompts and chains. Use CometLLM to identify effective prompt strategies, streamline your troubleshooting, and ensure reproducible workflows!&lt;/li&gt;&lt;li&gt;&lt;a href=&quot;https://github.com/promptslab/Promptify&quot;&gt;Promptify&lt;/a&gt;: Prompt Engineering, Solve NLP Problems with LLM&#39;s &amp;amp; Easily generate different NLP Task prompts for popular generative models like GPT, PaLM, and more with Promptify.&lt;br&gt;&lt;/li&gt;&lt;li&gt;&lt;a href=&quot;https://promptmetheus.com/&quot;&gt;Promptmetheus&lt;/a&gt;: Compose reliable prompts for LLM applications and supercharge your workflows with generative AI.&lt;br&gt;&lt;/li&gt;&lt;li&gt;&lt;a href=&quot;https://www.promptingguide.ai/&quot;&gt;PromptingGuide&lt;/a&gt;: Learn prompt engineering.&lt;br&gt;&lt;/li&gt;&lt;/ul&gt;&lt;/div&gt;" style="text;html=1;spacing=5;spacingTop=-20;whiteSpace=wrap;overflow=hidden;rounded=0;strokeColor=default;" parent="1" vertex="1">
          <mxGeometry x="40" y="1560" width="480" height="240" as="geometry" />
        </mxCell>
        <mxCell id="2cTwgwLmAkeBwB89vRfW-13" value="💡 Prompt" style="rounded=0;whiteSpace=wrap;html=1;" parent="1" vertex="1">
          <mxGeometry x="520" y="960" width="80" height="80" as="geometry" />
        </mxCell>
        <mxCell id="jwU8vVAWry_FctNW7dV3-1" value="Knowledge Base" style="sketch=0;outlineConnect=0;fontColor=#232F3E;gradientColor=none;fillColor=#8C4FFF;strokeColor=none;dashed=0;verticalLabelPosition=bottom;verticalAlign=top;align=center;html=1;fontSize=12;fontStyle=0;aspect=fixed;pointerEvents=1;shape=mxgraph.aws4.opensearch_service_index;" parent="1" vertex="1">
          <mxGeometry x="520" y="1080" width="78" height="78" as="geometry" />
        </mxCell>
        <mxCell id="jwU8vVAWry_FctNW7dV3-2" value="Action" style="sketch=0;points=[[0,0,0],[0.25,0,0],[0.5,0,0],[0.75,0,0],[1,0,0],[0,1,0],[0.25,1,0],[0.5,1,0],[0.75,1,0],[1,1,0],[0,0.25,0],[0,0.5,0],[0,0.75,0],[1,0.25,0],[1,0.5,0],[1,0.75,0]];outlineConnect=0;fontColor=#232F3E;fillColor=#ED7100;strokeColor=#ffffff;dashed=0;verticalLabelPosition=bottom;verticalAlign=top;align=center;html=1;fontSize=12;fontStyle=0;aspect=fixed;shape=mxgraph.aws4.resourceIcon;resIcon=mxgraph.aws4.lambda;" parent="1" vertex="1">
          <mxGeometry x="520" y="1360" width="80" height="80" as="geometry" />
        </mxCell>
        <mxCell id="jwU8vVAWry_FctNW7dV3-3" value="Complicated&lt;br&gt;Workflow" style="sketch=0;points=[[0,0,0],[0.25,0,0],[0.5,0,0],[0.75,0,0],[1,0,0],[0,1,0],[0.25,1,0],[0.5,1,0],[0.75,1,0],[1,1,0],[0,0.25,0],[0,0.5,0],[0,0.75,0],[1,0.25,0],[1,0.5,0],[1,0.75,0]];outlineConnect=0;fontColor=#232F3E;fillColor=#E7157B;strokeColor=#ffffff;dashed=0;verticalLabelPosition=bottom;verticalAlign=top;align=center;html=1;fontSize=12;fontStyle=0;aspect=fixed;shape=mxgraph.aws4.resourceIcon;resIcon=mxgraph.aws4.step_functions;" parent="1" vertex="1">
          <mxGeometry x="520" y="1200" width="80" height="80" as="geometry" />
        </mxCell>
        <mxCell id="dkoUTRKbqcKPzciZccwi-1" value="&lt;b&gt;Enterprise Prompt Engineering Platform&lt;/b&gt;" style="text;html=1;align=center;verticalAlign=middle;whiteSpace=wrap;rounded=0;fillColor=#f5f5f5;fontColor=#333333;strokeColor=#666666;" parent="1" vertex="1">
          <mxGeometry x="40" y="40" width="720" height="40" as="geometry" />
        </mxCell>
        <mxCell id="dkoUTRKbqcKPzciZccwi-3" style="edgeStyle=orthogonalEdgeStyle;rounded=0;orthogonalLoop=1;jettySize=auto;html=1;entryX=0;entryY=0.5;entryDx=0;entryDy=0;" parent="1" source="jwU8vVAWry_FctNW7dV3-4" target="jwU8vVAWry_FctNW7dV3-6" edge="1">
          <mxGeometry relative="1" as="geometry" />
        </mxCell>
      </root>
    </mxGraphModel>
  </diagram>
  <diagram id="AkDcPC2_hebNAtHHPSSw" name="Sample Prompt IDE">
    <mxGraphModel dx="979" dy="524" grid="1" gridSize="10" guides="1" tooltips="1" connect="1" arrows="1" fold="1" page="1" pageScale="1" pageWidth="850" pageHeight="1100" math="0" shadow="0">
      <root>
        <mxCell id="0" />
        <mxCell id="1" parent="0" />
        <mxCell id="lCshdplJXtsAIT2uv_S6-82" value="" style="rounded=0;whiteSpace=wrap;html=1;strokeColor=default;fillColor=none;dashed=1;strokeWidth=1;" vertex="1" parent="1">
          <mxGeometry x="70" y="830" width="380" height="110" as="geometry" />
        </mxCell>
        <mxCell id="lCshdplJXtsAIT2uv_S6-83" value="" style="rounded=0;whiteSpace=wrap;html=1;strokeColor=default;fillColor=none;dashed=1;strokeWidth=1;" vertex="1" parent="1">
          <mxGeometry x="55" y="810" width="415" height="320" as="geometry" />
        </mxCell>
        <mxCell id="lCshdplJXtsAIT2uv_S6-60" value="" style="rounded=0;whiteSpace=wrap;html=1;strokeColor=default;fillColor=none;dashed=1;strokeWidth=1;" vertex="1" parent="1">
          <mxGeometry x="70" y="490" width="380" height="110" as="geometry" />
        </mxCell>
        <mxCell id="lCshdplJXtsAIT2uv_S6-61" value="" style="rounded=0;whiteSpace=wrap;html=1;strokeColor=default;fillColor=none;dashed=1;strokeWidth=1;" vertex="1" parent="1">
          <mxGeometry x="55" y="470" width="415" height="320" as="geometry" />
        </mxCell>
        <mxCell id="lCshdplJXtsAIT2uv_S6-36" value="" style="rounded=0;whiteSpace=wrap;html=1;strokeColor=default;fillColor=none;dashed=1;strokeWidth=1;" vertex="1" parent="1">
          <mxGeometry x="70" y="150" width="380" height="110" as="geometry" />
        </mxCell>
        <mxCell id="lCshdplJXtsAIT2uv_S6-37" value="" style="rounded=0;whiteSpace=wrap;html=1;strokeColor=default;fillColor=none;dashed=1;strokeWidth=1;" vertex="1" parent="1">
          <mxGeometry x="55" y="130" width="415" height="320" as="geometry" />
        </mxCell>
        <mxCell id="GcLsJjpm2GWM1dKX-KmV-23" value="Fold Button" style="rounded=1;html=1;shadow=0;dashed=0;whiteSpace=wrap;fontSize=6;fillColor=#E6E6E6;align=center;strokeColor=#B3B3B3;fontColor=#333333;" vertex="1" parent="1">
          <mxGeometry x="300" y="1360" width="20" height="20" as="geometry" />
        </mxCell>
        <mxCell id="GcLsJjpm2GWM1dKX-KmV-24" value="n prompts" style="rounded=1;html=1;shadow=0;dashed=0;whiteSpace=wrap;fontSize=6;fillColor=#E6E6E6;align=center;strokeColor=#B3B3B3;fontColor=#333333;" vertex="1" parent="1">
          <mxGeometry x="250" y="1360" width="40" height="20" as="geometry" />
        </mxCell>
        <mxCell id="GcLsJjpm2GWM1dKX-KmV-26" value="Info" style="rounded=1;html=1;shadow=0;dashed=0;whiteSpace=wrap;fontSize=6;fillColor=#E6E6E6;align=center;strokeColor=#B3B3B3;fontColor=#333333;" vertex="1" parent="1">
          <mxGeometry x="280" y="1390" width="40" height="20" as="geometry" />
        </mxCell>
        <mxCell id="GcLsJjpm2GWM1dKX-KmV-29" value="Group 1" style="strokeWidth=1;html=1;shadow=0;dashed=0;shape=mxgraph.ios.iTextInput;strokeColor=#444444;buttonText=;fontSize=8;whiteSpace=wrap;align=center;" vertex="1" parent="1">
          <mxGeometry x="80" y="1360" width="160" height="20" as="geometry" />
        </mxCell>
        <mxCell id="GcLsJjpm2GWM1dKX-KmV-30" value="Prompt 1" style="strokeWidth=1;html=1;shadow=0;dashed=0;shape=mxgraph.ios.iTextInput;strokeColor=#444444;buttonText=;fontSize=8;whiteSpace=wrap;align=center;" vertex="1" parent="1">
          <mxGeometry x="130" y="1390" width="140" height="20" as="geometry" />
        </mxCell>
        <mxCell id="GcLsJjpm2GWM1dKX-KmV-31" value="Info" style="rounded=1;html=1;shadow=0;dashed=0;whiteSpace=wrap;fontSize=6;fillColor=#E6E6E6;align=center;strokeColor=#B3B3B3;fontColor=#333333;" vertex="1" parent="1">
          <mxGeometry x="280" y="1420" width="40" height="20" as="geometry" />
        </mxCell>
        <mxCell id="GcLsJjpm2GWM1dKX-KmV-32" value="Prompt 2" style="strokeWidth=1;html=1;shadow=0;dashed=0;shape=mxgraph.ios.iTextInput;strokeColor=#444444;buttonText=;fontSize=8;whiteSpace=wrap;align=center;" vertex="1" parent="1">
          <mxGeometry x="130" y="1420" width="140" height="20" as="geometry" />
        </mxCell>
        <mxCell id="GcLsJjpm2GWM1dKX-KmV-33" value="Info" style="rounded=1;html=1;shadow=0;dashed=0;whiteSpace=wrap;fontSize=6;fillColor=#E6E6E6;align=center;strokeColor=#B3B3B3;fontColor=#333333;" vertex="1" parent="1">
          <mxGeometry x="280" y="1450" width="40" height="20" as="geometry" />
        </mxCell>
        <mxCell id="GcLsJjpm2GWM1dKX-KmV-34" value="Prompt 3" style="strokeWidth=1;html=1;shadow=0;dashed=0;shape=mxgraph.ios.iTextInput;strokeColor=#444444;buttonText=;fontSize=8;whiteSpace=wrap;align=center;" vertex="1" parent="1">
          <mxGeometry x="130" y="1450" width="140" height="20" as="geometry" />
        </mxCell>
        <mxCell id="GcLsJjpm2GWM1dKX-KmV-36" value="" style="verticalLabelPosition=bottom;shadow=0;dashed=0;align=center;html=1;verticalAlign=top;shape=mxgraph.electrical.transmission.3_line_bus;" vertex="1" parent="1">
          <mxGeometry x="100" y="1390" width="20" height="20" as="geometry" />
        </mxCell>
        <mxCell id="GcLsJjpm2GWM1dKX-KmV-37" value="" style="verticalLabelPosition=bottom;shadow=0;dashed=0;align=center;html=1;verticalAlign=top;shape=mxgraph.electrical.transmission.3_line_bus;" vertex="1" parent="1">
          <mxGeometry x="100" y="1420" width="20" height="20" as="geometry" />
        </mxCell>
        <mxCell id="GcLsJjpm2GWM1dKX-KmV-38" value="" style="verticalLabelPosition=bottom;shadow=0;dashed=0;align=center;html=1;verticalAlign=top;shape=mxgraph.electrical.transmission.3_line_bus;" vertex="1" parent="1">
          <mxGeometry x="100" y="1450" width="20" height="20" as="geometry" />
        </mxCell>
        <mxCell id="GcLsJjpm2GWM1dKX-KmV-39" value="Fold Button" style="rounded=1;html=1;shadow=0;dashed=0;whiteSpace=wrap;fontSize=6;fillColor=#E6E6E6;align=center;strokeColor=#B3B3B3;fontColor=#333333;" vertex="1" parent="1">
          <mxGeometry x="300" y="1480" width="20" height="20" as="geometry" />
        </mxCell>
        <mxCell id="GcLsJjpm2GWM1dKX-KmV-40" value="n prompts" style="rounded=1;html=1;shadow=0;dashed=0;whiteSpace=wrap;fontSize=6;fillColor=#E6E6E6;align=center;strokeColor=#B3B3B3;fontColor=#333333;" vertex="1" parent="1">
          <mxGeometry x="250" y="1480" width="40" height="20" as="geometry" />
        </mxCell>
        <mxCell id="GcLsJjpm2GWM1dKX-KmV-41" value="Info" style="rounded=1;html=1;shadow=0;dashed=0;whiteSpace=wrap;fontSize=6;fillColor=#E6E6E6;align=center;strokeColor=#B3B3B3;fontColor=#333333;" vertex="1" parent="1">
          <mxGeometry x="280" y="1510" width="40" height="20" as="geometry" />
        </mxCell>
        <mxCell id="GcLsJjpm2GWM1dKX-KmV-42" value="Group 2" style="strokeWidth=1;html=1;shadow=0;dashed=0;shape=mxgraph.ios.iTextInput;strokeColor=#444444;buttonText=;fontSize=8;whiteSpace=wrap;align=center;" vertex="1" parent="1">
          <mxGeometry x="80" y="1480" width="160" height="20" as="geometry" />
        </mxCell>
        <mxCell id="GcLsJjpm2GWM1dKX-KmV-43" value="Prompt 4" style="strokeWidth=1;html=1;shadow=0;dashed=0;shape=mxgraph.ios.iTextInput;strokeColor=#444444;buttonText=;fontSize=8;whiteSpace=wrap;align=center;" vertex="1" parent="1">
          <mxGeometry x="130" y="1510" width="140" height="20" as="geometry" />
        </mxCell>
        <mxCell id="GcLsJjpm2GWM1dKX-KmV-44" value="Info" style="rounded=1;html=1;shadow=0;dashed=0;whiteSpace=wrap;fontSize=6;fillColor=#E6E6E6;align=center;strokeColor=#B3B3B3;fontColor=#333333;" vertex="1" parent="1">
          <mxGeometry x="280" y="1540" width="40" height="20" as="geometry" />
        </mxCell>
        <mxCell id="GcLsJjpm2GWM1dKX-KmV-45" value="Prompt 5" style="strokeWidth=1;html=1;shadow=0;dashed=0;shape=mxgraph.ios.iTextInput;strokeColor=#444444;buttonText=;fontSize=8;whiteSpace=wrap;align=center;" vertex="1" parent="1">
          <mxGeometry x="130" y="1540" width="140" height="20" as="geometry" />
        </mxCell>
        <mxCell id="GcLsJjpm2GWM1dKX-KmV-46" value="Info" style="rounded=1;html=1;shadow=0;dashed=0;whiteSpace=wrap;fontSize=6;fillColor=#E6E6E6;align=center;strokeColor=#B3B3B3;fontColor=#333333;" vertex="1" parent="1">
          <mxGeometry x="280" y="1570" width="40" height="20" as="geometry" />
        </mxCell>
        <mxCell id="GcLsJjpm2GWM1dKX-KmV-47" value="Prompt 6" style="strokeWidth=1;html=1;shadow=0;dashed=0;shape=mxgraph.ios.iTextInput;strokeColor=#444444;buttonText=;fontSize=8;whiteSpace=wrap;align=center;" vertex="1" parent="1">
          <mxGeometry x="130" y="1570" width="140" height="20" as="geometry" />
        </mxCell>
        <mxCell id="GcLsJjpm2GWM1dKX-KmV-48" value="" style="verticalLabelPosition=bottom;shadow=0;dashed=0;align=center;html=1;verticalAlign=top;shape=mxgraph.electrical.transmission.3_line_bus;" vertex="1" parent="1">
          <mxGeometry x="100" y="1510" width="20" height="20" as="geometry" />
        </mxCell>
        <mxCell id="GcLsJjpm2GWM1dKX-KmV-49" value="" style="verticalLabelPosition=bottom;shadow=0;dashed=0;align=center;html=1;verticalAlign=top;shape=mxgraph.electrical.transmission.3_line_bus;" vertex="1" parent="1">
          <mxGeometry x="100" y="1540" width="20" height="20" as="geometry" />
        </mxCell>
        <mxCell id="GcLsJjpm2GWM1dKX-KmV-50" value="" style="verticalLabelPosition=bottom;shadow=0;dashed=0;align=center;html=1;verticalAlign=top;shape=mxgraph.electrical.transmission.3_line_bus;" vertex="1" parent="1">
          <mxGeometry x="100" y="1570" width="20" height="20" as="geometry" />
        </mxCell>
        <mxCell id="lCshdplJXtsAIT2uv_S6-1" value="Search &lt;b&gt;Choice&lt;/b&gt;" style="rounded=1;html=1;shadow=0;dashed=0;whiteSpace=wrap;fontSize=6;fillColor=#E6E6E6;align=center;strokeColor=#B3B3B3;fontColor=#333333;" vertex="1" parent="1">
          <mxGeometry x="80" y="280" width="80" height="20" as="geometry" />
        </mxCell>
        <mxCell id="lCshdplJXtsAIT2uv_S6-2" value="query ..." style="strokeWidth=1;html=1;shadow=0;dashed=0;shape=mxgraph.ios.iTextInput;strokeColor=#444444;buttonText=;fontSize=8;whiteSpace=wrap;align=center;" vertex="1" parent="1">
          <mxGeometry x="160" y="280" width="280" height="20" as="geometry" />
        </mxCell>
        <mxCell id="lCshdplJXtsAIT2uv_S6-9" value="choice 1 name" style="strokeWidth=1;html=1;shadow=0;dashed=0;shape=mxgraph.ios.iTextInput;strokeColor=#444444;buttonText=;fontSize=8;whiteSpace=wrap;align=center;" vertex="1" parent="1">
          <mxGeometry x="90" y="320" width="160" height="20" as="geometry" />
        </mxCell>
        <mxCell id="lCshdplJXtsAIT2uv_S6-10" value="choice 2 name" style="strokeWidth=1;html=1;shadow=0;dashed=0;shape=mxgraph.ios.iTextInput;strokeColor=#444444;buttonText=;fontSize=8;whiteSpace=wrap;align=center;" vertex="1" parent="1">
          <mxGeometry x="90" y="340" width="160" height="20" as="geometry" />
        </mxCell>
        <mxCell id="lCshdplJXtsAIT2uv_S6-11" value="choice 3 name" style="strokeWidth=1;html=1;shadow=0;dashed=0;shape=mxgraph.ios.iTextInput;strokeColor=#444444;buttonText=;fontSize=8;whiteSpace=wrap;align=center;" vertex="1" parent="1">
          <mxGeometry x="90" y="360" width="160" height="20" as="geometry" />
        </mxCell>
        <mxCell id="lCshdplJXtsAIT2uv_S6-12" value="choice 4 name" style="strokeWidth=1;html=1;shadow=0;dashed=0;shape=mxgraph.ios.iTextInput;strokeColor=#444444;buttonText=;fontSize=8;whiteSpace=wrap;align=center;" vertex="1" parent="1">
          <mxGeometry x="90" y="380" width="160" height="20" as="geometry" />
        </mxCell>
        <mxCell id="lCshdplJXtsAIT2uv_S6-13" value="choice 5 name" style="strokeWidth=1;html=1;shadow=0;dashed=0;shape=mxgraph.ios.iTextInput;strokeColor=#444444;buttonText=;fontSize=8;whiteSpace=wrap;align=center;" vertex="1" parent="1">
          <mxGeometry x="90" y="400" width="160" height="20" as="geometry" />
        </mxCell>
        <mxCell id="lCshdplJXtsAIT2uv_S6-17" value="Textarea&lt;br&gt;Show body of selected choice" style="rounded=1;html=1;shadow=0;dashed=0;whiteSpace=wrap;fontSize=6;fillColor=#E6E6E6;align=center;strokeColor=#B3B3B3;fontColor=#333333;" vertex="1" parent="1">
          <mxGeometry x="270" y="320" width="160" height="100" as="geometry" />
        </mxCell>
        <mxCell id="lCshdplJXtsAIT2uv_S6-18" value="Search &lt;b&gt;Element&lt;/b&gt;" style="rounded=1;html=1;shadow=0;dashed=0;whiteSpace=wrap;fontSize=6;fillColor=#E6E6E6;align=center;strokeColor=#B3B3B3;fontColor=#333333;" vertex="1" parent="1">
          <mxGeometry x="80" y="190" width="80" height="20" as="geometry" />
        </mxCell>
        <mxCell id="lCshdplJXtsAIT2uv_S6-19" value="query ..." style="strokeWidth=1;html=1;shadow=0;dashed=0;shape=mxgraph.ios.iTextInput;strokeColor=#444444;buttonText=;fontSize=8;whiteSpace=wrap;align=center;" vertex="1" parent="1">
          <mxGeometry x="160" y="190" width="280" height="20" as="geometry" />
        </mxCell>
        <mxCell id="lCshdplJXtsAIT2uv_S6-21" value="&lt;b&gt;Element 1&lt;/b&gt;" style="rounded=1;html=1;shadow=0;dashed=0;whiteSpace=wrap;fontSize=6;fillColor=#E6E6E6;align=center;strokeColor=#B3B3B3;fontColor=#333333;" vertex="1" parent="1">
          <mxGeometry x="80" y="160" width="360" height="20" as="geometry" />
        </mxCell>
        <mxCell id="lCshdplJXtsAIT2uv_S6-23" value="element 1" style="html=1;shadow=0;dashed=0;shape=mxgraph.bootstrap.radioButton2;labelPosition=right;verticalLabelPosition=middle;align=left;verticalAlign=middle;gradientColor=#DEDEDE;fillColor=#EDEDED;checked=0;spacing=5;checkedFill=#0085FC;checkedStroke=#ffffff;" vertex="1" parent="1">
          <mxGeometry x="105" y="220" width="10" height="10" as="geometry" />
        </mxCell>
        <mxCell id="lCshdplJXtsAIT2uv_S6-25" value="element 2" style="html=1;shadow=0;dashed=0;shape=mxgraph.bootstrap.radioButton2;labelPosition=right;verticalLabelPosition=middle;align=left;verticalAlign=middle;gradientColor=#DEDEDE;fillColor=#EDEDED;checked=0;spacing=5;checkedFill=#0085FC;checkedStroke=#ffffff;" vertex="1" parent="1">
          <mxGeometry x="185" y="220" width="10" height="10" as="geometry" />
        </mxCell>
        <mxCell id="lCshdplJXtsAIT2uv_S6-27" value="Textarea&lt;br&gt;Final Prompt" style="rounded=1;html=1;shadow=0;dashed=0;whiteSpace=wrap;fontSize=6;fillColor=#E6E6E6;align=center;strokeColor=#B3B3B3;fontColor=#333333;verticalAlign=top;" vertex="1" parent="1">
          <mxGeometry x="480" y="160" width="240" height="960" as="geometry" />
        </mxCell>
        <mxCell id="lCshdplJXtsAIT2uv_S6-28" value="element 3" style="html=1;shadow=0;dashed=0;shape=mxgraph.bootstrap.radioButton2;labelPosition=right;verticalLabelPosition=middle;align=left;verticalAlign=middle;gradientColor=#DEDEDE;fillColor=#EDEDED;checked=0;spacing=5;checkedFill=#0085FC;checkedStroke=#ffffff;" vertex="1" parent="1">
          <mxGeometry x="265" y="220" width="10" height="10" as="geometry" />
        </mxCell>
        <mxCell id="lCshdplJXtsAIT2uv_S6-29" value="element 4" style="html=1;shadow=0;dashed=0;shape=mxgraph.bootstrap.radioButton2;labelPosition=right;verticalLabelPosition=middle;align=left;verticalAlign=middle;gradientColor=#DEDEDE;fillColor=#EDEDED;checked=0;spacing=5;checkedFill=#0085FC;checkedStroke=#ffffff;" vertex="1" parent="1">
          <mxGeometry x="345" y="220" width="10" height="10" as="geometry" />
        </mxCell>
        <mxCell id="lCshdplJXtsAIT2uv_S6-30" value="element 5" style="html=1;shadow=0;dashed=0;shape=mxgraph.bootstrap.radioButton2;labelPosition=right;verticalLabelPosition=middle;align=left;verticalAlign=middle;gradientColor=#DEDEDE;fillColor=#EDEDED;checked=0;spacing=5;checkedFill=#0085FC;checkedStroke=#ffffff;" vertex="1" parent="1">
          <mxGeometry x="105" y="240" width="10" height="10" as="geometry" />
        </mxCell>
        <mxCell id="lCshdplJXtsAIT2uv_S6-31" value="element 6" style="html=1;shadow=0;dashed=0;shape=mxgraph.bootstrap.radioButton2;labelPosition=right;verticalLabelPosition=middle;align=left;verticalAlign=middle;gradientColor=#DEDEDE;fillColor=#EDEDED;checked=0;spacing=5;checkedFill=#0085FC;checkedStroke=#ffffff;" vertex="1" parent="1">
          <mxGeometry x="185" y="240" width="10" height="10" as="geometry" />
        </mxCell>
        <mxCell id="lCshdplJXtsAIT2uv_S6-32" value="element 7" style="html=1;shadow=0;dashed=0;shape=mxgraph.bootstrap.radioButton2;labelPosition=right;verticalLabelPosition=middle;align=left;verticalAlign=middle;gradientColor=#DEDEDE;fillColor=#EDEDED;checked=0;spacing=5;checkedFill=#0085FC;checkedStroke=#ffffff;" vertex="1" parent="1">
          <mxGeometry x="265" y="240" width="10" height="10" as="geometry" />
        </mxCell>
        <mxCell id="lCshdplJXtsAIT2uv_S6-33" value="element 8" style="html=1;shadow=0;dashed=0;shape=mxgraph.bootstrap.radioButton2;labelPosition=right;verticalLabelPosition=middle;align=left;verticalAlign=middle;gradientColor=#DEDEDE;fillColor=#EDEDED;checked=0;spacing=5;checkedFill=#0085FC;checkedStroke=#ffffff;" vertex="1" parent="1">
          <mxGeometry x="345" y="240" width="10" height="10" as="geometry" />
        </mxCell>
        <mxCell id="lCshdplJXtsAIT2uv_S6-35" value="" style="rounded=0;whiteSpace=wrap;html=1;strokeColor=default;fillColor=none;dashed=1;strokeWidth=1;" vertex="1" parent="1">
          <mxGeometry x="70" y="270" width="380" height="160" as="geometry" />
        </mxCell>
        <mxCell id="lCshdplJXtsAIT2uv_S6-38" value="Copy" style="labelPosition=center;verticalLabelPosition=middle;align=center;html=1;shape=mxgraph.basic.shaded_button;dx=1.21;fillColor=#E6E6E6;strokeColor=none;whiteSpace=wrap;" vertex="1" parent="1">
          <mxGeometry x="480" y="130" width="40" height="20" as="geometry" />
        </mxCell>
        <mxCell id="lCshdplJXtsAIT2uv_S6-39" value="Clear" style="labelPosition=center;verticalLabelPosition=middle;align=center;html=1;shape=mxgraph.basic.shaded_button;dx=1.21;fillColor=#E6E6E6;strokeColor=none;whiteSpace=wrap;" vertex="1" parent="1">
          <mxGeometry x="540" y="130" width="40" height="20" as="geometry" />
        </mxCell>
        <mxCell id="lCshdplJXtsAIT2uv_S6-40" value="Search &lt;b&gt;Choice&lt;/b&gt;" style="rounded=1;html=1;shadow=0;dashed=0;whiteSpace=wrap;fontSize=6;fillColor=#E6E6E6;align=center;strokeColor=#B3B3B3;fontColor=#333333;" vertex="1" parent="1">
          <mxGeometry x="80" y="620" width="80" height="20" as="geometry" />
        </mxCell>
        <mxCell id="lCshdplJXtsAIT2uv_S6-41" value="query ..." style="strokeWidth=1;html=1;shadow=0;dashed=0;shape=mxgraph.ios.iTextInput;strokeColor=#444444;buttonText=;fontSize=8;whiteSpace=wrap;align=center;" vertex="1" parent="1">
          <mxGeometry x="160" y="620" width="280" height="20" as="geometry" />
        </mxCell>
        <mxCell id="lCshdplJXtsAIT2uv_S6-42" value="choice 1 name" style="strokeWidth=1;html=1;shadow=0;dashed=0;shape=mxgraph.ios.iTextInput;strokeColor=#444444;buttonText=;fontSize=8;whiteSpace=wrap;align=center;" vertex="1" parent="1">
          <mxGeometry x="90" y="660" width="160" height="20" as="geometry" />
        </mxCell>
        <mxCell id="lCshdplJXtsAIT2uv_S6-43" value="choice 2 name" style="strokeWidth=1;html=1;shadow=0;dashed=0;shape=mxgraph.ios.iTextInput;strokeColor=#444444;buttonText=;fontSize=8;whiteSpace=wrap;align=center;" vertex="1" parent="1">
          <mxGeometry x="90" y="680" width="160" height="20" as="geometry" />
        </mxCell>
        <mxCell id="lCshdplJXtsAIT2uv_S6-44" value="choice 3 name" style="strokeWidth=1;html=1;shadow=0;dashed=0;shape=mxgraph.ios.iTextInput;strokeColor=#444444;buttonText=;fontSize=8;whiteSpace=wrap;align=center;" vertex="1" parent="1">
          <mxGeometry x="90" y="700" width="160" height="20" as="geometry" />
        </mxCell>
        <mxCell id="lCshdplJXtsAIT2uv_S6-45" value="choice 4 name" style="strokeWidth=1;html=1;shadow=0;dashed=0;shape=mxgraph.ios.iTextInput;strokeColor=#444444;buttonText=;fontSize=8;whiteSpace=wrap;align=center;" vertex="1" parent="1">
          <mxGeometry x="90" y="720" width="160" height="20" as="geometry" />
        </mxCell>
        <mxCell id="lCshdplJXtsAIT2uv_S6-46" value="choice 5 name" style="strokeWidth=1;html=1;shadow=0;dashed=0;shape=mxgraph.ios.iTextInput;strokeColor=#444444;buttonText=;fontSize=8;whiteSpace=wrap;align=center;" vertex="1" parent="1">
          <mxGeometry x="90" y="740" width="160" height="20" as="geometry" />
        </mxCell>
        <mxCell id="lCshdplJXtsAIT2uv_S6-47" value="Textarea&lt;br&gt;Show body of selected choice" style="rounded=1;html=1;shadow=0;dashed=0;whiteSpace=wrap;fontSize=6;fillColor=#E6E6E6;align=center;strokeColor=#B3B3B3;fontColor=#333333;" vertex="1" parent="1">
          <mxGeometry x="270" y="660" width="160" height="100" as="geometry" />
        </mxCell>
        <mxCell id="lCshdplJXtsAIT2uv_S6-48" value="Search &lt;b&gt;Element&lt;/b&gt;" style="rounded=1;html=1;shadow=0;dashed=0;whiteSpace=wrap;fontSize=6;fillColor=#E6E6E6;align=center;strokeColor=#B3B3B3;fontColor=#333333;" vertex="1" parent="1">
          <mxGeometry x="80" y="530" width="80" height="20" as="geometry" />
        </mxCell>
        <mxCell id="lCshdplJXtsAIT2uv_S6-49" value="query ..." style="strokeWidth=1;html=1;shadow=0;dashed=0;shape=mxgraph.ios.iTextInput;strokeColor=#444444;buttonText=;fontSize=8;whiteSpace=wrap;align=center;" vertex="1" parent="1">
          <mxGeometry x="160" y="530" width="280" height="20" as="geometry" />
        </mxCell>
        <mxCell id="lCshdplJXtsAIT2uv_S6-50" value="&lt;b&gt;Element 2&lt;/b&gt;" style="rounded=1;html=1;shadow=0;dashed=0;whiteSpace=wrap;fontSize=6;fillColor=#E6E6E6;align=center;strokeColor=#B3B3B3;fontColor=#333333;" vertex="1" parent="1">
          <mxGeometry x="80" y="500" width="360" height="20" as="geometry" />
        </mxCell>
        <mxCell id="lCshdplJXtsAIT2uv_S6-51" value="element 1" style="html=1;shadow=0;dashed=0;shape=mxgraph.bootstrap.radioButton2;labelPosition=right;verticalLabelPosition=middle;align=left;verticalAlign=middle;gradientColor=#DEDEDE;fillColor=#EDEDED;checked=0;spacing=5;checkedFill=#0085FC;checkedStroke=#ffffff;" vertex="1" parent="1">
          <mxGeometry x="105" y="560" width="10" height="10" as="geometry" />
        </mxCell>
        <mxCell id="lCshdplJXtsAIT2uv_S6-52" value="element 2" style="html=1;shadow=0;dashed=0;shape=mxgraph.bootstrap.radioButton2;labelPosition=right;verticalLabelPosition=middle;align=left;verticalAlign=middle;gradientColor=#DEDEDE;fillColor=#EDEDED;checked=0;spacing=5;checkedFill=#0085FC;checkedStroke=#ffffff;" vertex="1" parent="1">
          <mxGeometry x="185" y="560" width="10" height="10" as="geometry" />
        </mxCell>
        <mxCell id="lCshdplJXtsAIT2uv_S6-53" value="element 3" style="html=1;shadow=0;dashed=0;shape=mxgraph.bootstrap.radioButton2;labelPosition=right;verticalLabelPosition=middle;align=left;verticalAlign=middle;gradientColor=#DEDEDE;fillColor=#EDEDED;checked=0;spacing=5;checkedFill=#0085FC;checkedStroke=#ffffff;" vertex="1" parent="1">
          <mxGeometry x="265" y="560" width="10" height="10" as="geometry" />
        </mxCell>
        <mxCell id="lCshdplJXtsAIT2uv_S6-54" value="element 4" style="html=1;shadow=0;dashed=0;shape=mxgraph.bootstrap.radioButton2;labelPosition=right;verticalLabelPosition=middle;align=left;verticalAlign=middle;gradientColor=#DEDEDE;fillColor=#EDEDED;checked=0;spacing=5;checkedFill=#0085FC;checkedStroke=#ffffff;" vertex="1" parent="1">
          <mxGeometry x="345" y="560" width="10" height="10" as="geometry" />
        </mxCell>
        <mxCell id="lCshdplJXtsAIT2uv_S6-55" value="element 5" style="html=1;shadow=0;dashed=0;shape=mxgraph.bootstrap.radioButton2;labelPosition=right;verticalLabelPosition=middle;align=left;verticalAlign=middle;gradientColor=#DEDEDE;fillColor=#EDEDED;checked=0;spacing=5;checkedFill=#0085FC;checkedStroke=#ffffff;" vertex="1" parent="1">
          <mxGeometry x="105" y="580" width="10" height="10" as="geometry" />
        </mxCell>
        <mxCell id="lCshdplJXtsAIT2uv_S6-56" value="element 6" style="html=1;shadow=0;dashed=0;shape=mxgraph.bootstrap.radioButton2;labelPosition=right;verticalLabelPosition=middle;align=left;verticalAlign=middle;gradientColor=#DEDEDE;fillColor=#EDEDED;checked=0;spacing=5;checkedFill=#0085FC;checkedStroke=#ffffff;" vertex="1" parent="1">
          <mxGeometry x="185" y="580" width="10" height="10" as="geometry" />
        </mxCell>
        <mxCell id="lCshdplJXtsAIT2uv_S6-57" value="element 7" style="html=1;shadow=0;dashed=0;shape=mxgraph.bootstrap.radioButton2;labelPosition=right;verticalLabelPosition=middle;align=left;verticalAlign=middle;gradientColor=#DEDEDE;fillColor=#EDEDED;checked=0;spacing=5;checkedFill=#0085FC;checkedStroke=#ffffff;" vertex="1" parent="1">
          <mxGeometry x="265" y="580" width="10" height="10" as="geometry" />
        </mxCell>
        <mxCell id="lCshdplJXtsAIT2uv_S6-58" value="element 8" style="html=1;shadow=0;dashed=0;shape=mxgraph.bootstrap.radioButton2;labelPosition=right;verticalLabelPosition=middle;align=left;verticalAlign=middle;gradientColor=#DEDEDE;fillColor=#EDEDED;checked=0;spacing=5;checkedFill=#0085FC;checkedStroke=#ffffff;" vertex="1" parent="1">
          <mxGeometry x="345" y="580" width="10" height="10" as="geometry" />
        </mxCell>
        <mxCell id="lCshdplJXtsAIT2uv_S6-59" value="" style="rounded=0;whiteSpace=wrap;html=1;strokeColor=default;fillColor=none;dashed=1;strokeWidth=1;" vertex="1" parent="1">
          <mxGeometry x="70" y="610" width="380" height="160" as="geometry" />
        </mxCell>
        <mxCell id="lCshdplJXtsAIT2uv_S6-62" value="Search &lt;b&gt;Choice&lt;/b&gt;" style="rounded=1;html=1;shadow=0;dashed=0;whiteSpace=wrap;fontSize=6;fillColor=#E6E6E6;align=center;strokeColor=#B3B3B3;fontColor=#333333;" vertex="1" parent="1">
          <mxGeometry x="80" y="960" width="80" height="20" as="geometry" />
        </mxCell>
        <mxCell id="lCshdplJXtsAIT2uv_S6-63" value="query ..." style="strokeWidth=1;html=1;shadow=0;dashed=0;shape=mxgraph.ios.iTextInput;strokeColor=#444444;buttonText=;fontSize=8;whiteSpace=wrap;align=center;" vertex="1" parent="1">
          <mxGeometry x="160" y="960" width="280" height="20" as="geometry" />
        </mxCell>
        <mxCell id="lCshdplJXtsAIT2uv_S6-64" value="choice 1 name" style="strokeWidth=1;html=1;shadow=0;dashed=0;shape=mxgraph.ios.iTextInput;strokeColor=#444444;buttonText=;fontSize=8;whiteSpace=wrap;align=center;" vertex="1" parent="1">
          <mxGeometry x="90" y="1000" width="160" height="20" as="geometry" />
        </mxCell>
        <mxCell id="lCshdplJXtsAIT2uv_S6-65" value="choice 2 name" style="strokeWidth=1;html=1;shadow=0;dashed=0;shape=mxgraph.ios.iTextInput;strokeColor=#444444;buttonText=;fontSize=8;whiteSpace=wrap;align=center;" vertex="1" parent="1">
          <mxGeometry x="90" y="1020" width="160" height="20" as="geometry" />
        </mxCell>
        <mxCell id="lCshdplJXtsAIT2uv_S6-66" value="choice 3 name" style="strokeWidth=1;html=1;shadow=0;dashed=0;shape=mxgraph.ios.iTextInput;strokeColor=#444444;buttonText=;fontSize=8;whiteSpace=wrap;align=center;" vertex="1" parent="1">
          <mxGeometry x="90" y="1040" width="160" height="20" as="geometry" />
        </mxCell>
        <mxCell id="lCshdplJXtsAIT2uv_S6-67" value="choice 4 name" style="strokeWidth=1;html=1;shadow=0;dashed=0;shape=mxgraph.ios.iTextInput;strokeColor=#444444;buttonText=;fontSize=8;whiteSpace=wrap;align=center;" vertex="1" parent="1">
          <mxGeometry x="90" y="1060" width="160" height="20" as="geometry" />
        </mxCell>
        <mxCell id="lCshdplJXtsAIT2uv_S6-68" value="choice 5 name" style="strokeWidth=1;html=1;shadow=0;dashed=0;shape=mxgraph.ios.iTextInput;strokeColor=#444444;buttonText=;fontSize=8;whiteSpace=wrap;align=center;" vertex="1" parent="1">
          <mxGeometry x="90" y="1080" width="160" height="20" as="geometry" />
        </mxCell>
        <mxCell id="lCshdplJXtsAIT2uv_S6-69" value="Textarea&lt;br&gt;Show body of selected choice" style="rounded=1;html=1;shadow=0;dashed=0;whiteSpace=wrap;fontSize=6;fillColor=#E6E6E6;align=center;strokeColor=#B3B3B3;fontColor=#333333;" vertex="1" parent="1">
          <mxGeometry x="270" y="1000" width="160" height="100" as="geometry" />
        </mxCell>
        <mxCell id="lCshdplJXtsAIT2uv_S6-70" value="Search &lt;b&gt;Element&lt;/b&gt;" style="rounded=1;html=1;shadow=0;dashed=0;whiteSpace=wrap;fontSize=6;fillColor=#E6E6E6;align=center;strokeColor=#B3B3B3;fontColor=#333333;" vertex="1" parent="1">
          <mxGeometry x="80" y="870" width="80" height="20" as="geometry" />
        </mxCell>
        <mxCell id="lCshdplJXtsAIT2uv_S6-71" value="query ..." style="strokeWidth=1;html=1;shadow=0;dashed=0;shape=mxgraph.ios.iTextInput;strokeColor=#444444;buttonText=;fontSize=8;whiteSpace=wrap;align=center;" vertex="1" parent="1">
          <mxGeometry x="160" y="870" width="280" height="20" as="geometry" />
        </mxCell>
        <mxCell id="lCshdplJXtsAIT2uv_S6-72" value="&lt;b&gt;Element&amp;nbsp; 3&lt;/b&gt;" style="rounded=1;html=1;shadow=0;dashed=0;whiteSpace=wrap;fontSize=6;fillColor=#E6E6E6;align=center;strokeColor=#B3B3B3;fontColor=#333333;" vertex="1" parent="1">
          <mxGeometry x="80" y="840" width="360" height="20" as="geometry" />
        </mxCell>
        <mxCell id="lCshdplJXtsAIT2uv_S6-73" value="element 1" style="html=1;shadow=0;dashed=0;shape=mxgraph.bootstrap.radioButton2;labelPosition=right;verticalLabelPosition=middle;align=left;verticalAlign=middle;gradientColor=#DEDEDE;fillColor=#EDEDED;checked=0;spacing=5;checkedFill=#0085FC;checkedStroke=#ffffff;" vertex="1" parent="1">
          <mxGeometry x="105" y="900" width="10" height="10" as="geometry" />
        </mxCell>
        <mxCell id="lCshdplJXtsAIT2uv_S6-74" value="element 2" style="html=1;shadow=0;dashed=0;shape=mxgraph.bootstrap.radioButton2;labelPosition=right;verticalLabelPosition=middle;align=left;verticalAlign=middle;gradientColor=#DEDEDE;fillColor=#EDEDED;checked=0;spacing=5;checkedFill=#0085FC;checkedStroke=#ffffff;" vertex="1" parent="1">
          <mxGeometry x="185" y="900" width="10" height="10" as="geometry" />
        </mxCell>
        <mxCell id="lCshdplJXtsAIT2uv_S6-75" value="element 3" style="html=1;shadow=0;dashed=0;shape=mxgraph.bootstrap.radioButton2;labelPosition=right;verticalLabelPosition=middle;align=left;verticalAlign=middle;gradientColor=#DEDEDE;fillColor=#EDEDED;checked=0;spacing=5;checkedFill=#0085FC;checkedStroke=#ffffff;" vertex="1" parent="1">
          <mxGeometry x="265" y="900" width="10" height="10" as="geometry" />
        </mxCell>
        <mxCell id="lCshdplJXtsAIT2uv_S6-76" value="element 4" style="html=1;shadow=0;dashed=0;shape=mxgraph.bootstrap.radioButton2;labelPosition=right;verticalLabelPosition=middle;align=left;verticalAlign=middle;gradientColor=#DEDEDE;fillColor=#EDEDED;checked=0;spacing=5;checkedFill=#0085FC;checkedStroke=#ffffff;" vertex="1" parent="1">
          <mxGeometry x="345" y="900" width="10" height="10" as="geometry" />
        </mxCell>
        <mxCell id="lCshdplJXtsAIT2uv_S6-77" value="element 5" style="html=1;shadow=0;dashed=0;shape=mxgraph.bootstrap.radioButton2;labelPosition=right;verticalLabelPosition=middle;align=left;verticalAlign=middle;gradientColor=#DEDEDE;fillColor=#EDEDED;checked=0;spacing=5;checkedFill=#0085FC;checkedStroke=#ffffff;" vertex="1" parent="1">
          <mxGeometry x="105" y="920" width="10" height="10" as="geometry" />
        </mxCell>
        <mxCell id="lCshdplJXtsAIT2uv_S6-78" value="element 6" style="html=1;shadow=0;dashed=0;shape=mxgraph.bootstrap.radioButton2;labelPosition=right;verticalLabelPosition=middle;align=left;verticalAlign=middle;gradientColor=#DEDEDE;fillColor=#EDEDED;checked=0;spacing=5;checkedFill=#0085FC;checkedStroke=#ffffff;" vertex="1" parent="1">
          <mxGeometry x="185" y="920" width="10" height="10" as="geometry" />
        </mxCell>
        <mxCell id="lCshdplJXtsAIT2uv_S6-79" value="element 7" style="html=1;shadow=0;dashed=0;shape=mxgraph.bootstrap.radioButton2;labelPosition=right;verticalLabelPosition=middle;align=left;verticalAlign=middle;gradientColor=#DEDEDE;fillColor=#EDEDED;checked=0;spacing=5;checkedFill=#0085FC;checkedStroke=#ffffff;" vertex="1" parent="1">
          <mxGeometry x="265" y="920" width="10" height="10" as="geometry" />
        </mxCell>
        <mxCell id="lCshdplJXtsAIT2uv_S6-80" value="element 8" style="html=1;shadow=0;dashed=0;shape=mxgraph.bootstrap.radioButton2;labelPosition=right;verticalLabelPosition=middle;align=left;verticalAlign=middle;gradientColor=#DEDEDE;fillColor=#EDEDED;checked=0;spacing=5;checkedFill=#0085FC;checkedStroke=#ffffff;" vertex="1" parent="1">
          <mxGeometry x="345" y="920" width="10" height="10" as="geometry" />
        </mxCell>
        <mxCell id="lCshdplJXtsAIT2uv_S6-81" value="" style="rounded=0;whiteSpace=wrap;html=1;strokeColor=default;fillColor=none;dashed=1;strokeWidth=1;" vertex="1" parent="1">
          <mxGeometry x="70" y="950" width="380" height="160" as="geometry" />
        </mxCell>
        <mxCell id="lCshdplJXtsAIT2uv_S6-84" value="Search &lt;b&gt;Prompt&lt;/b&gt;" style="rounded=1;html=1;shadow=0;dashed=0;whiteSpace=wrap;fontSize=6;fillColor=#E6E6E6;align=center;strokeColor=#B3B3B3;fontColor=#333333;" vertex="1" parent="1">
          <mxGeometry x="80" y="1320" width="80" height="20" as="geometry" />
        </mxCell>
        <mxCell id="lCshdplJXtsAIT2uv_S6-85" value="query ..." style="strokeWidth=1;html=1;shadow=0;dashed=0;shape=mxgraph.ios.iTextInput;strokeColor=#444444;buttonText=;fontSize=8;whiteSpace=wrap;align=center;" vertex="1" parent="1">
          <mxGeometry x="160" y="1320" width="160" height="20" as="geometry" />
        </mxCell>
        <mxCell id="lCshdplJXtsAIT2uv_S6-86" value="Search &lt;b&gt;Values&amp;nbsp;&lt;/b&gt;" style="rounded=1;html=1;shadow=0;dashed=0;whiteSpace=wrap;fontSize=6;fillColor=#E6E6E6;align=center;strokeColor=#B3B3B3;fontColor=#333333;" vertex="1" parent="1">
          <mxGeometry x="360" y="1350" width="80" height="20" as="geometry" />
        </mxCell>
        <mxCell id="lCshdplJXtsAIT2uv_S6-87" value="query ..." style="strokeWidth=1;html=1;shadow=0;dashed=0;shape=mxgraph.ios.iTextInput;strokeColor=#444444;buttonText=;fontSize=8;whiteSpace=wrap;align=center;" vertex="1" parent="1">
          <mxGeometry x="440" y="1350" width="280" height="20" as="geometry" />
        </mxCell>
        <mxCell id="lCshdplJXtsAIT2uv_S6-88" value="choice 1 name" style="strokeWidth=1;html=1;shadow=0;dashed=0;shape=mxgraph.ios.iTextInput;strokeColor=#444444;buttonText=;fontSize=8;whiteSpace=wrap;align=center;" vertex="1" parent="1">
          <mxGeometry x="370" y="1390" width="160" height="20" as="geometry" />
        </mxCell>
        <mxCell id="lCshdplJXtsAIT2uv_S6-89" value="choice 2 name" style="strokeWidth=1;html=1;shadow=0;dashed=0;shape=mxgraph.ios.iTextInput;strokeColor=#444444;buttonText=;fontSize=8;whiteSpace=wrap;align=center;" vertex="1" parent="1">
          <mxGeometry x="370" y="1410" width="160" height="20" as="geometry" />
        </mxCell>
        <mxCell id="lCshdplJXtsAIT2uv_S6-90" value="choice 3 name" style="strokeWidth=1;html=1;shadow=0;dashed=0;shape=mxgraph.ios.iTextInput;strokeColor=#444444;buttonText=;fontSize=8;whiteSpace=wrap;align=center;" vertex="1" parent="1">
          <mxGeometry x="370" y="1430" width="160" height="20" as="geometry" />
        </mxCell>
        <mxCell id="lCshdplJXtsAIT2uv_S6-91" value="choice 4 name" style="strokeWidth=1;html=1;shadow=0;dashed=0;shape=mxgraph.ios.iTextInput;strokeColor=#444444;buttonText=;fontSize=8;whiteSpace=wrap;align=center;" vertex="1" parent="1">
          <mxGeometry x="370" y="1450" width="160" height="20" as="geometry" />
        </mxCell>
        <mxCell id="lCshdplJXtsAIT2uv_S6-92" value="choice 5 name" style="strokeWidth=1;html=1;shadow=0;dashed=0;shape=mxgraph.ios.iTextInput;strokeColor=#444444;buttonText=;fontSize=8;whiteSpace=wrap;align=center;" vertex="1" parent="1">
          <mxGeometry x="370" y="1470" width="160" height="20" as="geometry" />
        </mxCell>
        <mxCell id="lCshdplJXtsAIT2uv_S6-93" value="Textarea&lt;br&gt;Show body of selected choice" style="rounded=1;html=1;shadow=0;dashed=0;whiteSpace=wrap;fontSize=6;fillColor=#E6E6E6;align=center;strokeColor=#B3B3B3;fontColor=#333333;" vertex="1" parent="1">
          <mxGeometry x="550" y="1390" width="160" height="100" as="geometry" />
        </mxCell>
        <mxCell id="lCshdplJXtsAIT2uv_S6-94" value="" style="rounded=0;whiteSpace=wrap;html=1;strokeColor=default;fillColor=none;dashed=1;strokeWidth=1;" vertex="1" parent="1">
          <mxGeometry x="350" y="1310" width="370" height="190" as="geometry" />
        </mxCell>
        <mxCell id="lCshdplJXtsAIT2uv_S6-95" value="Fold Button" style="rounded=1;html=1;shadow=0;dashed=0;whiteSpace=wrap;fontSize=6;fillColor=#E6E6E6;align=center;strokeColor=#B3B3B3;fontColor=#333333;" vertex="1" parent="1">
          <mxGeometry x="300" y="1600" width="20" height="20" as="geometry" />
        </mxCell>
        <mxCell id="lCshdplJXtsAIT2uv_S6-96" value="n prompts" style="rounded=1;html=1;shadow=0;dashed=0;whiteSpace=wrap;fontSize=6;fillColor=#E6E6E6;align=center;strokeColor=#B3B3B3;fontColor=#333333;" vertex="1" parent="1">
          <mxGeometry x="250" y="1600" width="40" height="20" as="geometry" />
        </mxCell>
        <mxCell id="lCshdplJXtsAIT2uv_S6-97" value="Info" style="rounded=1;html=1;shadow=0;dashed=0;whiteSpace=wrap;fontSize=6;fillColor=#E6E6E6;align=center;strokeColor=#B3B3B3;fontColor=#333333;" vertex="1" parent="1">
          <mxGeometry x="280" y="1630" width="40" height="20" as="geometry" />
        </mxCell>
        <mxCell id="lCshdplJXtsAIT2uv_S6-98" value="Group 3" style="strokeWidth=1;html=1;shadow=0;dashed=0;shape=mxgraph.ios.iTextInput;strokeColor=#444444;buttonText=;fontSize=8;whiteSpace=wrap;align=center;" vertex="1" parent="1">
          <mxGeometry x="80" y="1600" width="160" height="20" as="geometry" />
        </mxCell>
        <mxCell id="lCshdplJXtsAIT2uv_S6-99" value="Prompt 7" style="strokeWidth=1;html=1;shadow=0;dashed=0;shape=mxgraph.ios.iTextInput;strokeColor=#444444;buttonText=;fontSize=8;whiteSpace=wrap;align=center;" vertex="1" parent="1">
          <mxGeometry x="130" y="1630" width="140" height="20" as="geometry" />
        </mxCell>
        <mxCell id="lCshdplJXtsAIT2uv_S6-100" value="Info" style="rounded=1;html=1;shadow=0;dashed=0;whiteSpace=wrap;fontSize=6;fillColor=#E6E6E6;align=center;strokeColor=#B3B3B3;fontColor=#333333;" vertex="1" parent="1">
          <mxGeometry x="280" y="1660" width="40" height="20" as="geometry" />
        </mxCell>
        <mxCell id="lCshdplJXtsAIT2uv_S6-101" value="Prompt 8" style="strokeWidth=1;html=1;shadow=0;dashed=0;shape=mxgraph.ios.iTextInput;strokeColor=#444444;buttonText=;fontSize=8;whiteSpace=wrap;align=center;" vertex="1" parent="1">
          <mxGeometry x="130" y="1660" width="140" height="20" as="geometry" />
        </mxCell>
        <mxCell id="lCshdplJXtsAIT2uv_S6-102" value="Info" style="rounded=1;html=1;shadow=0;dashed=0;whiteSpace=wrap;fontSize=6;fillColor=#E6E6E6;align=center;strokeColor=#B3B3B3;fontColor=#333333;" vertex="1" parent="1">
          <mxGeometry x="280" y="1690" width="40" height="20" as="geometry" />
        </mxCell>
        <mxCell id="lCshdplJXtsAIT2uv_S6-103" value="Prompt 9" style="strokeWidth=1;html=1;shadow=0;dashed=0;shape=mxgraph.ios.iTextInput;strokeColor=#444444;buttonText=;fontSize=8;whiteSpace=wrap;align=center;" vertex="1" parent="1">
          <mxGeometry x="130" y="1690" width="140" height="20" as="geometry" />
        </mxCell>
        <mxCell id="lCshdplJXtsAIT2uv_S6-104" value="" style="verticalLabelPosition=bottom;shadow=0;dashed=0;align=center;html=1;verticalAlign=top;shape=mxgraph.electrical.transmission.3_line_bus;" vertex="1" parent="1">
          <mxGeometry x="100" y="1630" width="20" height="20" as="geometry" />
        </mxCell>
        <mxCell id="lCshdplJXtsAIT2uv_S6-105" value="" style="verticalLabelPosition=bottom;shadow=0;dashed=0;align=center;html=1;verticalAlign=top;shape=mxgraph.electrical.transmission.3_line_bus;" vertex="1" parent="1">
          <mxGeometry x="100" y="1660" width="20" height="20" as="geometry" />
        </mxCell>
        <mxCell id="lCshdplJXtsAIT2uv_S6-106" value="" style="verticalLabelPosition=bottom;shadow=0;dashed=0;align=center;html=1;verticalAlign=top;shape=mxgraph.electrical.transmission.3_line_bus;" vertex="1" parent="1">
          <mxGeometry x="100" y="1690" width="20" height="20" as="geometry" />
        </mxCell>
        <mxCell id="lCshdplJXtsAIT2uv_S6-107" value="" style="rounded=0;whiteSpace=wrap;html=1;strokeColor=default;fillColor=none;dashed=1;strokeWidth=1;" vertex="1" parent="1">
          <mxGeometry x="70" y="1310" width="260" height="610" as="geometry" />
        </mxCell>
        <mxCell id="lCshdplJXtsAIT2uv_S6-108" value="Variable 1" style="rounded=1;html=1;shadow=0;dashed=0;whiteSpace=wrap;fontSize=6;fillColor=#E6E6E6;align=center;strokeColor=#B3B3B3;fontColor=#333333;" vertex="1" parent="1">
          <mxGeometry x="360" y="1320" width="360" height="20" as="geometry" />
        </mxCell>
        <mxCell id="lCshdplJXtsAIT2uv_S6-109" value="Search &lt;b&gt;Values&amp;nbsp;&lt;/b&gt;" style="rounded=1;html=1;shadow=0;dashed=0;whiteSpace=wrap;fontSize=6;fillColor=#E6E6E6;align=center;strokeColor=#B3B3B3;fontColor=#333333;" vertex="1" parent="1">
          <mxGeometry x="360" y="1560" width="80" height="20" as="geometry" />
        </mxCell>
        <mxCell id="lCshdplJXtsAIT2uv_S6-110" value="query ..." style="strokeWidth=1;html=1;shadow=0;dashed=0;shape=mxgraph.ios.iTextInput;strokeColor=#444444;buttonText=;fontSize=8;whiteSpace=wrap;align=center;" vertex="1" parent="1">
          <mxGeometry x="440" y="1560" width="280" height="20" as="geometry" />
        </mxCell>
        <mxCell id="lCshdplJXtsAIT2uv_S6-111" value="choice 1 name" style="strokeWidth=1;html=1;shadow=0;dashed=0;shape=mxgraph.ios.iTextInput;strokeColor=#444444;buttonText=;fontSize=8;whiteSpace=wrap;align=center;" vertex="1" parent="1">
          <mxGeometry x="370" y="1600" width="160" height="20" as="geometry" />
        </mxCell>
        <mxCell id="lCshdplJXtsAIT2uv_S6-112" value="choice 2 name" style="strokeWidth=1;html=1;shadow=0;dashed=0;shape=mxgraph.ios.iTextInput;strokeColor=#444444;buttonText=;fontSize=8;whiteSpace=wrap;align=center;" vertex="1" parent="1">
          <mxGeometry x="370" y="1620" width="160" height="20" as="geometry" />
        </mxCell>
        <mxCell id="lCshdplJXtsAIT2uv_S6-113" value="choice 3 name" style="strokeWidth=1;html=1;shadow=0;dashed=0;shape=mxgraph.ios.iTextInput;strokeColor=#444444;buttonText=;fontSize=8;whiteSpace=wrap;align=center;" vertex="1" parent="1">
          <mxGeometry x="370" y="1640" width="160" height="20" as="geometry" />
        </mxCell>
        <mxCell id="lCshdplJXtsAIT2uv_S6-114" value="choice 4 name" style="strokeWidth=1;html=1;shadow=0;dashed=0;shape=mxgraph.ios.iTextInput;strokeColor=#444444;buttonText=;fontSize=8;whiteSpace=wrap;align=center;" vertex="1" parent="1">
          <mxGeometry x="370" y="1660" width="160" height="20" as="geometry" />
        </mxCell>
        <mxCell id="lCshdplJXtsAIT2uv_S6-115" value="choice 5 name" style="strokeWidth=1;html=1;shadow=0;dashed=0;shape=mxgraph.ios.iTextInput;strokeColor=#444444;buttonText=;fontSize=8;whiteSpace=wrap;align=center;" vertex="1" parent="1">
          <mxGeometry x="370" y="1680" width="160" height="20" as="geometry" />
        </mxCell>
        <mxCell id="lCshdplJXtsAIT2uv_S6-116" value="Textarea&lt;br&gt;Show body of selected choice" style="rounded=1;html=1;shadow=0;dashed=0;whiteSpace=wrap;fontSize=6;fillColor=#E6E6E6;align=center;strokeColor=#B3B3B3;fontColor=#333333;" vertex="1" parent="1">
          <mxGeometry x="550" y="1600" width="160" height="100" as="geometry" />
        </mxCell>
        <mxCell id="lCshdplJXtsAIT2uv_S6-117" value="" style="rounded=0;whiteSpace=wrap;html=1;strokeColor=default;fillColor=none;dashed=1;strokeWidth=1;" vertex="1" parent="1">
          <mxGeometry x="350" y="1520" width="370" height="190" as="geometry" />
        </mxCell>
        <mxCell id="lCshdplJXtsAIT2uv_S6-118" value="Variable 1" style="rounded=1;html=1;shadow=0;dashed=0;whiteSpace=wrap;fontSize=6;fillColor=#E6E6E6;align=center;strokeColor=#B3B3B3;fontColor=#333333;" vertex="1" parent="1">
          <mxGeometry x="360" y="1530" width="360" height="20" as="geometry" />
        </mxCell>
        <mxCell id="lCshdplJXtsAIT2uv_S6-119" value="Search &lt;b&gt;Values&amp;nbsp;&lt;/b&gt;" style="rounded=1;html=1;shadow=0;dashed=0;whiteSpace=wrap;fontSize=6;fillColor=#E6E6E6;align=center;strokeColor=#B3B3B3;fontColor=#333333;" vertex="1" parent="1">
          <mxGeometry x="360" y="1770" width="80" height="20" as="geometry" />
        </mxCell>
        <mxCell id="lCshdplJXtsAIT2uv_S6-120" value="query ..." style="strokeWidth=1;html=1;shadow=0;dashed=0;shape=mxgraph.ios.iTextInput;strokeColor=#444444;buttonText=;fontSize=8;whiteSpace=wrap;align=center;" vertex="1" parent="1">
          <mxGeometry x="440" y="1770" width="280" height="20" as="geometry" />
        </mxCell>
        <mxCell id="lCshdplJXtsAIT2uv_S6-121" value="choice 1 name" style="strokeWidth=1;html=1;shadow=0;dashed=0;shape=mxgraph.ios.iTextInput;strokeColor=#444444;buttonText=;fontSize=8;whiteSpace=wrap;align=center;" vertex="1" parent="1">
          <mxGeometry x="370" y="1810" width="160" height="20" as="geometry" />
        </mxCell>
        <mxCell id="lCshdplJXtsAIT2uv_S6-122" value="choice 2 name" style="strokeWidth=1;html=1;shadow=0;dashed=0;shape=mxgraph.ios.iTextInput;strokeColor=#444444;buttonText=;fontSize=8;whiteSpace=wrap;align=center;" vertex="1" parent="1">
          <mxGeometry x="370" y="1830" width="160" height="20" as="geometry" />
        </mxCell>
        <mxCell id="lCshdplJXtsAIT2uv_S6-123" value="choice 3 name" style="strokeWidth=1;html=1;shadow=0;dashed=0;shape=mxgraph.ios.iTextInput;strokeColor=#444444;buttonText=;fontSize=8;whiteSpace=wrap;align=center;" vertex="1" parent="1">
          <mxGeometry x="370" y="1850" width="160" height="20" as="geometry" />
        </mxCell>
        <mxCell id="lCshdplJXtsAIT2uv_S6-124" value="choice 4 name" style="strokeWidth=1;html=1;shadow=0;dashed=0;shape=mxgraph.ios.iTextInput;strokeColor=#444444;buttonText=;fontSize=8;whiteSpace=wrap;align=center;" vertex="1" parent="1">
          <mxGeometry x="370" y="1870" width="160" height="20" as="geometry" />
        </mxCell>
        <mxCell id="lCshdplJXtsAIT2uv_S6-125" value="choice 5 name" style="strokeWidth=1;html=1;shadow=0;dashed=0;shape=mxgraph.ios.iTextInput;strokeColor=#444444;buttonText=;fontSize=8;whiteSpace=wrap;align=center;" vertex="1" parent="1">
          <mxGeometry x="370" y="1890" width="160" height="20" as="geometry" />
        </mxCell>
        <mxCell id="lCshdplJXtsAIT2uv_S6-126" value="Textarea&lt;br&gt;Show body of selected choice" style="rounded=1;html=1;shadow=0;dashed=0;whiteSpace=wrap;fontSize=6;fillColor=#E6E6E6;align=center;strokeColor=#B3B3B3;fontColor=#333333;" vertex="1" parent="1">
          <mxGeometry x="550" y="1810" width="160" height="100" as="geometry" />
        </mxCell>
        <mxCell id="lCshdplJXtsAIT2uv_S6-127" value="" style="rounded=0;whiteSpace=wrap;html=1;strokeColor=default;fillColor=none;dashed=1;strokeWidth=1;" vertex="1" parent="1">
          <mxGeometry x="350" y="1730" width="370" height="190" as="geometry" />
        </mxCell>
        <mxCell id="lCshdplJXtsAIT2uv_S6-128" value="Variable 1" style="rounded=1;html=1;shadow=0;dashed=0;whiteSpace=wrap;fontSize=6;fillColor=#E6E6E6;align=center;strokeColor=#B3B3B3;fontColor=#333333;" vertex="1" parent="1">
          <mxGeometry x="360" y="1740" width="360" height="20" as="geometry" />
        </mxCell>
        <mxCell id="1S01KzgkJAEUToZIRMWd-1" value="&lt;b&gt;Sample Prompt IDE&lt;/b&gt;" style="text;html=1;align=center;verticalAlign=middle;whiteSpace=wrap;rounded=0;fillColor=#f5f5f5;fontColor=#333333;strokeColor=#666666;" vertex="1" parent="1">
          <mxGeometry x="40" y="40" width="720" height="40" as="geometry" />
        </mxCell>
      </root>
    </mxGraphModel>
  </diagram>
  <diagram id="CXiL0Xj33B9xab4neMq5" name="Sample Platform">
    <mxGraphModel dx="1495" dy="800" grid="1" gridSize="10" guides="1" tooltips="1" connect="1" arrows="1" fold="1" page="1" pageScale="1" pageWidth="850" pageHeight="1100" math="0" shadow="0">
      <root>
        <mxCell id="0" />
        <mxCell id="1" parent="0" />
        <mxCell id="0_tffHQGsAonC8AIB_bX-1" value="Prompt Database" style="sketch=0;points=[[0,0,0],[0.25,0,0],[0.5,0,0],[0.75,0,0],[1,0,0],[0,1,0],[0.25,1,0],[0.5,1,0],[0.75,1,0],[1,1,0],[0,0.25,0],[0,0.5,0],[0,0.75,0],[1,0.25,0],[1,0.5,0],[1,0.75,0]];outlineConnect=0;fontColor=#232F3E;fillColor=#C925D1;strokeColor=#ffffff;dashed=0;verticalLabelPosition=bottom;verticalAlign=top;align=center;html=1;fontSize=12;fontStyle=0;aspect=fixed;shape=mxgraph.aws4.resourceIcon;resIcon=mxgraph.aws4.rds;" vertex="1" parent="1">
          <mxGeometry x="440" y="200" width="80" height="80" as="geometry" />
        </mxCell>
        <mxCell id="0_tffHQGsAonC8AIB_bX-2" value="Kinesis Stream" style="sketch=0;points=[[0,0,0],[0.25,0,0],[0.5,0,0],[0.75,0,0],[1,0,0],[0,1,0],[0.25,1,0],[0.5,1,0],[0.75,1,0],[1,1,0],[0,0.25,0],[0,0.5,0],[0,0.75,0],[1,0.25,0],[1,0.5,0],[1,0.75,0]];outlineConnect=0;fontColor=#232F3E;fillColor=#8C4FFF;strokeColor=#ffffff;dashed=0;verticalLabelPosition=bottom;verticalAlign=top;align=center;html=1;fontSize=12;fontStyle=0;aspect=fixed;shape=mxgraph.aws4.resourceIcon;resIcon=mxgraph.aws4.kinesis;" vertex="1" parent="1">
          <mxGeometry x="840" y="400" width="80" height="80" as="geometry" />
        </mxCell>
        <mxCell id="0_tffHQGsAonC8AIB_bX-18" style="edgeStyle=orthogonalEdgeStyle;rounded=0;orthogonalLoop=1;jettySize=auto;html=1;entryX=0;entryY=0.5;entryDx=0;entryDy=0;" edge="1" parent="1" source="0_tffHQGsAonC8AIB_bX-3" target="0_tffHQGsAonC8AIB_bX-13">
          <mxGeometry relative="1" as="geometry" />
        </mxCell>
        <mxCell id="0_tffHQGsAonC8AIB_bX-3" value="Prompt IDE" style="image;html=1;points=[];align=center;fontSize=12;image=img/lib/azure2/app_services/App_Service_Domains.svg;" vertex="1" parent="1">
          <mxGeometry x="200" y="200" width="80" height="80" as="geometry" />
        </mxCell>
        <mxCell id="0_tffHQGsAonC8AIB_bX-8" value="OpenSearch" style="sketch=0;outlineConnect=0;fontColor=#232F3E;gradientColor=none;fillColor=#8C4FFF;strokeColor=none;dashed=0;verticalLabelPosition=bottom;verticalAlign=top;align=center;html=1;fontSize=12;fontStyle=0;aspect=fixed;pointerEvents=1;shape=mxgraph.aws4.opensearch_service_index;" vertex="1" parent="1">
          <mxGeometry x="1000" y="400" width="80" height="80" as="geometry" />
        </mxCell>
        <mxCell id="0_tffHQGsAonC8AIB_bX-9" value="LLM Model Proxy API" style="sketch=0;points=[[0,0,0],[0.25,0,0],[0.5,0,0],[0.75,0,0],[1,0,0],[0,1,0],[0.25,1,0],[0.5,1,0],[0.75,1,0],[1,1,0],[0,0.25,0],[0,0.5,0],[0,0.75,0],[1,0.25,0],[1,0.5,0],[1,0.75,0]];outlineConnect=0;fontColor=#232F3E;fillColor=#E7157B;strokeColor=#ffffff;dashed=0;verticalLabelPosition=bottom;verticalAlign=top;align=center;html=1;fontSize=12;fontStyle=0;aspect=fixed;shape=mxgraph.aws4.resourceIcon;resIcon=mxgraph.aws4.api_gateway;" vertex="1" parent="1">
          <mxGeometry x="400" y="400" width="80" height="80" as="geometry" />
        </mxCell>
        <mxCell id="0_tffHQGsAonC8AIB_bX-10" value="LLM Model Proxy" style="sketch=0;points=[[0,0,0],[0.25,0,0],[0.5,0,0],[0.75,0,0],[1,0,0],[0,1,0],[0.25,1,0],[0.5,1,0],[0.75,1,0],[1,1,0],[0,0.25,0],[0,0.5,0],[0,0.75,0],[1,0.25,0],[1,0.5,0],[1,0.75,0]];outlineConnect=0;fontColor=#232F3E;fillColor=#ED7100;strokeColor=#ffffff;dashed=0;verticalLabelPosition=bottom;verticalAlign=top;align=center;html=1;fontSize=12;fontStyle=0;aspect=fixed;shape=mxgraph.aws4.resourceIcon;resIcon=mxgraph.aws4.lambda;" vertex="1" parent="1">
          <mxGeometry x="560" y="400" width="80" height="80" as="geometry" />
        </mxCell>
        <mxCell id="0_tffHQGsAonC8AIB_bX-11" value="Model Visibility" style="swimlane;whiteSpace=wrap;html=1;" vertex="1" parent="1">
          <mxGeometry x="760" y="320" width="400" height="320" as="geometry" />
        </mxCell>
        <mxCell id="Pd-tGbkuEw7YkFDhHh58-1" value="&lt;font style=&quot;font-size: 40px;&quot;&gt;.&amp;nbsp; &amp;nbsp; .&amp;nbsp; &amp;nbsp; .&lt;/font&gt;" style="text;html=1;align=center;verticalAlign=middle;whiteSpace=wrap;rounded=0;" vertex="1" parent="0_tffHQGsAonC8AIB_bX-11">
          <mxGeometry x="120" y="240" width="160" height="40" as="geometry" />
        </mxCell>
        <mxCell id="0_tffHQGsAonC8AIB_bX-12" value="" style="html=1;verticalLabelPosition=bottom;align=center;labelBackgroundColor=#ffffff;verticalAlign=top;strokeWidth=2;strokeColor=#0080F0;shadow=0;dashed=0;shape=mxgraph.ios7.icons.user;" vertex="1" parent="1">
          <mxGeometry x="40" y="200" width="80" height="80" as="geometry" />
        </mxCell>
        <mxCell id="0_tffHQGsAonC8AIB_bX-13" value="LLM Model Proxy" style="swimlane;whiteSpace=wrap;html=1;" vertex="1" parent="1">
          <mxGeometry x="360" y="360" width="320" height="160" as="geometry" />
        </mxCell>
        <mxCell id="0_tffHQGsAonC8AIB_bX-14" value="LLM Model Evaluation Data" style="swimlane;whiteSpace=wrap;html=1;" vertex="1" parent="1">
          <mxGeometry x="800" y="360" width="320" height="160" as="geometry" />
        </mxCell>
        <mxCell id="0_tffHQGsAonC8AIB_bX-16" style="edgeStyle=orthogonalEdgeStyle;rounded=0;orthogonalLoop=1;jettySize=auto;html=1;entryX=-0.037;entryY=0.5;entryDx=0;entryDy=0;entryPerimeter=0;" edge="1" parent="1" source="0_tffHQGsAonC8AIB_bX-12" target="0_tffHQGsAonC8AIB_bX-3">
          <mxGeometry relative="1" as="geometry" />
        </mxCell>
        <mxCell id="0_tffHQGsAonC8AIB_bX-17" style="edgeStyle=orthogonalEdgeStyle;rounded=0;orthogonalLoop=1;jettySize=auto;html=1;entryX=0;entryY=0.5;entryDx=0;entryDy=0;entryPerimeter=0;" edge="1" parent="1" source="0_tffHQGsAonC8AIB_bX-3" target="0_tffHQGsAonC8AIB_bX-1">
          <mxGeometry relative="1" as="geometry" />
        </mxCell>
        <mxCell id="huQjSf8i2ROMkeqWNaoA-1" value="&lt;b&gt;Sample Platform&lt;/b&gt;" style="text;html=1;align=center;verticalAlign=middle;whiteSpace=wrap;rounded=0;fillColor=#f5f5f5;fontColor=#333333;strokeColor=#666666;" vertex="1" parent="1">
          <mxGeometry x="40" y="40" width="720" height="40" as="geometry" />
        </mxCell>
        <mxCell id="Pd-tGbkuEw7YkFDhHh58-2" style="edgeStyle=orthogonalEdgeStyle;rounded=0;orthogonalLoop=1;jettySize=auto;html=1;exitX=1;exitY=0.5;exitDx=0;exitDy=0;exitPerimeter=0;entryX=0;entryY=0.5;entryDx=0;entryDy=0;entryPerimeter=0;" edge="1" parent="1" source="0_tffHQGsAonC8AIB_bX-10" target="0_tffHQGsAonC8AIB_bX-2">
          <mxGeometry relative="1" as="geometry" />
        </mxCell>
        <mxCell id="Pd-tGbkuEw7YkFDhHh58-4" style="edgeStyle=orthogonalEdgeStyle;rounded=0;orthogonalLoop=1;jettySize=auto;html=1;exitX=0;exitY=0.5;exitDx=0;exitDy=0;exitPerimeter=0;" edge="1" parent="1" source="Pd-tGbkuEw7YkFDhHh58-3">
          <mxGeometry relative="1" as="geometry">
            <mxPoint x="1160" y="440" as="targetPoint" />
          </mxGeometry>
        </mxCell>
        <mxCell id="Pd-tGbkuEw7YkFDhHh58-3" value="BI Tool" style="sketch=0;points=[[0,0,0],[0.25,0,0],[0.5,0,0],[0.75,0,0],[1,0,0],[0,1,0],[0.25,1,0],[0.5,1,0],[0.75,1,0],[1,1,0],[0,0.25,0],[0,0.5,0],[0,0.75,0],[1,0.25,0],[1,0.5,0],[1,0.75,0]];outlineConnect=0;fontColor=#232F3E;fillColor=#8C4FFF;strokeColor=#ffffff;dashed=0;verticalLabelPosition=bottom;verticalAlign=top;align=center;html=1;fontSize=12;fontStyle=0;aspect=fixed;shape=mxgraph.aws4.resourceIcon;resIcon=mxgraph.aws4.quicksight;" vertex="1" parent="1">
          <mxGeometry x="1240" y="400" width="80" height="80" as="geometry" />
        </mxCell>
        <mxCell id="Pd-tGbkuEw7YkFDhHh58-5" value="&lt;h1&gt;Highlight&lt;/h1&gt;&lt;p&gt;The LLM Model Proxy calls the LLM model and return the inference result back to the user. It also automatically capture LLM visibility data and send it to the backend data store and analytics engine. The user may also use the Prompt IDE to provide LLM / Prompt evaluation results and send to the visibility backend.&lt;/p&gt;" style="text;html=1;spacing=5;spacingTop=-20;whiteSpace=wrap;overflow=hidden;rounded=0;strokeColor=default;" vertex="1" parent="1">
          <mxGeometry x="40" y="640" width="680" height="200" as="geometry" />
        </mxCell>
        <mxCell id="Pd-tGbkuEw7YkFDhHh58-7" style="edgeStyle=orthogonalEdgeStyle;rounded=0;orthogonalLoop=1;jettySize=auto;html=1;entryX=0;entryY=0.25;entryDx=0;entryDy=0;entryPerimeter=0;" edge="1" parent="1" source="0_tffHQGsAonC8AIB_bX-3" target="0_tffHQGsAonC8AIB_bX-2">
          <mxGeometry relative="1" as="geometry">
            <Array as="points">
              <mxPoint x="240" y="160" />
              <mxPoint x="720" y="160" />
              <mxPoint x="720" y="420" />
            </Array>
          </mxGeometry>
        </mxCell>
      </root>
    </mxGraphModel>
  </diagram>
</mxfile>
